SplineFontDB: 3.0
FontName: Panchanan-Regular
FullName: Panchanan Regular
FamilyName: Panchanan
Weight: Regular
Copyright: Copyright 2024 Panchanan Project Authors (github.com/mitradranirban/panchanan)
FontLog: "generated on 29 Jan 2025 3:47pm IST"
Version: 0.01
ItalicAngle: 0
UnderlinePosition: -205
UnderlineWidth: 102
Ascent: 1638
Descent: 410
InvalidEm: 0
sfntRevision: 0x0000028f
LayerCount: 2
Layer: 0 0 "Back" 1
Layer: 1 0 "Fore" 0
XUID: [1021 557 1747282856 9407099]
StyleMap: 0x0000
FSType: 0
OS2Version: 3
OS2_WeightWidthSlopeOnly: 0
OS2_UseTypoMetrics: 0
CreationTime: 1156104538
ModificationTime: 1738335298
PfmFamily: 17
TTFWeight: 500
TTFWidth: 5
LineGap: 0
VLineGap: 0
Panose: 2 0 6 3 0 0 0 0 0 0
OS2TypoAscent: 2183
OS2TypoAOffset: 0
OS2TypoDescent: -1260
OS2TypoDOffset: 0
OS2TypoLinegap: 0
OS2WinAscent: 2183
OS2WinAOffset: 0
OS2WinDescent: 1260
OS2WinDOffset: 0
HheadAscent: 2183
HheadAOffset: 0
HheadDescent: -1260
HheadDOffset: 0
OS2SubXSize: 1331
OS2SubYSize: 1433
OS2SubXOff: 0
OS2SubYOff: 286
OS2SupXSize: 1331
OS2SupYSize: 1433
OS2SupXOff: 0
OS2SupYOff: 983
OS2StrikeYSize: 102
OS2StrikeYPos: 530
OS2Vendor: 'anir'
OS2CodePages: 00000001.00000000
OS2UnicodeRanges: 80018001.00002000.00000000.00000000
Lookup: 1 0 0 "'init' Initial Forms in Bengali2 lookup 0" { "'init' Initial Forms in Bengali2 lookup 0 subtable"  } ['init' ('bng2' <'dflt' > ) ]
Lookup: 4 0 0 "'nukt' Nukta Forms in Bengali2 lookup 1" { "'nukt' Nukta Forms in Bengali2 lookup 1 subtable"  } ['nukt' ('bng2' <'dflt' > ) ]
Lookup: 4 0 0 "'akhn' Akhand in Bengali2 lookup 12" { "'akhn' Akhand in Bengali2 lookup 12-1"  } ['akhn' ('DFLT' <'dflt' > 'bng2' <'dflt' > ) ]
Lookup: 4 0 0 "'rphf' Reph Form in Bengali2 lookup 3" { "'rphf' Reph Form in Bengali2 lookup 3 subtable"  } ['rphf' ('bng2' <'dflt' > ) ]
Lookup: 4 0 0 "'blwf' Below Base Forms in Bengali2 lookup 4" { "'blwf' Below Base Forms in Bengali2 lookup 4 subtable"  } ['blwf' ('bng2' <'dflt' > ) ]

StartChar: .notdef
Encoding: 0 0 0
GlifName: _notdef
Width: 974
Flags: W
LayerCount: 2
Fore
SplineSet
75 0 m 1
 75 1652 l 1
 825 1652 l 1
 825 0 l 1
 75 0 l 1
150 82 m 1
 750 82 l 1
 750 1570 l 1
 150 1570 l 1
 150 82 l 1
EndSplineSet
EndChar

StartChar: uni0964
Encoding: 2404 2404 2
GlifName: uni0964
Width: 817
GlyphClass: 2
Flags: W
LayerCount: 2
Fore
SplineSet
406 1126 m 0
 424 1131 443 1134 461 1134 c 0
 521 1134 579 1106 622 1056 c 0
 651 1022 665 985 665 939 c 0
 665 886 645 820 606 733 c 0
 573 660 546 589 546 575 c 0
 546 534 496 336 477 302 c 0
 468 287 461 261 461 247 c 0
 461 234 451 206 440 189 c 0
 431 175 427 162 427 150 c 0
 427 122 449 102 486 102 c 0
 539 102 614 29 614 -23 c 0
 614 -78 572 -124 500 -148 c 0
 474 -157 451 -161 431 -161 c 0
 385 -161 352 -137 314 -82 c 0
 278 -30 270 -6 270 82 c 2
 270 120 l 2
 271 219 281 278 307 337 c 0
 352 438 358 549 411 639 c 0
 435 679 450 737 453 795 c 0
 454 814 454 830 454 842 c 0
 454 886 446 887 410 887 c 0
 384 887 343 903 318 922 c 0
 291 943 280 957 280 977 c 0
 280 984 282 992 284 1001 c 0
 298 1057 348 1109 406 1126 c 0
EndSplineSet
EndChar

StartChar: uni0965
Encoding: 2405 2405 3
GlifName: uni0965
Width: 1148
GlyphClass: 2
Flags: W
LayerCount: 2
Fore
SplineSet
705 1184 m 0
 732 1203 764 1212 797 1212 c 0
 879 1212 967 1157 1001 1070 c 0
 1030 997 1044 927 1044 863 c 0
 1044 814 1035 768 1018 730 c 0
 998 686 972 614 959 568 c 0
 946 522 922 460 904 429 c 0
 863 357 798 171 798 127 c 0
 798 124 798 122 799 120 c 0
 803 108 840 97 882 96 c 0
 980 95 1031 52 1031 -23 c 0
 1031 -52 1024 -85 1008 -122 c 0
 984 -179 973 -185 892 -192 c 0
 842 -196 789 -206 772 -214 c 0
 769 -215 766 -216 762 -216 c 0
 741 -216 715 -190 666 -122 c 0
 614 -50 590 7 590 74 c 0
 590 121 602 172 625 238 c 0
 645 293 682 411 709 503 c 0
 736 595 766 695 776 726 c 0
 786 757 793 811 793 846 c 0
 793 901 784 915 733 938 c 0
 678 962 673 973 668 1060 c 0
 667 1076 666 1089 666 1101 c 0
 666 1149 676 1164 705 1184 c 0
256 1211 m 0
 278 1217 300 1220 321 1220 c 0
 401 1220 467 1177 498 1103 c 0
 508 1079 513 1041 513 999 c 0
 513 938 503 868 484 817 c 0
 394 570 314 263 314 164 c 0
 314 119 323 109 371 98 c 0
 437 83 472 26 472 -36 c 0
 472 -87 448 -142 399 -179 c 2
 349 -216 l 1
 262 -170 l 2
 194 -134 166 -104 131 -32 c 0
 106 19 96 46 96 79 c 0
 96 101 100 126 108 163 c 0
 120 220 129 281 129 301 c 0
 129 321 145 370 164 411 c 0
 184 452 213 525 231 577 c 0
 260 663 269 701 306 887 c 2
 319 955 l 1
 247 955 l 2
 162 955 129 980 129 1044 c 0
 129 1118 185 1192 256 1211 c 0
EndSplineSet
EndChar

StartChar: uni0980
Encoding: 2432 2432 4
GlifName: uni0980
Width: 1293
GlyphClass: 2
Flags: MW
HStem: -154 380<958 973 958 994> 740 233<292 468.5> 1372 219<513.5 536.5>
VStem: 55 270<1155.5 1167.5> 642 306<981 1245> 676 234<30 561.5 325 561.5>
LayerCount: 2
Fore
SplineSet
456 1583 m 0xf4
 481 1588 503 1591 524 1591 c 0
 573 1591 619 1576 694 1541 c 0
 813 1485 876 1419 923 1303 c 0
 939 1262 948 1156 948 1038 c 0xf8
 948 924 940 799 924 712 c 0
 914 660 910 595 910 528 c 0
 910 441 918 350 933 280 c 0
 942 239 947 226 969 226 c 0
 977 226 988 228 1003 231 c 0
 1015 233 1025 234 1034 234 c 0
 1061 234 1080 223 1112 194 c 0
 1147 161 1158 145 1158 105 c 0
 1158 92 1157 75 1155 55 c 0
 1142 -79 1047 -154 941 -154 c 0
 870 -154 795 -120 737 -47 c 2
 676 30 l 1
 676 325 l 2
 676 522 683 629 697 646 c 0
 709 660 723 732 731 805 c 2
 745 939 l 1
 656 872 l 2
 551 795 401 740 297 740 c 0
 287 740 277 741 268 742 c 0
 169 753 138 780 124 866 c 0
 118 904 107 937 100 937 c 0
 71 937 55 1028 55 1128 c 0
 55 1207 65 1291 86 1341 c 0
 130 1445 286 1547 456 1583 c 0xf4
597 1351 m 0
 578 1366 551 1372 522 1372 c 0
 448 1372 358 1330 336 1271 c 0
 329 1251 325 1222 325 1191 c 0
 325 1120 342 1034 368 1006 c 0
 385 987 414 973 436 973 c 0
 501 973 593 1043 623 1114 c 0
 636 1144 642 1181 642 1216 c 0
 642 1274 626 1329 597 1351 c 0
EndSplineSet
EndChar

StartChar: bn_chandrabindu
Encoding: 2433 2433 5
GlifName: bn_chandrabindu
Width: 744
GlyphClass: 2
Flags: W
LayerCount: 2
Fore
SplineSet
50 1462 m 0
 57 1481 65 1489 74 1489 c 0
 90 1489 108 1457 119 1400 c 0
 135 1317 178 1246 212 1246 c 0
 221 1246 246 1233 267 1216 c 0
 294 1195 328 1186 381 1186 c 0
 477 1186 554 1237 603 1331 c 0
 631 1385 648 1409 662 1409 c 0
 668 1409 673 1405 679 1396 c 0
 685 1388 687 1378 687 1366 c 0
 687 1332 666 1283 620 1213 c 0
 575 1144 551 1123 498 1104 c 0
 455 1089 412 1082 372 1082 c 0
 220 1082 93 1183 59 1347 c 0
 52 1382 48 1419 48 1442 c 0
 48 1451 49 1458 50 1462 c 0
297 1562 m 0
 315 1572 339 1577 364 1577 c 0
 391 1577 419 1572 443 1561 c 0
 475 1547 494 1500 494 1456 c 0
 494 1433 488 1410 477 1393 c 0
 436 1331 392 1292 363 1292 c 0
 321 1292 246 1361 237 1408 c 0
 236 1414 235 1421 235 1428 c 0
 235 1478 264 1542 297 1562 c 0
414 1493 m 0
 399 1499 386 1502 375 1502 c 0
 359 1502 346 1496 334 1484 c 0
 322 1472 316 1455 316 1438 c 0
 316 1415 326 1393 345 1383 c 0
 362 1374 372 1369 380 1369 c 0
 390 1369 398 1376 413 1391 c 0
 429 1407 437 1430 437 1450 c 0
 437 1470 429 1487 414 1493 c 0
EndSplineSet
EndChar

StartChar: bn_anusvar
Encoding: 2434 2434 6
GlifName: bn_anusvar
Width: 580
GlyphClass: 2
Flags: W
LayerCount: 2
Fore
SplineSet
-61 224 m 0
 -63 261 -54 284 -43 272 c 0
 -31 260 -29 228 -39 201 c 0
 -51 171 -59 179 -61 224 c 0
132 1515 m 0
 233 1609 348 1607 471 1508 c 0
 582 1420 598 1274 509 1147 c 0
 424 1025 176 1047 75 1184 c 0
 -9 1297 9 1400 132 1515 c 0
374 1296 m 0
 357 1348 259 1376 222 1339 c 0
 182 1300 233 1252 315 1252 c 0
 359 1252 383 1269 374 1296 c 0
EndSplineSet
EndChar

StartChar: bn_bisarga
Encoding: 2435 2435 7
GlifName: bn_bisarga
Width: 829
GlyphClass: 2
Flags: W
LayerCount: 2
Fore
SplineSet
187 959 m 0
 187 1068 308 1197 407 1197 c 0
 506 1197 587 1108 587 999 c 0
 587 890 466 761 367 761 c 0
 268 761 187 850 187 959 c 0
187 329 m 0
 187 438 308 567 407 567 c 0
 506 567 587 478 587 369 c 0
 587 260 466 131 367 131 c 0
 268 131 187 220 187 329 c 0
EndSplineSet
EndChar

StartChar: bn_a
Encoding: 2437 2437 8
GlifName: bn_a
Width: 1701
GlyphClass: 2
Flags: W
LayerCount: 2
Fore
SplineSet
187 1487 m 1
 1669 1427 l 1
 1688 1413 1698 1371 1698 1328 c 0
 1698 1302 1694 1277 1686 1257 c 0
 1680 1242 1645 1221 1609 1210 c 0
 1543 1190 1543 1190 1529 1045 c 1
 1511 355 l 2
 1507 337 1505 324 1505 314 c 0
 1505 290 1518 286 1556 278 c 0
 1588 272 1637 243 1667 215 c 0
 1703 180 1715 158 1715 119 c 0
 1715 112 1715 103 1714 94 c 0
 1709 32 1702 24 1653 19 c 0
 1649 19 1644 18 1640 18 c 0
 1605 18 1573 33 1528 68 c 0
 1490 98 1447 124 1433 124 c 0
 1419 124 1391 140 1371 160 c 0
 1351 180 1321 196 1304 196 c 0
 1287 196 1232 220 1184 250 c 0
 1136 280 1086 305 1072 305 c 0
 1058 305 1022 324 988 350 c 0
 936 390 907 396 750 402 c 0
 649 406 546 421 513 436 c 0
 376 498 156 592 124 601 c 0
 105 606 72 647 48 692 c 0
 26 733 16 754 16 771 c 0
 16 786 24 799 39 820 c 0
 57 845 77 858 100 858 c 0
 132 858 170 834 220 786 c 0
 332 677 380 660 688 618 c 0
 695 617 702 617 710 617 c 0
 797 617 938 669 956 712 c 0
 958 716 958 720 958 725 c 0
 958 740 950 759 936 773 c 0
 918 791 904 814 904 824 c 0
 904 834 886 858 864 876 c 0
 844 893 830 901 802 901 c 0
 779 901 747 896 695 886 c 0
 643 876 588 870 558 870 c 0
 548 870 541 871 537 872 c 0
 518 878 508 896 508 916 c 0
 508 936 518 959 537 973 c 0
 556 988 567 1027 567 1083 c 0
 567 1173 542 1206 453 1206 c 0
 432 1206 408 1204 380 1201 c 0
 360 1199 339 1198 316 1198 c 0
 211 1198 87 1221 39 1253 c 0
 15 1269 3 1305 3 1342 c 0
 3 1379 15 1419 39 1443 c 0
 64 1469 108 1482 187 1487 c 1
1220 1230 m 2
 1141 1237 1047 1241 966 1241 c 0
 898 1241 839 1238 809 1233 c 0
 772 1227 766 1214 766 1145 c 0
 766 1065 766 1065 837 1065 c 0
 921 1065 968 1043 1067 960 c 0
 1135 903 1143 887 1143 802 c 0
 1143 713 1104 608 1063 585 c 0
 1049 577 1043 566 1043 553 c 0
 1043 528 1067 499 1109 480 c 0
 1210 436 1259 417 1293 417 c 0
 1315 417 1331 425 1350 440 c 1
 1365 1219 l 1
 1220 1230 l 2
EndSplineSet
EndChar

StartChar: bn_aa
Encoding: 2438 2438 9
GlifName: bn_aa
Width: 2169
GlyphClass: 2
Flags: W
LayerCount: 2
Fore
SplineSet
1220 1230 m 2
 1141 1237 1047 1241 966 1241 c 0
 898 1241 839 1238 809 1233 c 0
 772 1227 766 1214 766 1145 c 0
 766 1065 766 1065 837 1065 c 0
 921 1065 968 1043 1067 960 c 0
 1135 903 1143 887 1143 802 c 0
 1143 713 1104 608 1063 585 c 0
 1049 577 1043 566 1043 553 c 0
 1043 528 1067 499 1109 480 c 0
 1210 436 1259 417 1293 417 c 0
 1315 417 1331 425 1350 440 c 1
 1365 1219 l 1
 1220 1230 l 2
187 1487 m 1
 1669 1427 l 1
 1678 1420 1685 1407 1690 1390 c 1
 1720 1386 1754 1376 1778 1366 c 0
 1813 1351 1851 1340 1865 1340 c 0
 1881 1340 1888 1362 1888 1393 c 0
 1888 1426 1880 1469 1863 1509 c 0
 1852 1535 1846 1568 1846 1592 c 0
 1846 1601 1846 1608 1848 1614 c 0
 1856 1646 1871 1656 1909 1656 c 0
 1971 1656 1987 1621 2013 1440 c 0
 2023 1372 2040 1309 2052 1301 c 0
 2068 1290 2068 1287 2052 1287 c 0
 2038 1287 2031 1254 2031 1208 c 0
 2031 1166 2037 1115 2049 1068 c 0
 2067 1001 2087 573 2087 290 c 0
 2087 259 2086 231 2086 204 c 0
 2083 16 2053 -64 1986 -64 c 0
 1934 -64 1928 -47 1906 155 c 0
 1900 213 1896 267 1896 319 c 0
 1896 367 1899 412 1905 457 c 0
 1915 532 1924 700 1924 830 c 2
 1924 872 l 2
 1924 1030 1918 1074 1896 1098 c 0
 1880 1116 1861 1126 1854 1121 c 0
 1847 1116 1828 1128 1811 1147 c 0
 1794 1166 1761 1182 1740 1182 c 0
 1718 1182 1676 1187 1646 1193 c 0
 1626 1197 1613 1201 1605 1208 c 1
 1544 1189 1543 1187 1529 1045 c 1
 1511 355 l 2
 1507 337 1505 324 1505 314 c 0
 1505 290 1518 286 1556 278 c 0
 1588 272 1637 243 1667 215 c 0
 1703 180 1715 158 1715 119 c 0
 1715 112 1715 103 1714 94 c 0
 1709 32 1702 24 1653 19 c 0
 1649 19 1644 18 1640 18 c 0
 1605 18 1573 33 1528 68 c 0
 1490 98 1447 124 1433 124 c 0
 1419 124 1391 140 1371 160 c 0
 1351 180 1321 196 1304 196 c 0
 1287 196 1232 220 1184 250 c 0
 1136 280 1086 305 1072 305 c 0
 1058 305 1022 324 988 350 c 0
 936 390 907 396 750 402 c 0
 649 406 546 421 513 436 c 0
 376 498 156 592 124 601 c 0
 105 606 72 647 48 692 c 0
 26 733 16 754 16 771 c 0
 16 786 24 799 39 820 c 0
 57 845 77 858 100 858 c 0
 132 858 170 834 220 786 c 0
 332 677 380 660 688 618 c 0
 695 617 702 617 710 617 c 0
 797 617 938 669 956 712 c 0
 958 716 958 720 958 725 c 0
 958 740 950 759 936 773 c 0
 918 791 904 814 904 824 c 0
 904 834 886 858 864 876 c 0
 844 893 830 901 802 901 c 0
 779 901 747 896 695 886 c 0
 643 876 588 870 558 870 c 0
 548 870 541 871 537 872 c 0
 518 878 508 896 508 916 c 0
 508 936 518 959 537 973 c 0
 556 988 567 1027 567 1083 c 0
 567 1173 542 1206 453 1206 c 0
 432 1206 408 1204 380 1201 c 0
 360 1199 339 1198 316 1198 c 0
 211 1198 87 1221 39 1253 c 0
 15 1269 3 1305 3 1342 c 0
 3 1379 15 1419 39 1443 c 0
 64 1469 108 1482 187 1487 c 1
EndSplineSet
EndChar

StartChar: bn_i
Encoding: 2439 2439 10
GlifName: bn_i
Width: 1245
GlyphClass: 2
Flags: W
LayerCount: 2
Fore
SplineSet
152 1925 m 0
 172 1967 193 1982 229 1982 c 0
 295 1982 318 1949 318 1858 c 2
 318 1780 l 1
 421 1755 l 2
 477 1741 610 1728 715 1725 c 0
 896 1720 924 1715 1011 1677 c 0
 1030 1669 1059 1657 1074 1652 c 0
 1089 1647 1113 1604 1126 1556 c 0
 1142 1499 1163 1462 1190 1449 c 0
 1217 1436 1231 1402 1231 1368 c 0
 1231 1340 1222 1312 1202 1294 c 0
 1173 1268 1031 1252 879 1252 c 0
 815 1252 748 1255 688 1261 c 0
 640 1266 603 1269 575 1269 c 0
 519 1269 499 1257 499 1227 c 0
 499 1217 501 1205 505 1191 c 0
 520 1135 522 1134 627 1126 c 0
 664 1123 827 950 827 913 c 0
 827 910 864 819 864 770 c 0
 864 761 863 754 860 749 c 0
 839 709 808 647 791 610 c 0
 774 573 728 510 688 468 c 0
 648 426 617 382 617 368 c 0
 617 334 687 266 757 234 c 0
 791 218 867 181 927 151 c 0
 987 121 1043 95 1052 95 c 0
 1061 95 1082 78 1099 57 c 0
 1116 36 1138 19 1148 19 c 0
 1184 19 1230 -46 1230 -97 c 0
 1230 -138 1218 -158 1192 -158 c 0
 1170 -158 1139 -144 1095 -115 c 0
 1048 -83 972 -48 923 -35 c 0
 874 -22 824 -1 809 12 c 0
 774 43 397 248 374 248 c 0
 364 248 307 278 246 315 c 0
 139 380 58 453 58 481 c 0
 58 484 59 486 61 488 c 0
 67 494 140 506 226 514 c 0
 359 526 395 537 481 593 c 0
 576 654 578 662 581 731 c 2
 586 828 l 1
 517 792 l 2
 452 759 407 747 374 747 c 0
 326 747 303 771 276 791 c 0
 236 820 178 909 178 943 c 0
 178 964 290 1067 313 1067 c 0
 328 1067 336 1080 336 1099 c 0
 336 1128 319 1171 289 1204 c 0
 258 1239 206 1260 166 1260 c 0
 144 1260 125 1254 117 1239 c 0
 111 1229 82 1220 54 1220 c 0
 4 1220 3 1222 3 1310 c 0
 3 1360 9 1412 18 1427 c 0
 28 1443 107 1454 174 1454 c 0
 214 1454 251 1450 264 1441 c 0
 274 1435 409 1428 567 1426 c 2
 627 1426 l 2
 871 1426 963 1443 963 1510 c 0
 963 1549 848 1584 688 1592 c 0
 432 1604 270 1646 187 1720 c 0
 146 1757 126 1791 126 1832 c 0
 126 1859 135 1889 152 1925 c 0
EndSplineSet
EndChar

StartChar: bn_ii
Encoding: 2440 2440 11
GlifName: bn_ii
Width: 1443
GlyphClass: 2
Flags: W
LayerCount: 2
Fore
SplineSet
275 1856 m 0
 289 1870 317 1877 347 1877 c 0
 383 1877 422 1867 441 1848 c 0
 456 1832 465 1809 465 1787 c 0
 465 1782 465 1778 464 1773 c 0
 459 1743 465 1726 484 1720 c 0
 560 1697 761 1674 897 1673 c 0
 1111 1672 1193 1651 1245 1587 c 0
 1268 1559 1290 1518 1293 1498 c 0
 1296 1474 1319 1455 1357 1445 c 0
 1413 1430 1415 1426 1415 1329 c 0
 1415 1256 1407 1226 1386 1218 c 1
 731 1223 l 2
 626 1222 539 1215 539 1207 c 0
 539 1180 595 1132 627 1132 c 0
 645 1132 687 1109 723 1080 c 0
 779 1035 811 959 811 874 c 0
 811 863 810 851 809 839 c 0
 808 833 808 829 808 824 c 0
 808 801 816 789 829 789 c 0
 845 789 870 805 902 839 c 0
 983 924 1026 955 1075 955 c 0
 1088 955 1103 952 1118 948 c 0
 1218 919 1276 853 1276 760 c 0
 1276 713 1261 659 1229 599 c 1
 1102 248 l 1
 1144 84 1179 6 1222 -20 c 0
 1262 -44 1282 -70 1282 -93 c 0
 1282 -107 1275 -120 1261 -131 c 0
 1241 -147 1222 -154 1198 -154 c 0
 1175 -154 1147 -148 1109 -134 c 0
 992 -93 968 -52 968 105 c 0
 968 249 989 345 1055 504 c 0
 1080 563 1093 633 1093 687 c 0
 1093 731 1084 764 1066 771 c 0
 1062 773 1057 773 1051 773 c 0
 1011 773 932 742 932 722 c 0
 932 714 914 684 890 654 c 0
 867 625 840 575 830 543 c 0
 804 463 679 260 647 246 c 0
 644 245 640 244 635 244 c 0
 616 244 586 253 559 266 c 0
 329 382 296 406 271 474 c 0
 250 531 241 568 241 589 c 0
 241 608 248 615 261 615 c 0
 298 615 381 554 461 554 c 0
 563 554 619 612 637 733 c 0
 639 749 640 764 640 777 c 0
 640 838 617 871 577 871 c 0
 550 871 515 856 475 824 c 0
 443 799 398 778 377 778 c 1
 262 847 l 1
 260 874 260 897 260 916 c 0
 260 997 275 1022 327 1049 c 0
 360 1067 378 1092 378 1110 c 0
 378 1123 369 1132 348 1132 c 0
 330 1132 287 1148 249 1169 c 0
 211 1190 156 1207 123 1207 c 0
 42 1207 -17 1261 -17 1315 c 0
 -17 1337 -7 1359 14 1377 c 0
 35 1395 252 1405 466 1405 c 0
 615 1405 763 1400 843 1389 c 0
 882 1383 930 1381 971 1381 c 0
 996 1381 1019 1382 1035 1384 c 0
 1101 1394 1111 1401 1111 1442 c 0
 1111 1510 1030 1537 798 1549 c 0
 678 1555 560 1574 495 1596 c 0
 436 1616 367 1637 341 1643 c 0
 290 1655 253 1729 253 1790 c 0
 253 1816 260 1840 275 1856 c 0
EndSplineSet
EndChar

StartChar: bn_u
Encoding: 2441 2441 12
GlifName: bn_u
Width: 1510
GlyphClass: 2
Flags: W
LayerCount: 2
Fore
SplineSet
1352 212 m 0
 1425 258 1456 372 1456 476 c 0
 1456 535 1446 590 1428 628 c 0
 1410 667 1394 715 1394 734 c 0
 1394 753 1360 806 1321 849 c 0
 1271 904 1255 921 1212 921 c 0
 1193 921 1167 918 1131 913 c 0
 1045 902 991 894 955 894 c 0
 890 894 887 919 874 990 c 0
 869 1017 866 1040 866 1059 c 0
 866 1126 902 1147 1009 1166 c 0
 1136 1189 1207 1237 1243 1324 c 0
 1261 1367 1269 1419 1269 1470 c 0
 1269 1582 1230 1693 1170 1712 c 0
 1150 1718 1117 1742 1096 1765 c 0
 1073 1790 1032 1804 996 1804 c 0
 968 1804 942 1796 929 1779 c 0
 907 1752 896 1719 896 1688 c 0
 896 1652 911 1616 939 1588 c 0
 968 1559 998 1537 1008 1537 c 0
 1017 1537 1025 1511 1025 1480 c 0
 1025 1389 916 1333 787 1333 c 0
 726 1333 660 1345 599 1373 c 0
 541 1400 510 1433 510 1465 c 0
 510 1482 519 1499 538 1515 c 0
 553 1527 593 1560 630 1590 c 0
 673 1624 694 1656 694 1688 c 0
 694 1713 681 1738 656 1763 c 0
 630 1789 620 1800 599 1800 c 0
 583 1800 562 1793 525 1782 c 0
 397 1744 295 1581 295 1444 c 0
 295 1416 300 1388 309 1363 c 0
 332 1302 462 1169 499 1169 c 0
 509 1169 543 1150 576 1127 c 0
 621 1096 636 1068 636 1019 c 0
 636 902 675 810 757 732 c 0
 809 683 848 659 890 659 c 0
 922 659 956 673 998 699 c 0
 1032 720 1061 730 1086 730 c 0
 1136 730 1168 689 1180 607 c 0
 1184 580 1186 555 1186 533 c 0
 1186 391 1101 341 882 341 c 2
 871 341 l 2
 705 342 574 380 539 437 c 0
 530 452 475 495 416 532 c 0
 343 578 282 639 226 725 c 0
 181 795 130 872 112 898 c 0
 90 930 63 944 38 944 c 0
 -3 944 -40 905 -40 839 c 0
 -40 756 253 413 382 344 c 0
 408 330 486 283 558 239 c 0
 629 195 757 117 851 106 c 0
 931 97 990 91 1039 91 c 0
 1158 91 1213 124 1352 212 c 0
EndSplineSet
EndChar

StartChar: bn_uu
Encoding: 2442 2442 13
GlifName: bn_uu
Width: 1269
GlyphClass: 2
Flags: W
LayerCount: 2
Fore
SplineSet
478 1729 m 0
 509 1739 526 1744 539 1744 c 0
 556 1744 565 1735 587 1713 c 0
 608 1692 618 1671 618 1651 c 0
 618 1624 601 1598 565 1569 c 0
 534 1544 500 1517 488 1507 c 0
 472 1494 464 1480 464 1465 c 0
 464 1438 490 1410 539 1388 c 0
 590 1365 645 1355 696 1355 c 0
 804 1355 894 1402 894 1477 c 0
 894 1503 888 1525 880 1525 c 0
 872 1525 846 1544 822 1568 c 0
 799 1591 787 1621 787 1651 c 0
 787 1677 796 1703 814 1726 c 0
 825 1740 847 1747 870 1747 c 0
 900 1747 934 1735 953 1714 c 0
 970 1695 998 1675 1015 1670 c 0
 1066 1654 1098 1562 1098 1469 c 0
 1098 1426 1091 1383 1076 1347 c 0
 1046 1274 986 1235 880 1215 c 0
 791 1199 761 1182 761 1127 c 0
 761 1111 764 1092 768 1069 c 0
 779 1010 782 989 836 989 c 0
 866 989 911 995 983 1005 c 0
 1013 1009 1033 1012 1049 1012 c 0
 1085 1012 1099 998 1141 951 c 0
 1174 915 1201 872 1201 856 c 0
 1201 840 1215 799 1230 767 c 0
 1243 740 1249 706 1249 668 c 0
 1249 582 1218 479 1166 421 c 0
 1130 380 1119 363 1119 327 c 0
 1119 313 1120 297 1123 276 c 0
 1125 261 1126 247 1126 233 c 0
 1126 152 1091 93 1010 27 c 0
 949 -22 930 -28 829 -30 c 0
 801 -31 777 -31 756 -31 c 0
 654 -31 627 -24 587 3 c 0
 563 19 515 45 479 61 c 0
 386 103 269 186 138 303 c 0
 42 388 24 414 24 460 c 0
 24 508 42 531 68 531 c 0
 95 531 131 506 162 455 c 0
 182 423 218 385 243 369 c 0
 268 354 319 317 357 288 c 0
 468 203 590 154 696 154 c 2
 705 154 l 1
 839 158 892 179 892 230 c 0
 892 233 891 237 891 240 c 0
 886 283 872 292 749 332 c 0
 674 356 564 406 505 443 c 0
 445 480 380 518 358 530 c 0
 250 587 7 874 7 943 c 0
 7 998 37 1031 71 1031 c 0
 92 1031 115 1019 133 992 c 0
 148 970 191 906 229 848 c 0
 276 776 325 725 386 687 c 0
 435 656 483 620 490 608 c 0
 519 561 628 529 766 528 c 2
 772 528 l 2
 957 528 1028 569 1028 688 c 0
 1028 707 1026 728 1023 750 c 0
 1013 818 986 852 945 852 c 0
 924 852 900 843 872 826 c 0
 837 804 808 793 782 793 c 0
 747 793 715 812 671 854 c 0
 603 919 570 996 570 1093 c 0
 570 1134 557 1157 520 1183 c 0
 493 1202 464 1218 456 1218 c 0
 425 1218 316 1329 297 1380 c 0
 289 1400 286 1423 286 1446 c 0
 286 1561 372 1697 478 1729 c 0
EndSplineSet
EndChar

StartChar: bn_ri
Encoding: 2443 2443 14
GlifName: bn_ri
Width: 1414
GlyphClass: 2
Flags: W
LayerCount: 2
Fore
SplineSet
1141 1607 m 1
 1141 1592 1161 1585 1184 1585 c 0
 1210 1585 1239 1594 1249 1610 c 0
 1257 1623 1265 1630 1273 1630 c 0
 1299 1630 1320 1562 1320 1468 c 0
 1320 1458 1320 1447 1319 1436 c 0
 1318 1415 1318 1317 1318 1191 c 2
 1318 1025 l 2
 1319 743 1324 659 1342 626 c 0
 1356 600 1363 563 1363 529 c 0
 1363 483 1351 442 1329 438 c 1
 1325 438 l 2
 1304 438 1242 459 1179 487 c 0
 1112 517 1038 544 1014 549 c 2
 971 557 l 1
 960 394 l 2
 957 351 956 317 956 288 c 0
 956 194 973 162 1027 124 c 0
 1068 94 1089 55 1089 24 c 0
 1089 -6 1069 -28 1030 -28 c 0
 984 -28 818 74 803 112 c 0
 798 123 757 153 711 178 c 0
 617 228 607 235 429 372 c 0
 362 423 304 472 301 480 c 0
 298 488 286 494 275 494 c 0
 264 494 219 525 176 561 c 0
 133 597 79 634 56 642 c 0
 26 653 11 670 11 688 c 0
 11 715 43 744 100 757 c 0
 126 763 186 786 234 810 c 0
 282 834 332 853 348 853 c 0
 390 853 547 929 547 949 c 0
 547 959 487 965 416 966 c 0
 346 967 282 973 272 978 c 0
 262 983 242 1022 228 1064 c 0
 216 1099 210 1122 210 1141 c 0
 210 1157 214 1171 221 1188 c 0
 257 1272 330 1359 440 1448 c 2
 550 1537 l 1
 659 1529 l 2
 719 1524 785 1510 807 1496 c 0
 829 1482 861 1465 879 1456 c 0
 905 1443 913 1419 922 1320 c 0
 928 1254 941 1173 950 1142 c 0
 959 1110 966 1037 966 977 c 0
 966 838 987 797 1076 761 c 0
 1111 746 1130 739 1142 739 c 0
 1153 739 1159 745 1168 757 c 0
 1181 774 1188 791 1188 817 c 0
 1188 840 1183 868 1173 908 c 0
 1164 942 1154 1098 1150 1252 c 2
 1141 1607 l 1
739 1317 m 0
 708 1335 677 1343 642 1343 c 0
 609 1343 573 1336 529 1321 c 0
 434 1289 357 1207 357 1148 c 0
 357 1138 359 1128 364 1120 c 0
 379 1095 401 1092 577 1092 c 0
 761 1092 775 1094 792 1123 c 0
 799 1136 803 1156 803 1181 c 0
 803 1194 802 1207 800 1221 c 0
 792 1275 780 1294 739 1317 c 0
833 790 m 0
 837 810 839 823 839 832 c 0
 839 851 829 853 803 853 c 0
 781 853 758 847 753 840 c 0
 748 833 714 814 677 798 c 0
 540 740 529 734 505 719 c 0
 492 711 448 691 407 675 c 0
 356 656 331 635 331 613 c 0
 331 596 346 579 375 561 c 0
 398 547 444 512 474 485 c 0
 523 442 598 390 722 315 c 0
 737 306 748 301 758 301 c 0
 789 301 800 351 802 477 c 0
 804 617 808 652 833 790 c 0
EndSplineSet
EndChar

StartChar: bn_li
Encoding: 2444 2444 15
GlifName: bn_li
Width: 1602
GlyphClass: 2
Flags: W
LayerCount: 2
Fore
SplineSet
545 1432 m 0
 600 1455 646 1467 682 1467 c 0
 752 1467 786 1422 786 1333 c 0
 786 1235 752 1186 686 1186 c 0
 659 1186 643 1168 643 1137 c 0
 643 1108 656 1091 674 1095 c 1
 676 1095 l 2
 693 1095 742 1065 783 1024 c 1
 1200 833 l 1
 1228 808 1300 769 1362 747 c 0
 1459 712 1483 690 1535 585 c 0
 1581 491 1569 441 1581 371 c 0
 1590 321 1595 275 1595 233 c 0
 1595 137 1568 64 1500 31 c 0
 1455 9 1488 -23 1307 -39 c 0
 1266 -43 1230 -45 1198 -45 c 0
 1061 -45 1007 -8 987 85 c 0
 954 237 934 271 857 310 c 0
 800 339 713 353 631 353 c 0
 543 353 462 337 429 304 c 0
 397 272 381 225 381 185 c 0
 381 145 397 114 429 114 c 0
 453 114 481 137 489 163 c 0
 499 194 514 205 547 205 c 0
 553 205 560 205 568 204 c 0
 622 198 633 186 639 112 c 0
 640 106 640 100 640 94 c 0
 640 -14 556 -77 407 -77 c 0
 312 -77 282 -64 207 9 c 0
 136 79 119 112 119 183 c 0
 119 296 224 447 341 503 c 0
 403 533 550 556 637 556 c 0
 673 556 698 552 704 543 c 0
 710 534 748 519 791 510 c 0
 910 486 1043 386 1091 285 c 0
 1122 220 1160 188 1203 188 c 0
 1233 188 1266 204 1300 236 c 0
 1336 270 1354 302 1354 339 c 0
 1354 374 1338 413 1308 462 c 0
 1276 514 1235 546 1185 557 c 0
 1145 566 1082 592 1050 614 c 0
 909 710 754 805 736 805 c 0
 697 805 496 1009 451 1095 c 0
 423 1150 409 1201 409 1247 c 0
 409 1330 455 1395 545 1432 c 0
EndSplineSet
EndChar

StartChar: bn_e
Encoding: 2447 2447 16
GlifName: bn_e
Width: 1357
GlyphClass: 2
Flags: W
LayerCount: 2
Fore
SplineSet
562 1402 m 0
 612 1429 692 1442 776 1442 c 0
 879 1442 990 1422 1063 1385 c 0
 1190 1320 1279 1075 1279 781 c 0
 1279 665 1265 540 1234 417 c 0
 1221 363 1214 323 1214 289 c 0
 1214 238 1229 203 1254 164 c 0
 1292 105 1308 45 1308 -4 c 0
 1308 -62 1286 -103 1250 -103 c 0
 1227 -103 1199 -87 1168 -48 c 0
 1069 77 951 116 668 116 c 2
 635 116 l 1
 573 116 l 2
 374 116 313 131 214 197 c 0
 86 281 3 401 3 490 c 0
 3 506 6 521 11 534 c 0
 20 557 28 570 41 570 c 0
 59 570 88 545 143 492 c 0
 202 435 277 414 276 413 c 0
 275 412 337 406 377 369 c 0
 432 318 531 293 750 274 c 2
 1048 248 l 1
 1073 435 l 2
 1081 496 1085 561 1085 625 c 0
 1085 844 1039 1060 964 1137 c 0
 916 1186 875 1211 835 1211 c 0
 776 1211 722 1157 660 1046 c 0
 609 954 593 914 529 914 c 0
 411 914 324 1006 324 1130 c 0
 324 1238 386 1309 562 1402 c 0
EndSplineSet
EndChar

StartChar: bn_ai
Encoding: 2448 2448 17
GlifName: bn_ai
Width: 1962
GlyphClass: 2
Flags: W
LayerCount: 2
Fore
SplineSet
944 1807 m 0
 944 1880 964 1898 1041 1898 c 0
 1118 1898 1137 1879 1137 1805 c 0
 1137 1700 1245 1613 1543 1477 c 0
 1806 1357 1872 1289 1872 1144 c 0
 1872 929 1807 878 1507 878 c 2
 1470 878 l 2
 1422 879 1381 880 1347 880 c 0
 1196 880 1170 861 1170 712 c 0
 1170 669 1172 614 1174 546 c 0
 1177 430 1209 277 1244 211 c 0
 1273 157 1286 123 1286 95 c 0
 1286 71 1276 51 1257 28 c 0
 1224 -12 1185 -32 1146 -32 c 0
 1097 -32 1048 -1 1009 59 c 0
 974 112 955 133 913 133 c 0
 887 133 852 125 801 111 c 0
 702 84 605 70 511 70 c 0
 388 70 273 93 175 140 c 0
 71 189 17 238 17 279 c 0
 17 298 29 315 52 329 c 0
 56 331 63 332 73 332 c 0
 109 332 180 319 253 298 c 0
 336 273 500 256 638 256 c 0
 656 256 672 256 689 257 c 0
 1006 267 1006 267 1018 727 c 0
 1019 752 1019 776 1019 799 c 0
 1019 1124 956 1273 820 1273 c 0
 813 1273 805 1273 797 1272 c 0
 708 1262 691 1240 681 1116 c 0
 670 985 660 971 558 971 c 0
 446 971 328 1056 328 1136 c 0
 328 1353 508 1469 700 1469 c 0
 859 1469 1029 1390 1119 1222 c 0
 1181 1106 1207 1092 1404 1075 c 0
 1442 1072 1476 1070 1507 1070 c 0
 1637 1070 1706 1099 1706 1152 c 0
 1706 1177 1690 1206 1659 1241 c 0
 1621 1284 1569 1318 1543 1318 c 0
 1490 1318 1157 1528 1029 1641 c 0
 982 1683 944 1757 944 1807 c 0
EndSplineSet
EndChar

StartChar: bn_o
Encoding: 2451 2451 18
GlifName: bn_o
Width: 1370
GlyphClass: 2
Flags: W
LayerCount: 2
Fore
SplineSet
620 1410 m 0
 643 1415 672 1418 703 1418 c 0
 811 1418 950 1392 1016 1383 c 0
 1103 1372 1123 1345 1173 1174 c 0
 1189 1120 1196 1079 1196 1039 c 0
 1196 1001 1190 964 1176 917 c 0
 1163 873 1156 844 1156 820 c 0
 1156 780 1178 756 1233 703 c 0
 1316 623 1352 561 1352 471 c 0
 1352 431 1345 387 1332 332 c 0
 1278 101 1064 21 864 21 c 0
 832 21 801 23 771 27 c 0
 712 34 628 74 576 97 c 0
 462 147 358 207 167 432 c 0
 108 501 83 551 83 579 c 0
 83 598 95 608 114 608 c 0
 159 608 247 556 344 449 c 0
 472 308 725 185 889 185 c 0
 1038 185 1146 300 1146 457 c 0
 1146 559 1085 641 1029 641 c 0
 1012 641 996 633 982 617 c 0
 963 595 905 578 849 578 c 0
 768 578 730 611 730 692 c 0
 730 720 735 753 743 792 c 0
 758 859 772 876 846 876 c 0
 859 876 873 876 889 875 c 0
 899 874 908 874 917 874 c 0
 1003 874 1042 901 1042 964 c 0
 1042 989 1036 1019 1024 1056 c 0
 994 1145 879 1256 815 1256 c 0
 753 1256 692 1166 692 1086 c 0
 692 1076 693 1066 695 1056 c 0
 698 1042 700 1029 700 1017 c 0
 700 981 685 957 654 938 c 0
 616 914 581 903 550 903 c 0
 472 903 422 973 422 1085 c 0
 422 1119 426 1156 436 1196 c 0
 470 1339 511 1385 620 1410 c 0
EndSplineSet
EndChar

StartChar: bn_au
Encoding: 2452 2452 19
GlifName: bn_au
Width: 1771
GlyphClass: 2
Flags: W
LayerCount: 2
Fore
SplineSet
596 1918 m 0
 611 1958 640 1977 672 1977 c 0
 723 1977 781 1931 808 1853 c 0
 829 1794 1145 1650 1244 1650 c 0
 1251 1650 1256 1651 1261 1652 c 0
 1262 1652 1263 1653 1265 1653 c 0
 1287 1653 1352 1621 1418 1577 c 0
 1489 1530 1578 1514 1578 1514 c 2
 1579 1515 1657 1444 1657 1304 c 0
 1657 1192 1560 1056 1481 1056 c 0
 1451 1056 1433 1012 1433 940 c 0
 1433 876 1409 803 1379 776 c 0
 1355 755 1344 739 1344 716 c 0
 1344 693 1355 663 1379 613 c 0
 1409 550 1433 427 1433 339 c 0
 1433 109 1317 34 962 34 c 0
 734 34 664 53 459 166 c 0
 171 325 32 440 32 523 c 0
 32 531 33 539 36 547 c 0
 51 590 77 612 114 612 c 0
 158 612 216 582 291 521 c 0
 354 470 487 377 584 317 c 0
 694 248 749 223 829 223 c 0
 862 223 900 228 948 235 c 0
 1071 254 1146 287 1170 335 c 0
 1199 394 1219 456 1219 501 c 0
 1219 541 1204 566 1167 566 c 0
 1147 566 1122 559 1089 542 c 0
 1072 533 1057 529 1044 529 c 0
 987 529 958 600 933 691 c 0
 920 737 914 769 914 794 c 0
 914 832 930 854 966 882 c 0
 1006 913 1074 936 1123 936 c 0
 1141 936 1156 934 1168 934 c 0
 1196 934 1209 944 1209 1003 c 2
 1209 1012 l 2
 1208 1101 1074 1216 970 1216 c 0
 884 1216 761 1105 761 1028 c 0
 761 992 726 975 684 975 c 0
 630 975 563 1003 538 1052 c 0
 513 1101 501 1148 501 1192 c 0
 501 1316 597 1412 768 1442 c 0
 788 1446 807 1447 827 1447 c 0
 903 1447 986 1421 1104 1361 c 0
 1236 1294 1350 1258 1414 1258 c 0
 1450 1258 1470 1269 1470 1292 c 0
 1470 1348 1343 1450 1239 1478 c 0
 1183 1493 1119 1530 1095 1561 c 0
 1075 1586 1052 1601 1035 1601 c 0
 1030 1601 1026 1599 1022 1597 c 0
 1021 1597 1020 1596 1019 1596 c 0
 988 1596 739 1681 653 1773 c 0
 616 1813 593 1863 593 1898 c 0
 593 1905 594 1912 596 1918 c 0
EndSplineSet
EndChar

StartChar: bn_ka
Encoding: 2453 2453 20
GlifName: bn_ka
Width: 1755
GlyphClass: 2
Flags: W
AnchorPoint: "abvm" 921 1500 basechar 0
AnchorPoint: "blwm" 1113 -200 basechar 0
LayerCount: 2
Fore
SplineSet
-24 1451 m 0
 -17 1471 3 1480 152 1480 c 0
 245 1480 387 1476 609 1471 c 0
 950 1463 1334 1453 1462 1451 c 0
 1661 1447 1701 1441 1737 1408 c 0
 1759 1387 1770 1355 1770 1322 c 0
 1770 1283 1755 1242 1724 1219 c 0
 1702 1203 1637 1194 1553 1194 c 0
 1477 1194 1385 1201 1297 1215 c 0
 1254 1222 1219 1226 1192 1226 c 0
 1122 1226 1100 1201 1100 1141 c 0
 1100 1096 1107 1094 1270 1093 c 0
 1416 1092 1449 1084 1498 1044 c 0
 1530 1018 1580 980 1610 958 c 0
 1680 907 1718 806 1718 666 c 0
 1718 553 1714 545 1613 443 c 0
 1555 384 1483 326 1452 312 c 0
 1416 296 1379 288 1353 288 c 0
 1332 288 1318 293 1317 304 c 0
 1310 386 1296 461 1283 485 c 0
 1274 501 1271 520 1271 539 c 0
 1271 587 1295 636 1331 645 c 0
 1362 653 1380 685 1380 709 c 0
 1380 726 1371 740 1351 740 c 0
 1313 740 1292 765 1292 801 c 0
 1292 819 1297 839 1308 861 c 0
 1319 883 1324 900 1324 913 c 0
 1324 935 1311 946 1290 946 c 0
 1254 946 1193 914 1134 851 c 0
 1065 779 1019 661 1019 561 c 2
 1019 555 l 1
 1019 546 l 2
 1019 509 1014 411 1008 317 c 0
 1005 264 1003 225 1003 196 c 0
 1003 138 1010 119 1028 104 c 0
 1046 89 1060 66 1060 52 c 0
 1060 38 1078 10 1100 -11 c 0
 1124 -33 1136 -65 1136 -94 c 0
 1136 -127 1121 -156 1092 -162 c 1
 1088 -162 l 2
 1065 -162 1022 -136 983 -98 c 0
 943 -59 875 -6 831 21 c 0
 786 48 707 104 651 148 c 0
 595 192 542 226 529 226 c 0
 516 226 494 241 479 260 c 0
 445 302 238 430 207 476 c 0
 193 497 169 514 155 514 c 0
 125 514 43 588 43 616 c 0
 43 627 69 647 99 658 c 0
 178 688 181 690 332 790 c 0
 410 841 480 883 490 883 c 0
 522 885 601 970 601 1003 c 0
 601 1018 608 1024 628 1024 c 0
 638 1024 653 1022 671 1019 c 0
 685 1016 700 1015 713 1015 c 0
 796 1015 860 1063 860 1131 c 0
 860 1176 849 1197 817 1209 c 0
 796 1217 694 1221 574 1221 c 0
 426 1221 249 1215 161 1204 c 0
 141 1202 124 1200 110 1200 c 0
 70 1200 47 1210 15 1236 c 0
 -20 1265 -39 1313 -39 1367 c 0
 -39 1394 -34 1423 -24 1451 c 0
870 721 m 0
 863 742 859 755 844 755 c 0
 825 755 787 734 701 687 c 0
 629 648 558 616 540 616 c 0
 494 616 462 574 462 510 c 0
 462 417 494 374 575 358 c 0
 617 350 671 318 700 286 c 0
 728 255 772 223 796 216 c 0
 805 213 812 211 818 211 c 0
 840 211 841 242 841 388 c 0
 841 491 849 598 861 629 c 0
 869 650 873 675 873 695 c 0
 873 705 872 714 870 721 c 0
EndSplineSet
EndChar

StartChar: bn_kha
Encoding: 2454 2454 21
GlifName: bn_kha
Width: 1337
GlyphClass: 2
Flags: W
AnchorPoint: "abvm" 1137 1596 basechar 0
AnchorPoint: "blwm" 1261 -152 basechar 0
LayerCount: 2
Fore
SplineSet
1102 1516 m 0
 1138 1538 1157 1549 1171 1549 c 0
 1187 1549 1196 1535 1216 1504 c 0
 1232 1480 1239 1457 1239 1430 c 2
 1239 1424 l 1
 1268 1436 1298 1443 1328 1443 c 0
 1356 1443 1384 1437 1414 1424 c 0
 1443 1411 1455 1384 1455 1353 c 0
 1455 1323 1444 1289 1429 1262 c 0
 1400 1212 1349 1209 1291 1209 c 0
 1267 1209 1246 1212 1228 1220 c 1
 1225 1095 1224 914 1224 724 c 0
 1225 103 1225 101 1304 41 c 0
 1325 25 1336 -4 1336 -32 c 0
 1336 -66 1321 -99 1293 -112 c 0
 1283 -117 1274 -119 1263 -119 c 0
 1234 -119 1194 -101 1105 -53 c 0
 1024 -10 923 53 878 87 c 0
 834 121 791 149 783 149 c 0
 775 149 737 170 700 195 c 0
 663 220 580 268 516 300 c 0
 430 343 399 368 399 395 c 0
 399 436 467 519 500 519 c 0
 511 519 551 548 588 582 c 0
 651 641 656 651 656 753 c 0
 656 812 665 872 676 883 c 0
 684 891 688 903 688 918 c 0
 688 1006 553 1183 463 1189 c 0
 454 1190 447 1190 441 1190 c 0
 409 1190 407 1177 403 1104 c 0
 403 1098 402 1090 402 1083 c 0
 402 1035 411 973 424 935 c 0
 436 900 442 871 442 844 c 0
 442 799 425 759 386 707 c 0
 321 620 223 558 150 558 c 0
 146 558 143 559 139 559 c 0
 81 565 77 568 72 644 c 0
 71 655 71 664 71 673 c 0
 71 722 86 743 148 805 c 0
 212 869 242 911 242 963 c 0
 242 1004 223 1051 188 1119 c 0
 152 1189 110 1260 96 1276 c 0
 78 1296 69 1314 69 1332 c 0
 69 1365 102 1398 172 1440 c 0
 239 1480 268 1494 309 1494 c 0
 324 1494 340 1492 361 1489 c 0
 484 1471 566 1432 631 1360 c 0
 663 1325 698 1295 707 1295 c 0
 717 1295 729 1249 736 1192 c 0
 743 1135 760 1070 776 1046 c 0
 796 1015 805 949 808 810 c 0
 809 776 809 748 809 724 c 0
 809 620 801 600 761 543 c 0
 729 497 712 458 712 434 c 0
 712 417 720 408 737 408 c 0
 751 408 773 395 785 380 c 0
 800 362 829 353 862 353 c 0
 899 353 939 364 964 386 c 0
 994 412 1005 441 1005 502 c 0
 1005 546 1014 613 1025 648 c 0
 1037 685 1042 802 1042 916 c 0
 1042 1040 1035 1160 1023 1173 c 0
 1011 1185 1005 1207 1005 1229 c 0
 1005 1252 1012 1276 1025 1289 c 0
 1037 1301 1046 1350 1046 1396 c 2
 1046 1409 l 2
 1046 1473 1054 1487 1102 1516 c 0
EndSplineSet
EndChar

StartChar: bn_ga
Encoding: 2455 2455 22
GlifName: bn_ga
Width: 1276
GlyphClass: 2
Flags: W
AnchorPoint: "abvm" 1029 1684 basechar 0
AnchorPoint: "blwm" 1125 -8 basechar 0
LayerCount: 2
Fore
SplineSet
987 1666 m 0
 1008 1672 1028 1675 1045 1675 c 0
 1077 1675 1101 1665 1120 1644 c 0
 1140 1622 1147 1604 1147 1527 c 0
 1147 1508 1147 1485 1146 1458 c 1
 1165 1464 1185 1467 1205 1467 c 0
 1244 1467 1283 1456 1321 1433 c 0
 1347 1418 1357 1393 1357 1366 c 0
 1357 1333 1343 1295 1327 1262 c 0
 1322 1251 1314 1248 1304 1248 c 0
 1286 1248 1262 1260 1240 1262 c 0
 1234 1262 1229 1263 1223 1263 c 0
 1205 1263 1189 1261 1173 1261 c 0
 1162 1261 1151 1262 1141 1265 c 1
 1141 1108 1154 965 1202 568 c 0
 1220 421 1228 305 1228 218 c 0
 1228 143 1222 90 1209 59 c 0
 1190 13 1178 6 1125 6 c 0
 1065 6 1063 9 1036 93 c 0
 1014 162 1006 259 1003 568 c 0
 999 935 997 960 962 1015 c 0
 895 1121 795 1161 584 1167 c 1
 553 1167 l 2
 396 1167 294 1131 294 1073 c 0
 294 1032 400 932 443 932 c 0
 481 932 488 910 502 750 c 0
 505 718 506 693 506 672 c 0
 506 623 498 594 477 544 c 0
 457 498 422 441 397 415 c 0
 368 385 336 371 306 371 c 0
 251 371 204 418 204 496 c 0
 204 545 217 567 282 627 c 0
 325 667 360 710 360 724 c 0
 360 749 280 833 256 833 c 0
 239 833 111 914 65 955 c 0
 39 978 28 1013 28 1053 c 0
 28 1153 98 1283 194 1315 c 0
 226 1326 268 1344 287 1357 c 0
 306 1370 388 1388 468 1397 c 0
 511 1402 544 1405 574 1405 c 0
 661 1405 722 1379 898 1294 c 0
 928 1279 956 1269 966 1269 c 0
 968 1269 968 1269 969 1270 c 0
 970 1271 971 1278 971 1288 c 0
 971 1317 967 1378 960 1447 c 0
 954 1516 950 1563 950 1595 c 0
 950 1649 961 1659 987 1666 c 0
EndSplineSet
EndChar

StartChar: bn_gha
Encoding: 2456 2456 23
GlifName: bn_gha
Width: 1546
GlyphClass: 2
Flags: W
AnchorPoint: "abvm" 1153 1484 basechar 0
AnchorPoint: "blwm" 1481 -108 basechar 0
LayerCount: 2
Fore
SplineSet
850 1219 m 2
 839 1219 l 2
 798 1219 745 1224 717 1229 c 0
 708 1231 698 1232 688 1232 c 0
 659 1232 626 1224 596 1211 c 0
 551 1191 537 1184 537 1145 c 0
 537 1129 540 1107 543 1076 c 0
 549 1017 558 966 564 960 c 0
 565 959 566 959 568 959 c 0
 580 959 614 976 651 1000 c 0
 700 1033 753 1051 801 1051 c 0
 874 1051 875 1049 917 936 c 0
 940 876 950 846 950 818 c 0
 950 796 943 774 931 740 c 0
 915 696 896 634 889 604 c 0
 882 573 850 525 816 493 c 0
 790 469 774 452 774 435 c 0
 774 407 819 379 935 315 c 0
 1084 232 1158 198 1188 198 c 0
 1195 198 1199 200 1202 203 c 0
 1205 207 1207 224 1207 250 c 0
 1207 285 1204 335 1199 390 c 0
 1191 480 1183 639 1183 757 c 2
 1183 778 l 1
 1183 784 l 2
 1183 1051 1128 940 1128 1033 c 0
 1128 1048 1130 1068 1133 1096 c 0
 1136 1119 1137 1141 1137 1160 c 0
 1137 1187 1134 1206 1129 1210 c 0
 1118 1217 1057 1221 968 1221 c 0
 933 1221 893 1220 850 1219 c 2
556 547 m 0
 619 588 689 606 689 689 c 0
 689 756 684 763 641 763 c 0
 611 763 572 738 534 696 c 0
 502 660 458 629 439 629 c 1
 337 590 l 1
 339 608 297 619 324 640 c 0
 335 649 341 665 341 707 c 0
 341 748 335 815 325 927 c 2
 300 1194 l 1
 205 1204 l 2
 84 1217 6 1268 6 1336 c 0
 6 1393 21 1421 67 1445 c 0
 84 1454 372 1461 732 1461 c 2
 806 1461 l 1
 1514 1460 l 1
 1539 1406 l 2
 1550 1383 1555 1368 1555 1352 c 0
 1555 1335 1549 1318 1536 1290 c 0
 1520 1256 1484 1219 1453 1206 c 0
 1395 1182 1332 1064 1331 976 c 0
 1331 949 1331 763 1333 566 c 0
 1337 151 1351 92 1457 47 c 0
 1506 26 1523 7 1523 -27 c 0
 1523 -66 1508 -87 1469 -87 c 0
 1410 -87 1297 -42 1098 55 c 0
 806 197 476 342 448 342 c 0
 440 342 402 351 362 362 c 0
 305 378 290 392 290 428 c 0
 290 481 461 485 556 547 c 0
EndSplineSet
EndChar

StartChar: bn_nga
Encoding: 2457 2457 24
GlifName: bn_nga
Width: 1108
GlyphClass: 2
Flags: W
AnchorPoint: "abvm" 804 1458 basechar 0
AnchorPoint: "blwm" 765 -24 basechar 0
LayerCount: 2
Fore
SplineSet
555 1446 m 0
 576 1451 597 1454 620 1454 c 0
 677 1454 743 1438 823 1405 c 2
 943 1355 l 1
 989 1251 l 2
 1016 1190 1026 1163 1026 1140 c 0
 1026 1128 1023 1117 1018 1103 c 0
 992 1031 923 968 848 947 c 2
 780 927 l 1
 779 855 l 1
 779 840 l 2
 779 790 785 781 814 766 c 0
 834 756 878 745 913 742 c 0
 928 740 939 740 948 740 c 0
 975 740 980 748 986 775 c 1
 1030 798 l 1
 1046 793 1051 787 1051 766 c 0
 1051 756 1050 742 1048 724 c 0
 1047 712 1046 700 1046 689 c 0
 1046 658 1051 631 1064 601 c 0
 1077 568 1083 542 1083 491 c 0
 1083 469 1082 443 1080 410 c 0
 1070 222 1060 194 953 75 c 0
 901 17 885 3 811 0 c 0
 802 0 793 -1 784 -1 c 0
 709 -1 645 12 549 65 c 0
 480 103 228 301 108 413 c 0
 43 473 29 492 29 525 c 2
 29 536 l 2
 32 570 43 585 70 596 c 0
 79 600 87 602 94 602 c 0
 113 602 130 587 171 545 c 0
 206 509 253 470 276 459 c 0
 299 448 351 408 392 369 c 0
 504 265 613 211 710 211 c 0
 777 211 838 237 890 289 c 2
 938 337 l 1
 921 453 l 2
 909 535 896 577 876 596 c 0
 858 613 839 622 820 622 c 0
 794 622 768 607 743 577 c 0
 721 551 696 530 686 530 c 0
 676 530 651 559 629 595 c 0
 595 648 589 673 589 747 c 0
 589 796 585 848 580 862 c 0
 575 876 522 914 460 948 c 0
 332 1019 297 1065 285 1179 c 0
 281 1222 272 1256 266 1256 c 0
 260 1256 254 1267 254 1279 c 0
 254 1295 268 1302 296 1302 c 0
 323 1302 357 1321 393 1354 c 0
 445 1402 496 1431 555 1446 c 0
780 1263 m 0
 755 1283 696 1295 642 1295 c 0
 611 1295 582 1291 562 1283 c 0
 515 1263 477 1205 477 1158 c 0
 477 1148 479 1138 483 1129 c 0
 506 1078 621 1038 709 1038 c 0
 741 1038 770 1043 789 1055 c 0
 826 1078 854 1155 854 1202 c 0
 854 1225 847 1241 832 1241 c 0
 818 1241 796 1250 780 1263 c 0
EndSplineSet
EndChar

StartChar: bn_ca
Encoding: 2458 2458 25
GlifName: bn_cha
Width: 1254
GlyphClass: 2
Flags: W
AnchorPoint: "abvm" 551 1473 basechar 0
AnchorPoint: "blwm" 410 -40 basechar 0
LayerCount: 2
Fore
SplineSet
1122 1465 m 0
 1147 1475 1168 1480 1186 1480 c 0
 1224 1480 1249 1457 1267 1409 c 0
 1272 1395 1274 1380 1274 1364 c 0
 1274 1314 1252 1261 1221 1252 c 0
 1201 1246 1095 1243 975 1243 c 0
 923 1243 868 1243 817 1245 c 0
 799 1245 779 1246 758 1246 c 0
 648 1246 511 1239 479 1231 c 0
 464 1227 450 1210 450 1196 c 0
 450 1141 559 949 603 926 c 0
 627 914 728 823 829 724 c 0
 984 571 1040 501 1040 433 c 0
 1040 410 1033 388 1023 363 c 0
 955 201 895 128 895 113 c 0
 895 111 896 110 898 110 c 2
 899 110 l 2
 907 111 913 111 915 111 c 2
 917 111 l 1
 917 109 762 88 748 74 c 0
 733 59 708 47 691 47 c 0
 674 47 653 39 641 27 c 0
 622 8 546 -2 467 -2 c 0
 398 -2 327 6 288 21 c 0
 224 46 205 63 175 130 c 0
 156 172 148 196 148 224 c 0
 148 242 151 260 157 286 c 0
 167 328 184 490 195 645 c 0
 206 802 225 952 238 984 c 0
 254 1023 262 1086 262 1139 c 0
 262 1186 256 1225 242 1230 c 0
 237 1232 222 1233 202 1233 c 0
 178 1233 147 1232 115 1229 c 0
 84 1226 63 1224 47 1224 c 0
 11 1224 8 1234 0 1264 c 0
 -3 1277 -5 1291 -5 1306 c 0
 -5 1353 11 1403 36 1433 c 0
 51 1450 71 1457 165 1457 c 0
 214 1457 282 1455 379 1452 c 0
 537 1447 687 1443 736 1443 c 2
 749 1443 l 2
 777 1444 864 1447 943 1448 c 0
 1022 1449 1102 1457 1122 1465 c 0
465 856 m 0
 427 875 410 883 403 883 c 0
 400 883 399 881 398 879 c 0
 397 877 393 776 388 653 c 0
 383 530 372 418 363 402 c 0
 353 383 348 360 348 339 c 0
 348 310 357 286 373 280 c 0
 379 278 396 277 418 277 c 0
 445 277 480 278 515 281 c 0
 669 294 770 367 770 450 c 0
 770 473 762 498 745 522 c 0
 728 546 707 577 697 592 c 0
 687 607 653 650 618 689 c 0
 583 728 548 774 537 794 c 0
 527 813 494 841 465 856 c 0
EndSplineSet
EndChar

StartChar: bn_cha
Encoding: 2459 2459 26
GlifName: bn_chha
Width: 1594
GlyphClass: 2
Flags: W
AnchorPoint: "abvm" 594 1465 basechar 0
AnchorPoint: "blwm" 1758 -242 basechar 0
LayerCount: 2
Fore
SplineSet
391 1440 m 0
 547 1447 693 1451 767 1451 c 0
 794 1451 811 1450 817 1449 c 0
 839 1445 900 1443 978 1443 c 0
 1098 1443 1257 1447 1366 1456 c 0
 1405 1459 1437 1460 1463 1460 c 0
 1510 1460 1536 1455 1550 1445 c 0
 1572 1429 1581 1405 1581 1380 c 0
 1581 1313 1517 1233 1446 1233 c 0
 1439 1233 1432 1233 1425 1235 c 0
 1384 1244 1356 1249 1294 1249 c 0
 1223 1249 1108 1243 880 1229 c 2
 470 1204 l 1
 470 1155 l 2
 470 1094 575 1011 763 923 c 0
 799 906 832 898 859 898 c 0
 894 898 919 912 929 939 c 0
 934 954 990 961 1051 961 c 0
 1120 961 1196 952 1217 935 c 0
 1237 919 1280 901 1316 894 c 0
 1427 873 1513 733 1513 607 c 0
 1513 572 1506 538 1491 508 c 0
 1456 436 1356 341 1257 284 c 0
 1231 269 1213 250 1213 238 c 0
 1213 236 1213 234 1214 233 c 0
 1232 208 1449 115 1524 100 c 0
 1560 93 1626 57 1670 21 c 0
 1714 -15 1774 -62 1802 -83 c 0
 1831 -104 1846 -134 1846 -160 c 0
 1846 -179 1837 -196 1820 -206 c 0
 1818 -207 1815 -207 1811 -207 c 0
 1769 -207 1613 -148 1413 -55 c 0
 1306 -5 1209 37 1199 37 c 0
 1171 37 986 153 976 177 c 0
 975 180 974 185 974 190 c 0
 974 240 1027 369 1061 393 c 0
 1078 405 1116 416 1144 416 c 0
 1225 416 1279 498 1279 583 c 0
 1279 623 1266 664 1239 697 c 0
 1215 726 1195 751 1194 752 c 0
 1193 753 1161 760 1121 767 c 2
 1049 780 l 1
 1049 692 l 2
 1049 565 1008 492 859 362 c 0
 699 221 629 187 480 170 c 0
 448 166 425 164 407 164 c 0
 368 164 350 174 321 199 c 0
 294 222 267 270 261 306 c 0
 255 342 241 386 229 405 c 0
 207 440 196 518 196 626 c 0
 196 701 201 791 212 892 c 0
 221 978 227 1040 227 1085 c 0
 227 1192 194 1205 96 1216 c 0
 25 1224 -4 1237 -11 1262 c 0
 -14 1272 -15 1290 -15 1311 c 0
 -15 1356 -9 1411 -1 1419 c 0
 2 1422 179 1431 391 1440 c 0
520 849 m 0
 513 849 479 877 443 913 c 0
 411 945 381 965 369 965 c 0
 367 965 366 965 365 964 c 0
 355 955 351 874 351 778 c 0
 351 647 359 490 373 462 c 0
 385 439 416 409 442 397 c 0
 459 389 474 384 490 384 c 0
 511 384 535 392 575 408 c 0
 716 464 787 548 787 656 c 0
 787 710 776 721 659 782 c 0
 590 818 526 849 520 849 c 0
EndSplineSet
EndChar

StartChar: bn_ja
Encoding: 2460 2460 27
GlifName: bn_ja
Width: 1566
GlyphClass: 2
Flags: W
AnchorPoint: "abvm" 884 1428 basechar 0
AnchorPoint: "blwm" 1346 -32 basechar 0
LayerCount: 2
Fore
SplineSet
-18 1384 m 2
 5 1463 l 1
 168 1454 l 2
 527 1434 1168 1413 1393 1413 c 0
 1432 1413 1459 1414 1469 1415 c 0
 1486 1417 1500 1418 1513 1418 c 0
 1563 1418 1584 1400 1584 1358 c 0
 1584 1346 1582 1333 1579 1317 c 0
 1573 1284 1559 1250 1548 1242 c 0
 1523 1222 1464 1212 1387 1212 c 0
 1354 1212 1317 1214 1278 1218 c 0
 1247 1221 1213 1223 1178 1223 c 0
 1128 1223 1077 1220 1036 1213 c 0
 932 1197 919 1191 913 1155 c 0
 910 1133 915 1107 924 1098 c 0
 933 1089 1015 1079 1108 1075 c 0
 1317 1067 1428 1044 1458 1004 c 0
 1473 984 1480 939 1480 892 c 0
 1480 853 1475 812 1464 784 c 0
 1455 760 1437 633 1435 502 c 0
 1435 478 1434 456 1434 435 c 0
 1434 328 1438 249 1438 195 c 0
 1438 173 1438 156 1436 142 c 1
 1502 140 1576 127 1583 110 c 0
 1585 105 1586 100 1586 93 c 0
 1586 51 1547 -20 1505 -46 c 0
 1484 -59 1458 -65 1432 -65 c 0
 1386 -65 1341 -45 1331 -12 c 0
 1324 13 1320 41 1320 65 c 0
 1320 85 1323 104 1328 116 c 1
 1311 136 1312 193 1310 349 c 0
 1309 418 1307 552 1306 650 c 2
 1303 827 l 1
 1228 860 l 2
 1177 882 1105 894 1042 894 c 0
 986 894 938 885 919 866 c 0
 901 848 892 831 892 815 c 0
 892 787 918 764 966 756 c 0
 1092 736 1155 670 1155 558 c 0
 1155 535 1152 510 1147 483 c 0
 1112 306 1096 249 1066 194 c 0
 1030 129 918 37 857 23 c 0
 832 17 796 2 776 -11 c 0
 754 -26 720 -33 689 -33 c 0
 665 -33 644 -29 633 -19 c 0
 623 -10 564 17 500 43 c 0
 321 115 303 124 303 146 c 0
 303 157 248 221 181 286 c 0
 32 430 -36 523 -36 583 c 0
 -36 635 9 705 41 705 c 0
 68 705 125 616 125 573 c 0
 125 512 403 290 521 257 c 0
 540 251 578 249 621 249 c 0
 648 249 676 250 702 252 c 0
 816 262 832 268 895 331 c 0
 953 389 964 410 964 472 c 0
 964 524 953 555 927 577 c 0
 909 593 899 600 883 600 c 0
 868 600 849 594 814 581 c 0
 780 569 757 563 738 563 c 0
 723 563 710 567 694 574 c 0
 666 587 654 593 654 669 c 0
 654 723 660 811 670 963 c 0
 674 1029 676 1077 676 1111 c 0
 676 1167 670 1188 658 1198 c 0
 644 1209 540 1222 428 1227 c 0
 54 1245 -31 1252 -31 1320 c 0
 -31 1337 -26 1358 -18 1384 c 2
EndSplineSet
EndChar

StartChar: bn_jha
Encoding: 2461 2461 28
GlifName: bn_jha
Width: 1757
GlyphClass: 2
Flags: W
AnchorPoint: "abvm" 1053 1490 basechar 0
AnchorPoint: "blwm" 1340 -242 basechar 0
LayerCount: 2
Fore
SplineSet
42 1457 m 0
 68 1469 335 1476 806 1476 c 2
 904 1476 l 2
 1728 1475 1770 1480 1770 1381 c 0
 1770 1371 1769 1360 1769 1348 c 0
 1769 1299 1754 1270 1714 1239 c 0
 1685 1217 1668 1208 1645 1208 c 0
 1630 1208 1613 1212 1588 1219 c 0
 1560 1227 1533 1232 1518 1232 c 0
 1512 1232 1508 1231 1506 1229 c 0
 1504 1227 1504 1216 1504 1197 c 0
 1504 1146 1509 1039 1518 918 c 0
 1556 412 1557 411 1598 367 c 0
 1622 342 1633 299 1633 259 c 0
 1633 207 1615 158 1581 154 c 0
 1578 154 1574 153 1571 153 c 0
 1550 153 1527 161 1513 174 c 0
 1441 241 1228 413 1182 441 c 0
 1160 455 1140 463 1129 463 c 0
 1126 463 1123 462 1122 460 c 0
 1105 431 1098 390 1098 343 c 0
 1098 190 1177 -22 1266 -50 c 0
 1304 -62 1333 -105 1333 -141 c 0
 1333 -148 1331 -156 1329 -162 c 0
 1322 -181 1302 -190 1274 -190 c 0
 1242 -190 1201 -178 1157 -154 c 0
 1118 -133 1076 -116 1062 -116 c 0
 1048 -116 1015 -99 990 -77 c 0
 964 -55 919 -27 886 -13 c 0
 656 87 490 174 327 279 c 0
 290 303 251 321 237 321 c 0
 223 321 213 328 213 338 c 0
 213 347 178 369 135 386 c 0
 70 412 36 438 36 467 c 0
 36 504 88 546 193 599 c 0
 263 635 358 696 407 737 c 0
 455 777 553 838 625 872 c 0
 791 951 885 1038 902 1127 c 0
 906 1149 908 1171 908 1188 c 0
 908 1201 907 1210 904 1215 c 0
 899 1223 797 1226 667 1226 c 0
 453 1226 164 1217 109 1204 c 0
 95 1201 83 1199 72 1199 c 0
 19 1199 -2 1240 -2 1338 c 0
 -2 1422 5 1440 42 1457 c 0
1299 1229 m 0
 1288 1262 1275 1288 1268 1288 c 2
 1267 1288 l 2
 1260 1286 1221 1282 1182 1278 c 2
 1110 1270 l 1
 1120 1105 l 2
 1140 759 1141 754 1235 663 c 0
 1279 621 1308 596 1327 596 c 0
 1346 596 1354 621 1354 681 c 0
 1354 729 1349 799 1341 894 c 0
 1329 1044 1310 1195 1299 1229 c 0
882 582 m 0
 876 668 865 739 858 739 c 0
 851 739 809 713 762 682 c 0
 715 651 669 625 659 625 c 0
 648 625 641 617 641 606 c 0
 641 595 633 587 621 587 c 0
 610 587 567 565 524 537 c 0
 464 498 446 475 446 434 c 0
 446 394 458 379 497 370 c 0
 525 363 571 342 600 322 c 0
 745 224 839 173 871 173 c 2
 875 173 l 2
 892 176 900 196 900 266 c 0
 900 326 894 424 882 582 c 0
EndSplineSet
EndChar

StartChar: bn_nya
Encoding: 2462 2462 29
GlifName: bn_nya
Width: 1578
GlyphClass: 2
Flags: W
AnchorPoint: "abvm" 748 1232 basechar 0
AnchorPoint: "blwm" 1048 -292 basechar 0
LayerCount: 2
Fore
SplineSet
404 1449 m 0
 461 1455 600 1458 743 1458 c 0
 780 1458 816 1457 852 1457 c 0
 1470 1453 1511 1450 1579 1409 c 1
 1601 1381 1612 1352 1612 1324 c 0
 1612 1292 1597 1262 1568 1244 c 1
 1497 1229 1242 1211 1002 1204 c 1
 920 1197 849 1187 844 1182 c 0
 843 1181 843 1181 843 1180 c 0
 843 1171 861 1144 887 1117 c 0
 916 1087 942 1048 942 1033 c 0
 943 976 978 947 1054 942 c 0
 1283 927 1483 830 1511 721 c 0
 1513 714 1514 706 1514 699 c 0
 1514 669 1498 636 1461 583 c 0
 1427 535 1398 488 1398 482 c 0
 1398 475 1430 436 1468 394 c 0
 1528 328 1538 303 1538 218 c 0
 1538 83 1460 -41 1376 -41 c 0
 1344 -41 1319 -31 1319 -19 c 0
 1319 -7 1305 -2 1287 -9 c 0
 1284 -10 1280 -11 1275 -11 c 0
 1251 -11 1205 1 1164 19 c 0
 1125 36 1087 47 1068 47 c 0
 1063 47 1059 46 1057 44 c 0
 1055 42 1053 34 1053 23 c 0
 1053 -3 1060 -50 1070 -100 c 0
 1082 -156 1088 -189 1088 -210 c 0
 1088 -233 1081 -243 1066 -254 c 0
 1044 -271 1022 -279 1000 -279 c 0
 963 -279 926 -255 887 -206 c 2
 828 -132 l 1
 619 -119 l 2
 504 -112 400 -100 388 -93 c 0
 376 -86 315 -70 251 -58 c 0
 187 -46 106 -19 70 3 c 0
 22 32 9 47 9 84 c 0
 9 91 9 98 10 106 c 0
 16 166 21 168 124 174 c 0
 135 175 145 175 156 175 c 0
 207 175 259 169 283 161 c 0
 311 151 402 131 484 119 c 0
 566 107 673 84 722 68 c 0
 772 52 804 41 825 41 c 0
 852 41 860 59 860 105 c 0
 860 127 858 157 856 194 c 0
 821 735 772 941 671 966 c 0
 662 968 654 969 645 969 c 0
 578 969 513 907 507 828 c 0
 501 757 500 757 393 744 c 0
 365 741 343 738 325 738 c 0
 281 738 260 751 215 784 c 0
 169 819 146 853 146 886 c 0
 146 961 215 1081 299 1151 c 2
 374 1214 l 1
 315 1204 l 2
 250 1194 166 1189 99 1189 c 0
 47 1189 5 1192 -7 1199 c 0
 -23 1209 -30 1231 -30 1259 c 0
 -30 1297 -16 1345 10 1389 c 1
 47 1437 60 1451 111 1451 c 0
 129 1451 152 1450 181 1447 c 0
 204 1444 236 1443 271 1443 c 0
 315 1443 364 1445 404 1449 c 0
1176 731 m 0
 1160 747 1137 754 1112 754 c 0
 1083 754 1053 744 1032 723 c 0
 1012 703 1002 642 1002 559 c 0
 1002 499 1008 427 1018 349 c 0
 1032 245 1096 183 1159 183 c 0
 1197 183 1235 205 1262 254 c 0
 1276 280 1284 302 1284 322 c 0
 1284 358 1260 387 1207 419 c 0
 1162 447 1140 482 1140 517 c 0
 1140 540 1150 563 1170 583 c 0
 1189 602 1199 633 1199 663 c 0
 1199 690 1191 716 1176 731 c 0
EndSplineSet
EndChar

StartChar: bn_tta
Encoding: 2463 2463 30
GlifName: bn_T_a
Width: 1315
GlyphClass: 2
Flags: W
AnchorPoint: "abvm" 652 1224 basechar 0
AnchorPoint: "blwm" 608 -32 basechar 0
LayerCount: 2
Fore
SplineSet
813 1218 m 0
 789 1242 677 1259 574 1259 c 0
 538 1259 503 1257 474 1252 c 0
 395 1240 362 1210 362 1153 c 0
 362 1084 393 1072 573 1072 c 0
 723 1072 791 1091 807 1137 c 0
 815 1160 819 1181 819 1196 c 0
 819 1206 817 1214 813 1218 c 0
443 358 m 1
 420 389 349 474 349 500 c 0
 349 504 350 507 354 508 c 1
 351 513 349 520 349 526 c 0
 349 586 475 690 617 690 c 0
 680 690 745 670 805 616 c 0
 901 530 963 437 963 320 c 0
 963 279 955 234 938 186 c 0
 888 45 792 -15 612 -15 c 0
 320 -15 225 157 225 726 c 0
 225 753 226 781 226 809 c 2
 232 1231 l 1
 111 1255 l 2
 23 1273 -18 1302 -18 1331 c 0
 -18 1369 55 1406 186 1415 c 0
 304 1422 456 1426 609 1426 c 0
 905 1426 1204 1413 1269 1392 c 0
 1328 1373 1365 1328 1365 1277 c 0
 1365 1238 1354 1216 1336 1216 c 0
 1331 1216 1325 1218 1319 1222 c 0
 1292 1239 1187 1247 1092 1247 c 0
 1010 1247 934 1241 921 1227 c 0
 919 1224 917 1220 917 1214 c 0
 917 1193 932 1155 955 1116 c 0
 976 1081 987 1058 987 1039 c 0
 987 1014 969 995 928 965 c 0
 881 930 753 905 623 905 c 0
 414 905 396 896 345 775 c 0
 320 717 312 634 312 572 c 0
 312 559 312 546 313 535 c 2
 362 320 l 1
 445 236 l 2
 497 184 541 158 584 158 c 0
 633 158 680 192 735 261 c 0
 776 313 796 353 796 389 c 0
 796 408 790 426 780 445 c 0
 745 509 696 547 644 547 c 0
 595 547 543 514 495 440 c 2
 443 358 l 1
EndSplineSet
EndChar

StartChar: bn_ttha
Encoding: 2464 2464 31
GlifName: bn_T_ha
Width: 1103
GlyphClass: 2
Flags: W
HStem: 48 249<369.212 655.32> 1232 255<-28.5767 62.2758> 1248 216<3.94041 132.352> 1250 191<465.816 1102.92>
VStem: 139 146<445.026 1014.83> 785 263<425.5 631.11>
AnchorPoint: "abvm" 560 1261 basechar 0
AnchorPoint: "blwm" 468 33 basechar 0
LayerCount: 2
Fore
SplineSet
532 843 m 0x8c
 426 937 331 1015 323 1015 c 0
 315 1015 308 979 308 935 c 0
 308 892 301 808 292 751 c 0
 287 719 285 687 285 659 c 0
 285 634 287 613 291 600 c 0
 300 575 315 512 326 460 c 0
 352 334 376 309 475 299 c 0
 488 298 501 297 513 297 c 0
 597 297 660 331 728 410 c 0
 764 452 785 488 785 527 c 0
 785 601 710 686 532 843 c 0x8c
-9 1844 m 0
 -3 1859 7 1866 27 1866 c 0
 36 1866 46 1864 60 1862 c 0
 131 1849 161 1820 181 1750 c 0
 217 1621 276 1490 310 1464 c 0xac
 332 1447 364 1441 489 1441 c 0
 533 1441 589 1442 660 1443 c 0
 834 1446 1009 1451 1049 1454 c 2
 1122 1459 l 1
 1121 1377 l 2
 1119 1285 1086 1251 996 1250 c 0x9c
 738 1248 418 1227 418 1212 c 0
 418 1156 551 1023 937 693 c 0
 1039 606 1048 597 1048 526 c 2
 1048 508 l 2
 1047 441 1036 404 1004 361 c 0
 923 254 816 144 793 144 c 0
 781 144 756 129 740 112 c 0
 704 75 569 48 456 48 c 0
 416 48 378 52 349 59 c 0
 287 75 265 92 233 149 c 0
 173 256 139 492 139 770 c 0
 139 875 144 986 154 1099 c 0
 159 1152 162 1196 165 1234 c 1
 141 1237 115 1248 87 1248 c 0xac
 82 1248 76 1248 71 1247 c 0
 47 1243 23 1232 3 1232 c 0
 -9 1232 -20 1236 -29 1247 c 0
 -49 1271 -55 1295 -55 1322 c 0
 -55 1343 -52 1364 -49 1388 c 0
 -49 1429 -49 1466 -46 1483 c 1
 -38 1486 -32 1487 -25 1487 c 0xcc
 4 1487 27 1464 64 1464 c 0xac
 81 1464 101 1469 125 1483 c 0
 128 1484 130 1484 133 1485 c 1
 118 1513 99 1544 73 1583 c 0
 8 1682 -20 1741 -20 1791 c 0
 -20 1810 -16 1827 -9 1844 c 0
EndSplineSet
EndChar

StartChar: bn_dda
Encoding: 2465 2465 32
GlifName: bn_D_a
Width: 1372
GlyphClass: 2
Flags: W
HStem: -62 215<617.406 986.482> 576 211<893.414 1109.43> 576 162<874.144 1024.33> 1235 212<76.1603 597.472 855.631 1236>
VStem: -9 241<457.87 555.745> 656 191<738.293 1069>
AnchorPoint: "abvm" 724 1229 basechar 0
AnchorPoint: "blwm" 812 -107 basechar 0
LayerCount: 2
Fore
SplineSet
57 1189 m 0xdc
 6.82705173492 1189 -2 1217.9688909 -2 1272 c 0
 -2 1326 9.27808869786 1401.82689413 26 1429 c 0
 34 1442 107 1447 341 1447 c 0
 431 1447 546.001552474 1446.20166763 689 1445 c 0
 1046 1442 1347.31397515 1433.51244455 1359 1426 c 0
 1373 1417 1381 1380 1381 1343 c 0
 1381 1308 1375 1274 1361 1260 c 0
 1347 1246 1263 1239 1106 1239 c 0
 941 1239 867.501294051 1232.58484306 855 1218 c 0
 849 1211 847 1178 847 1131 c 0
 847 998 866 760 885 741 c 0
 887 739 891 738 897 738 c 0xbc
 931.190925222 738 1015.34548325 787 1047 787 c 0
 1064 787 1081.79285815 782.402380615 1107 774 c 0
 1143 762 1206.38395779 717.151394129 1246 677 c 1
 1246 677 1316.35029246 643.512648441 1327 603 c 0
 1357.92831389 485.345322326 1361.44743567 366.32129795 1339 246 c 0
 1332.86420453 213.111304583 1276 183 1276 183 c 1
 1245.65730659 149.406303725 1192.95283519 93.0442429734 1162 60 c 0
 1088 -19 983 -75 916 -75 c 0
 882.607606602 -75 841.328155702 -62 813 -62 c 2
 807 -62 l 2
 780 -62 757 -63 737 -63 c 0
 648 -63 619.168317927 -53.7038318716 556 -18 c 0
 510 8 449.940582445 47.932287448 426 69 c 0
 401 91 353 125 316 147 c 0
 279 169 249 192 249 198 c 0
 249 204 205.250013863 257.233781534 151 315 c 0
 43 430 -9 515 -9 579 c 0
 -9 625.71263346 37.0341482265 684 81 684 c 0
 107 684 129.358033829 662.169527832 151 616 c 0
 166 584 191 548 205 536 c 0
 219 524 232 504 232 493 c 0
 232 465 318.686343744 377.015078575 396 324 c 0
 431 300 462 274 462 267 c 0
 462 260 474 254 486 254 c 0
 499 254 546.811101496 233.650396382 591 210 c 0
 662 172 728 153 797 153 c 0
 838 153 880.047864164 159.835445934 925 173 c 0
 1065 214 1150 306 1150 414 c 0
 1150 510.468614941 1089.75660572 576 1012 576 c 0
 988 576 963.049530036 570.904303352 938 558 c 0
 905 541 833.006026978 524.912178322 776 521 c 2
 674 514 l 1
 656 978 l 1
 646 1069 l 2
 640.608042 1118.0668178 626 1169 615 1181 c 0
 594.402140491 1203.47039219 412.021644268 1235 341 1235 c 0
 298 1235 260.975262263 1229.10209082 203 1215 c 0
 129 1197 85 1189 57 1189 c 0xdc
EndSplineSet
EndChar

StartChar: bn_ddha
Encoding: 2466 2466 33
GlifName: bn_D_ha
Width: 1129
GlyphClass: 2
Flags: W
AnchorPoint: "abvm" 388 1227 basechar 0
AnchorPoint: "blwm" 673 -36 basechar 0
LayerCount: 2
Fore
SplineSet
1028 1465 m 0
 1031 1468 1038 1469 1046 1469 c 0
 1074 1469 1125 1454 1141 1438 c 0
 1148 1430 1159 1392 1164 1355 c 0
 1166 1342 1166 1330 1166 1320 c 0
 1166 1290 1160 1272 1144 1255 c 0
 1114 1223 1113 1223 677 1218 c 0
 497 1216 446 1210 425 1188 c 0
 403 1165 397 1090 389 762 c 2
 380 364 l 1
 426 314 l 2
 460 278 506 260 559 260 c 0
 612 260 673 278 734 314 c 0
 815 362 854 413 854 469 c 0
 854 485 851 500 845 517 c 0
 825 571 784 596 699 596 c 0
 651 596 588 588 508 572 c 0
 496 570 486 568 478 568 c 0
 456 568 446 577 434 599 c 0
 429 608 427 617 427 627 c 0
 427 706 564 811 701 824 c 0
 715 825 728 826 740 826 c 0
 785 826 817 814 885 774 c 0
 985 716 1002 693 1059 549 c 0
 1073 512 1081 491 1081 465 c 0
 1081 439 1074 407 1058 345 c 0
 1031 234 1015 205 934 118 c 0
 845 22 768 -22 673 -22 c 0
 631 -22 586 -14 534 3 c 0
 448 30 320 108 284 154 c 0
 234 218 192 383 192 499 c 0
 192 520 193 539 196 556 c 0
 203 595 206 715 206 843 c 0
 206 1021 200 1213 190 1219 c 0
 189 1220 187 1220 184 1220 c 0
 171 1220 144 1212 116 1200 c 0
 88 1188 64 1182 43 1182 c 0
 -1 1182 -28 1209 -28 1260 c 0
 -28 1294 -16 1349 -5 1382 c 2
 15 1440 l 1
 517 1448 l 2
 793 1452 1022 1459 1028 1465 c 0
EndSplineSet
EndChar

StartChar: bn_nna
Encoding: 2467 2467 34
GlifName: bn_N_a
Width: 1272
GlyphClass: 2
Flags: W
AnchorPoint: "abvm" 1154 1361 basechar 0
AnchorPoint: "blwm" 1126 -75 basechar 0
LayerCount: 2
Fore
SplineSet
1052 1643 m 0
 1059 1660 1078 1668 1100 1668 c 0
 1129 1668 1164 1654 1191 1629 c 0
 1229 1594 1235 1572 1235 1492 c 0
 1235 1441 1243 1361 1253 1317 c 0
 1259 1289 1263 1266 1263 1248 c 0
 1263 1229 1259 1215 1252 1203 c 0
 1229 1163 1214 998 1214 838 c 0
 1214 776 1216 716 1221 663 c 0
 1230 567 1237 481 1237 472 c 0
 1236 305 1220 16 1210 -5 c 0
 1198 -31 1173 -44 1142 -44 c 0
 1128 -44 1113 -42 1097 -36 c 0
 1053 -20 1018 90 1018 192 c 0
 1018 212 1019 232 1022 251 c 0
 1035 333 1042 380 1042 421 c 0
 1042 462 1035 496 1022 551 c 0
 981 723 967 737 836 737 c 2
 726 737 l 1
 715 650 l 2
 703 564 681 530 635 530 c 0
 630 530 625 530 619 531 c 0
 590 535 573 558 549 625 c 0
 498 766 484 777 351 777 c 2
 236 777 l 1
 236 722 l 2
 236 670 242 665 315 648 c 0
 419 623 433 614 433 570 c 0
 433 524 368 468 301 455 c 0
 296 454 290 454 284 454 c 0
 222 454 108 501 108 530 c 0
 108 539 92 567 72 593 c 0
 46 625 33 687 33 748 c 0
 33 804 44 860 66 895 c 0
 99 948 109 953 211 971 c 0
 243 977 279 986 288 993 c 0
 309 1008 333 1016 361 1016 c 0
 390 1016 423 1007 457 991 c 0
 496 972 531 951 536 944 c 0
 538 941 542 940 549 940 c 0
 583 940 669 967 691 989 c 0
 698 996 718 999 742 999 c 0
 787 999 849 988 883 971 c 0
 953 936 1030 875 1030 854 c 0
 1030 843 1038 834 1047 834 c 0
 1065 834 1076 851 1076 874 c 0
 1076 886 1073 900 1067 915 c 0
 1062 927 1060 937 1060 947 c 0
 1060 961 1065 973 1075 986 c 0
 1090 1005 1098 1041 1098 1073 c 0
 1098 1098 1093 1121 1083 1131 c 0
 1069 1145 1048 1442 1048 1578 c 0
 1048 1612 1049 1636 1052 1643 c 0
EndSplineSet
EndChar

StartChar: bn_ta
Encoding: 2468 2468 35
GlifName: bn_ta
Width: 1509
GlyphClass: 2
Flags: W
AnchorPoint: "abvm" 838 1229 basechar 0
AnchorPoint: "blwm" 1006 -79 basechar 0
LayerCount: 2
Fore
SplineSet
967 1447 m 0
 999 1454 1140 1462 1282 1464 c 0
 1340 1465 1385 1466 1420 1466 c 0
 1534 1466 1541 1459 1549 1431 c 0
 1560 1396 1565 1370 1565 1349 c 0
 1565 1317 1552 1298 1524 1283 c 0
 1449 1243 1395 1236 1186 1235 c 0
 1029 1234 987 1229 987 1209 c 0
 987 1168 1093 1076 1210 1016 c 0
 1300 970 1331 941 1379 864 c 0
 1411 812 1449 736 1463 696 c 0
 1480 648 1488 561 1488 483 c 0
 1488 406 1480 336 1464 320 c 0
 1451 307 1436 274 1429 244 c 0
 1401 119 1383 95 1267 37 c 0
 1107 -43 1093 -48 1005 -56 c 0
 998 -57 991 -57 983 -57 c 0
 905 -57 772 -27 737 1 c 0
 728 8 698 21 672 27 c 0
 613 42 468 160 297 335 c 0
 116 521 73 572 73 599 c 0
 73 613 60 635 45 648 c 0
 12 677 -3 702 -3 722 c 0
 -3 753 32 771 93 775 c 0
 131 777 138 777 144 772 c 2
 163 761 l 1
 163 761 181 700 387 493 c 0
 537 342 610 283 702 237 c 0
 782 197 813 184 866 184 c 0
 887 184 911 186 943 189 c 0
 1010 195 1090 202 1121 203 c 0
 1170 205 1182 216 1218 296 c 0
 1254 376 1272 434 1272 488 c 0
 1272 554 1245 614 1187 703 c 0
 1167 734 1152 750 1140 750 c 0
 1127 750 1117 733 1106 701 c 0
 1085 639 1003 574 929 562 c 0
 918 560 907 559 896 559 c 0
 816 559 751 611 705 710 c 0
 676 773 661 821 661 861 c 0
 661 905 679 940 714 978 c 0
 739 1005 754 1025 754 1044 c 0
 754 1075 718 1103 635 1155 c 0
 539 1215 529 1218 369 1218 c 0
 278 1218 167 1207 124 1193 c 0
 91 1183 72 1177 58 1177 c 0
 42 1177 34 1185 24 1202 c 0
 13 1221 4 1275 4 1323 c 0
 4 1407 6 1411 66 1432 c 0
 92 1441 128 1445 171 1445 c 0
 196 1445 223 1444 252 1441 c 0
 316 1435 440 1432 567 1432 c 0
 741 1432 921 1437 967 1447 c 0
EndSplineSet
EndChar

StartChar: bn_tha
Encoding: 2469 2469 36
GlifName: bn_tha
Width: 1163
GlyphClass: 2
Flags: W
AnchorPoint: "abvm" 1066 1233 basechar 0
AnchorPoint: "blwm" 1206 -191 basechar 0
LayerCount: 2
Fore
SplineSet
1059 1417 m 0
 1077 1431 1143 1441 1223 1441 c 0
 1366 1441 1378 1433 1378 1340 c 0
 1378 1266 1339 1235 1233 1223 c 2
 1134 1212 l 1
 1131 978 l 2
 1129 850 1127 680 1126 604 c 0
 1125 528 1117 414 1110 353 c 0
 1107 328 1106 303 1106 278 c 0
 1106 150 1142 27 1200 -21 c 0
 1232 -47 1248 -77 1248 -111 c 0
 1248 -151 1233 -172 1208 -172 c 0
 1188 -172 1161 -159 1129 -131 c 0
 885 82 817 139 805 139 c 0
 797 139 760 161 723 188 c 0
 686 215 612 262 560 290 c 0
 508 318 425 376 379 417 c 0
 332 459 285 492 272 492 c 0
 259 492 242 516 232 548 c 0
 227 565 223 577 223 588 c 0
 223 617 251 634 359 696 c 0
 479 765 535 816 570 887 c 0
 586 919 594 993 594 1050 c 0
 594 1092 590 1125 579 1125 c 0
 569 1125 546 1143 526 1165 c 2
 490 1205 l 1
 507 1141 l 2
 513 1119 516 1095 516 1071 c 0
 516 976 472 883 417 883 c 0
 402 883 370 866 344 844 c 0
 316 821 294 812 262 812 c 0
 252 812 241 812 229 814 c 0
 121 829 60 888 27 1007 c 0
 16 1048 10 1087 10 1123 c 0
 10 1287 127 1390 345 1411 c 0
 378 1414 407 1416 432 1416 c 0
 519 1416 565 1394 622 1334 c 0
 710 1244 767 1084 767 947 c 0
 767 922 765 897 761 874 c 0
 755 838 710 745 662 669 c 0
 607 582 584 533 584 504 c 0
 584 499 585 496 586 492 c 0
 592 471 642 431 703 398 c 0
 762 366 831 323 857 302 c 0
 880 284 897 271 911 271 c 0
 950 271 957 380 973 784 c 0
 994 1284 1005 1374 1059 1417 c 0
359 1164 m 0
 361 1173 362 1181 362 1188 c 0
 362 1213 349 1226 323 1226 c 0
 314 1226 304 1225 293 1222 c 0
 257 1213 237 1169 237 1130 c 0
 237 1097 251 1069 281 1069 c 0
 318 1069 344 1101 359 1164 c 0
EndSplineSet
EndChar

StartChar: bn_da
Encoding: 2470 2470 37
GlifName: bn_da
Width: 1214
GlyphClass: 2
Flags: W
AnchorPoint: "abvm" 658 1229 basechar 0
AnchorPoint: "blwm" 1070 -139 basechar 0
LayerCount: 2
Fore
SplineSet
1142 1464 m 0
 1161 1473 1172 1479 1182 1479 c 0
 1193 1479 1204 1472 1225 1458 c 0
 1243 1445 1251 1433 1251 1407 c 0
 1251 1396 1250 1382 1247 1365 c 0
 1229 1241 1230 1242 761 1240 c 2
 344 1238 l 1
 340 1100 l 1
 340 1072 l 2
 340 997 346 900 356 842 c 2
 377 722 l 1
 519 847 l 2
 598 916 690 983 723 996 c 0
 755 1008 788 1026 794 1035 c 0
 801 1046 858 1052 913 1052 c 0
 952 1052 990 1049 1009 1042 c 0
 1025 1036 1050 1011 1066 983 c 0
 1078 961 1084 936 1084 909 c 0
 1084 863 1067 809 1031 747 c 0
 980 659 927 467 927 389 c 0
 927 378 929 369 931 363 c 0
 940 342 946 303 946 275 c 0
 946 231 1028 72 1082 13 c 0
 1094 0 1110 -31 1117 -54 c 0
 1120 -63 1121 -71 1121 -78 c 0
 1121 -110 1094 -127 1031 -141 c 0
 1025 -142 1018 -143 1012 -143 c 0
 965 -143 916 -102 822 13 c 0
 782 62 762 171 762 295 c 0
 762 426 784 573 828 681 c 0
 845 725 855 773 855 804 c 0
 855 825 851 838 842 838 c 0
 829 838 724 753 472 541 c 0
 434 509 392 464 379 440 c 0
 360 406 308 380 272 380 c 0
 260 380 249 382 242 389 c 0
 232 398 220 452 216 510 c 0
 212 568 200 674 191 747 c 0
 182 820 169 951 165 1040 c 0
 161 1129 153 1208 147 1217 c 0
 141 1226 107 1233 73 1233 c 0
 8 1233 4 1238 -13 1327 c 0
 -15 1339 -17 1350 -17 1360 c 0
 -17 1427 66 1431 587 1440 c 0
 876 1445 1126 1456 1142 1464 c 0
EndSplineSet
EndChar

StartChar: bn_dha
Encoding: 2471 2471 38
GlifName: bn_dha
Width: 1161
GlyphClass: 2
Flags: W
AnchorPoint: "abvm" 814 1225 basechar 0
AnchorPoint: "blwm" 1058 -79 basechar 0
LayerCount: 2
Fore
SplineSet
391 1680 m 0
 414 1690 443 1695 474 1695 c 0
 530 1695 592 1679 633 1649 c 0
 658 1631 688 1616 698 1616 c 0
 732 1616 850 1526 873 1482 c 0
 890 1450 898 1441 955 1441 c 0
 972 1441 994 1442 1021 1443 c 0
 1049 1444 1072 1445 1089 1445 c 0
 1147 1445 1151 1436 1164 1397 c 0
 1169 1381 1172 1368 1172 1354 c 0
 1172 1334 1166 1314 1154 1289 c 0
 1130 1241 1113 1229 1042 1216 c 0
 961 1201 958 1198 937 1118 c 0
 929 1086 925 1053 925 1021 c 0
 925 998 927 976 931 953 c 0
 935 930 938 894 938 852 c 0
 938 808 935 758 930 709 c 0
 914 560 905 457 905 382 c 0
 905 256 930 206 989 137 c 0
 1054 61 1083 15 1083 -18 c 0
 1083 -31 1078 -42 1070 -52 c 0
 1056 -69 1040 -77 1023 -77 c 0
 1001 -77 977 -64 949 -38 c 0
 924 -15 817 57 709 123 c 0
 601 189 493 257 467 276 c 0
 441 295 415 310 409 310 c 0
 396 310 283 392 223 446 c 0
 198 468 166 491 150 496 c 0
 134 501 112 529 101 555 c 0
 93 575 87 592 87 607 c 0
 87 654 140 685 317 771 c 0
 359 792 421 824 453 842 c 0
 468 850 502 867 532 881 c 0
 590 907 643 960 643 987 c 0
 643 990 642 993 641 995 c 0
 639 998 633 1000 624 1000 c 0
 603 1000 565 991 515 975 c 0
 457 956 424 948 396 948 c 0
 377 948 362 952 342 959 c 0
 310 971 268 981 250 981 c 0
 184 982 82 1093 82 1164 c 0
 82 1182 68 1208 53 1219 c 0
 33 1233 23 1272 19 1341 c 0
 18 1354 18 1365 18 1375 c 0
 18 1445 34 1467 99 1467 c 0
 116 1467 137 1466 162 1463 c 0
 277 1451 308 1427 308 1330 c 0
 308 1322 307 1313 307 1304 c 0
 306 1288 306 1275 306 1263 c 0
 306 1211 315 1197 352 1169 c 0
 387 1142 437 1131 489 1131 c 0
 594 1131 705 1178 714 1249 c 1
 714 1256 l 2
 714 1281 701 1324 683 1355 c 0
 648 1415 644 1417 531 1419 c 0
 407 1422 377 1436 327 1517 c 0
 315 1537 309 1557 309 1576 c 0
 309 1618 337 1657 391 1680 c 0
767 601 m 0
 763 700 759 742 724 742 c 0
 700 742 660 722 594 688 c 0
 532 656 456 627 427 624 c 0
 383 620 372 610 368 571 c 1
 368 566 l 2
 368 512 455 422 582 347 c 0
 623 323 664 293 674 282 c 0
 683 271 705 257 721 251 c 0
 725 250 728 249 731 249 c 0
 748 249 754 272 762 350 c 0
 766 391 768 458 768 521 c 0
 768 549 768 577 767 601 c 0
EndSplineSet
EndChar

StartChar: bn_na
Encoding: 2472 2472 39
GlifName: bn_na
Width: 1031
GlyphClass: 2
Flags: W
AnchorPoint: "abvm" 834 1217 basechar 0
AnchorPoint: "blwm" 922 -31 basechar 0
LayerCount: 2
Fore
SplineSet
1 1429 m 0
 23 1444 163 1453 326 1453 c 0
 458 1453 605 1447 716 1436 c 0
 753 1432 786 1431 816 1431 c 0
 861 1431 898 1435 930 1444 c 0
 960 1452 980 1457 994 1457 c 0
 1014 1457 1024 1449 1044 1429 c 0
 1068 1405 1080 1385 1080 1357 c 0
 1080 1336 1073 1310 1060 1274 c 0
 1042 1225 1031 1215 983 1215 c 0
 932 1215 925 1209 917 1149 c 0
 915 1137 915 1120 915 1101 c 0
 915 1061 918 1011 924 968 c 0
 933 904 948 736 958 589 c 0
 968 442 980 294 986 257 c 0
 988 246 989 235 989 222 c 0
 989 184 981 139 967 94 c 0
 946 28 927 -2 898 -2 c 0
 879 -2 857 11 827 34 c 0
 783 68 781 77 781 234 c 0
 781 324 790 464 801 544 c 0
 808 597 812 635 812 661 c 0
 812 687 808 702 801 709 c 0
 790 720 781 744 781 765 c 0
 781 806 608 947 559 947 c 2
 555 947 l 2
 542 944 520 914 508 880 c 0
 495 846 469 777 451 728 c 0
 433 679 404 616 387 590 c 0
 367 559 357 548 325 548 c 0
 310 548 291 551 264 554 c 0
 125 571 48 665 48 767 c 0
 48 842 89 921 178 977 c 2
 261 1030 l 1
 521 1026 l 1
 781 1023 l 1
 781 1118 l 2
 781 1171 774 1218 764 1224 c 0
 745 1236 559 1243 391 1243 c 0
 282 1243 181 1240 139 1233 c 0
 109 1228 85 1225 65 1225 c 0
 3 1225 -14 1253 -25 1334 c 0
 -27 1349 -28 1361 -28 1371 c 0
 -28 1400 -20 1414 1 1429 c 0
EndSplineSet
EndChar

StartChar: bn_pa
Encoding: 2474 2474 40
GlifName: bn_pa
Width: 1208
GlyphClass: 2
Flags: W
AnchorPoint: "abvm" 842 1237 basechar 0
AnchorPoint: "blwm" 1098 -47 basechar 0
LayerCount: 2
Fore
SplineSet
943 1608 m 0
 950 1615 964 1619 980 1619 c 0
 998 1619 1017 1614 1031 1605 c 0
 1051 1592 1065 1531 1072 1418 c 1
 1096 1424 1127 1430 1155 1430 c 2
 1166 1430 l 2
 1203 1428 1234 1435 1234 1388 c 0
 1234 1350 1249 1316 1258 1277 c 0
 1259 1273 1259 1270 1259 1267 c 0
 1259 1243 1232 1238 1214 1238 c 0
 1188 1238 1162 1223 1140 1223 c 2
 1136 1223 l 2
 1113 1225 1094 1229 1078 1235 c 1
 1078 1220 l 2
 1079 1102 1087 998 1094 991 c 0
 1101 984 1107 922 1107 853 c 0
 1107 785 1123 664 1142 588 c 0
 1161 511 1182 361 1187 253 c 0
 1190 193 1192 152 1192 121 c 0
 1192 54 1182 41 1152 7 c 0
 1124 -24 1099 -38 1070 -38 c 0
 1066 -38 1062 -37 1058 -37 c 0
 1015 -32 1008 -21 994 57 c 0
 985 106 977 339 976 577 c 0
 975 815 968 1028 960 1050 c 0
 952 1073 932 1089 913 1089 c 0
 871 1089 770 1003 681 890 c 0
 644 843 571 770 518 727 c 0
 465 684 393 610 357 561 c 0
 305 490 281 471 242 471 c 0
 181 471 157 496 157 572 c 0
 157 587 158 605 160 625 c 0
 165 681 174 758 181 795 c 0
 185 816 187 836 187 853 c 0
 187 913 162 955 102 1010 c 0
 48 1060 31 1091 16 1172 c 0
 10 1205 6 1232 6 1254 c 0
 6 1328 47 1350 169 1378 c 0
 244 1395 343 1403 442 1403 c 0
 616 1403 789 1379 830 1338 c 0
 841 1327 867 1319 890 1319 c 0
 929 1319 930 1326 930 1458 c 0
 930 1534 936 1601 943 1608 c 0
611 1258 m 0
 537 1258 449 1251 390 1239 c 0
 344 1229 299 1134 299 1059 c 0
 299 1050 300 1041 301 1033 c 0
 326 888 335 860 360 860 c 0
 389 860 748 1212 748 1240 c 0
 748 1253 672 1258 611 1258 c 0
EndSplineSet
EndChar

StartChar: bn_pha
Encoding: 2475 2475 41
GlifName: bn_pha
Width: 1557
GlyphClass: 2
Flags: W
AnchorPoint: "abvm" 910 1228 basechar 0
AnchorPoint: "blwm" 1370 -172 basechar 0
LayerCount: 2
Fore
SplineSet
125 1433 m 0
 148 1434 210 1435 296 1435 c 0
 685 1435 1568 1422 1588 1414 c 0
 1590 1414 1590 1404 1590 1389 c 0
 1590 1374 1590 1355 1588 1333 c 0
 1583 1263 1576 1252 1528 1238 c 0
 1514 1234 1494 1232 1470 1232 c 0
 1440 1232 1404 1235 1369 1242 c 0
 1328 1251 1289 1256 1267 1256 c 0
 1258 1256 1252 1255 1249 1253 c 0
 1241 1247 1079 1242 890 1242 c 0
 570 1241 338 1218 338 1186 c 0
 338 1179 366 1118 400 1052 c 0
 480 897 514 792 514 658 c 0
 514 592 506 520 491 431 c 0
 488 414 486 401 486 390 c 0
 486 359 504 349 572 313 c 0
 623 286 711 252 767 236 c 0
 823 220 880 198 895 186 c 0
 913 171 927 171 941 185 c 0
 945 189 947 195 947 202 c 0
 947 220 935 247 908 291 c 0
 879 338 849 377 842 377 c 0
 834 377 828 387 828 400 c 0
 828 413 817 447 803 475 c 0
 776 527 762 601 762 671 c 0
 762 719 769 765 783 800 c 0
 839 941 924 1050 995 1072 c 0
 1035 1084 1061 1091 1090 1091 c 0
 1120 1091 1153 1084 1212 1071 c 0
 1365 1037 1492 870 1526 663 c 0
 1529 644 1531 629 1531 617 c 0
 1531 583 1517 566 1473 521 c 0
 1419 467 1365 441 1304 441 c 0
 1281 441 1256 445 1230 452 c 0
 1125 483 1010 610 1010 697 c 0
 1010 720 1002 732 992 725 c 0
 981 718 975 702 975 680 c 0
 975 558 1132 245 1277 106 c 0
 1368 19 1404 -28 1404 -73 c 0
 1404 -90 1399 -106 1390 -124 c 0
 1371 -161 1350 -178 1316 -178 c 0
 1287 -178 1249 -165 1197 -140 c 0
 1026 -56 956 -27 914 -27 c 0
 906 -27 900 -28 894 -30 c 0
 891 -31 886 -31 882 -31 c 0
 848 -31 778 -8 678 36 c 0
 582 79 488 113 470 114 c 0
 452 115 422 128 404 142 c 0
 386 156 336 174 294 181 c 0
 185 199 156 220 156 281 c 0
 156 335 209 421 271 468 c 0
 325 510 355 601 355 695 c 0
 355 756 342 819 315 868 c 0
 293 908 266 941 256 941 c 0
 246 941 206 976 169 1017 c 0
 131 1058 81 1101 58 1110 c 0
 23 1123 14 1144 4 1240 c 0
 1 1272 -1 1298 -1 1320 c 0
 -1 1407 29 1427 125 1433 c 0
1279 767 m 0
 1274 833 1269 838 1205 843 c 2
 1137 849 l 1
 1137 776 l 2
 1137 703 1159 665 1199 665 c 0
 1211 665 1224 668 1239 675 c 0
 1271 690 1281 701 1281 737 c 0
 1281 745 1280 756 1279 767 c 0
EndSplineSet
EndChar

StartChar: bn_ba
Encoding: 2476 2476 42
GlifName: bn_ba
Width: 1315
GlyphClass: 2
Flags: W
AnchorPoint: "abvm" 986 1228 basechar 0
AnchorPoint: "blwm" 1250 -152 basechar 0
LayerCount: 2
Fore
SplineSet
467 1452 m 2
 663 1454 821 1455 945 1455 c 0
 1220 1455 1334 1450 1351 1439 c 0
 1362 1432 1372 1401 1372 1371 c 0
 1372 1301 1323 1273 1184 1259 c 2
 1081 1249 l 1
 1082 814 l 2
 1083 574 1090 362 1098 342 c 0
 1106 322 1117 260 1121 203 c 0
 1128 112 1137 91 1203 23 c 0
 1252 -28 1278 -71 1278 -105 c 0
 1278 -133 1269 -156 1259 -156 c 0
 1227 -156 1100 -87 1074 -55 c 0
 1061 -39 1029 -24 1007 -24 c 0
 984 -24 944 -8 918 13 c 0
 892 34 860 51 849 51 c 0
 822 51 688 137 608 206 c 0
 574 235 537 259 526 259 c 0
 515 259 470 289 427 325 c 0
 384 361 340 391 331 391 c 0
 314 391 166 485 119 525 c 0
 113 531 109 536 109 543 c 0
 109 556 123 574 154 607 c 0
 186 640 250 686 295 709 c 0
 340 732 380 757 383 764 c 0
 392 783 652 956 673 956 c 0
 682 956 730 993 781 1038 c 0
 843 1094 863 1117 863 1145 c 0
 863 1152 862 1158 860 1166 c 0
 848 1218 800 1248 737 1248 c 0
 719 1248 699 1245 679 1240 c 0
 642 1230 581 1223 536 1223 c 2
 527 1223 l 1
 501 1223 l 2
 389 1223 183 1208 74 1192 c 0
 52 1189 33 1187 17 1187 c 0
 -11 1187 -30 1192 -42 1202 c 0
 -60 1217 -70 1255 -70 1299 c 0
 -70 1332 -65 1367 -53 1398 c 2
 -34 1447 l 1
 467 1452 l 2
910 745 m 0
 903 784 891 804 868 804 c 0
 839 804 794 772 722 705 c 0
 662 650 578 590 535 571 c 0
 480 547 452 518 452 491 c 0
 452 466 475 444 522 428 c 0
 559 416 630 376 684 339 c 0
 792 266 892 211 917 211 c 0
 921 211 923 213 923 215 c 0
 924 224 925 251 925 288 c 0
 925 426 917 705 910 745 c 0
EndSplineSet
EndChar

StartChar: bn_bha
Encoding: 2477 2477 43
GlifName: bn_bha
Width: 1712
GlyphClass: 2
Flags: W
AnchorPoint: "abvm" 938 1216 basechar 0
AnchorPoint: "blwm" 1094 -96 basechar 0
LayerCount: 2
Fore
SplineSet
1228 991 m 0
 1293 1025 1354 1043 1407 1044 c 2
 1420 1044 l 2
 1484 1044 1496 1035 1552 961 c 0
 1623 868 1670 710 1670 587 c 0
 1670 560 1668 535 1663 512 c 0
 1615 291 1591 234 1512 154 c 0
 1422 62 1316 -5 1231 -24 c 0
 1199 -31 1170 -44 1164 -53 c 0
 1157 -65 1124 -70 1086 -70 c 0
 1034 -70 973 -60 959 -42 c 0
 947 -27 908 -15 874 -15 c 0
 833 -15 793 0 758 30 c 0
 728 56 695 75 683 75 c 0
 658 75 346 377 256 489 c 0
 220 533 169 615 142 669 c 0
 115 723 77 787 59 811 c 0
 36 841 26 866 26 885 c 0
 26 908 41 920 66 920 c 0
 90 920 124 908 163 882 c 0
 217 845 232 822 304 671 c 0
 358 557 640 307 785 243 c 0
 819 228 887 221 963 221 c 0
 1027 221 1097 226 1158 237 c 0
 1244 253 1267 267 1367 370 c 0
 1444 449 1478 498 1478 541 c 0
 1478 564 1469 585 1452 608 c 0
 1438 626 1426 654 1426 667 c 0
 1425 710 1350 777 1303 777 c 0
 1279 777 1223 748 1182 714 c 0
 1139 678 1086 651 1060 651 c 0
 1035 651 1009 643 1003 633 c 0
 996 621 964 615 935 615 c 0
 910 615 887 619 881 629 c 0
 876 638 821 651 760 656 c 0
 658 665 643 672 572 746 c 0
 492 831 430 938 430 988 c 0
 430 993 431 998 432 1002 c 0
 438 1018 446 1027 460 1027 c 0
 478 1027 507 1013 555 984 c 0
 731 880 834 833 915 833 c 0
 965 833 1007 850 1052 883 c 0
 1094 913 1174 963 1228 991 c 0
1568 1430 m 1
 1744 1420 1783 1406 1783 1353 c 0
 1783 1275 1726 1206 1666 1206 c 0
 1662 1206 1658 1206 1654 1207 c 0
 1646 1208 1610 1209 1574 1209 c 0
 737 1213 576 1218 543 1234 c 0
 527 1242 501 1241 489 1233 c 0
 476 1225 359 1218 228 1218 c 2
 -9 1218 l 1
 -27 1271 l 2
 -34 1291 -38 1319 -38 1346 c 0
 -38 1360 -36 1373 -34 1385 c 2
 -22 1447 l 1
 647 1441 l 1
 1568 1430 l 1
EndSplineSet
EndChar

StartChar: bn_ma
Encoding: 2478 2478 44
GlifName: bn_ma
Width: 1435
GlyphClass: 2
Flags: W
AnchorPoint: "abvm" 786 1228 basechar 0
AnchorPoint: "blwm" 1107 -161 basechar 0
LayerCount: 2
Fore
SplineSet
29 1469 m 0
 32 1471 39 1472 48 1472 c 0
 71 1472 111 1466 151 1456 c 0
 220 1439 543 1430 838 1430 c 0
 1094 1430 1327 1437 1355 1451 c 0
 1365 1456 1375 1458 1384 1458 c 0
 1434 1458 1477 1392 1477 1331 c 0
 1477 1305 1469 1279 1450 1261 c 0
 1436 1247 1387 1236 1342 1236 c 2
 1260 1236 l 1
 1255 1011 l 2
 1247 646 1240 389 1238 344 c 0
 1238 336 1237 327 1237 318 c 0
 1237 204 1271 35 1305 -16 c 0
 1334 -59 1347 -94 1347 -119 c 0
 1347 -151 1326 -169 1293 -169 c 0
 1250 -169 1184 -140 1114 -76 c 0
 1069 -35 997 16 954 38 c 0
 883 74 731 186 651 261 c 0
 636 275 621 282 604 282 c 0
 592 282 578 279 561 272 c 0
 531 260 499 242 492 230 c 0
 483 216 465 208 438 208 c 0
 400 208 344 223 272 252 c 0
 167 294 120 334 120 393 c 0
 120 418 128 447 144 480 c 0
 184 566 235 609 298 609 c 0
 320 609 344 603 369 593 c 0
 415 574 468 565 513 565 c 0
 554 565 588 573 605 589 c 0
 623 606 632 629 632 655 c 0
 632 703 602 765 545 835 c 0
 497 894 447 942 433 942 c 0
 419 942 359 978 298 1022 c 0
 237 1066 142 1123 87 1149 c 0
 18 1182 -19 1213 -28 1249 c 0
 -30 1257 -31 1268 -31 1279 c 0
 -31 1344 0 1450 29 1469 c 0
1058 1202 m 0
 1005 1253 989 1257 796 1257 c 0
 681 1257 584 1248 577 1236 c 0
 570 1225 540 1216 512 1215 c 0
 444 1213 417 1203 417 1188 c 0
 417 1167 476 1135 551 1101 c 0
 607 1076 733 877 763 770 c 0
 770 744 774 723 774 703 c 0
 774 675 767 649 751 614 c 0
 731 567 719 533 719 501 c 0
 719 441 761 393 863 306 c 0
 947 235 995 202 1018 202 c 0
 1023 202 1026 204 1029 206 c 0
 1041 218 1059 344 1067 485 c 0
 1075 626 1089 834 1098 945 c 0
 1103 1013 1107 1059 1107 1091 c 0
 1107 1153 1094 1167 1058 1202 c 0
EndSplineSet
EndChar

StartChar: bn_ya
Encoding: 2479 2479 45
GlifName: bn_ya
Width: 1280
GlyphClass: 2
Flags: W
AnchorPoint: "abvm" 718 1236 basechar 0
AnchorPoint: "blwm" 1242 -180 basechar 0
LayerCount: 2
Fore
SplineSet
-2 1390 m 0
 21 1420 370 1436 702 1436 c 0
 1006 1436 1295 1423 1305 1395 c 0
 1311 1378 1314 1360 1314 1343 c 0
 1314 1280 1275 1225 1214 1212 c 0
 1129 1193 1099 1171 1099 1056 c 0
 1099 1009 1104 947 1112 863 c 0
 1126 720 1137 495 1137 362 c 2
 1137 121 l 1
 1230 55 l 2
 1290 13 1320 -28 1320 -67 c 0
 1320 -93 1307 -119 1280 -144 c 0
 1264 -159 1250 -167 1234 -167 c 0
 1215 -167 1192 -156 1155 -135 c 0
 1108 -108 1013 -66 939 -39 c 0
 866 -12 680 81 524 168 c 0
 368 255 218 325 189 325 c 0
 127 325 88 369 88 427 c 0
 88 446 92 466 101 486 c 0
 118 527 145 559 164 559 c 0
 182 559 259 591 336 631 c 0
 447 688 475 717 475 773 c 0
 475 887 398 959 184 1049 c 0
 -12 1131 -14 1134 -22 1242 c 0
 -23 1252 -23 1263 -23 1274 c 0
 -23 1325 -15 1373 -2 1390 c 0
910 1185 m 0
 900 1215 869 1227 807 1227 c 2
 785 1227 l 1
 573 1218 475 1199 475 1167 c 0
 475 1149 522 1080 581 1010 c 0
 655 922 692 838 692 758 c 0
 692 694 668 633 621 577 c 0
 584 533 555 480 555 457 c 0
 555 422 809 267 867 267 c 0
 896 267 924 693 924 968 c 0
 924 1073 920 1157 910 1185 c 0
EndSplineSet
EndChar

StartChar: bn_ra
Encoding: 2480 2480 46
GlifName: bn_ra
Width: 1325
GlyphClass: 2
Flags: W
AnchorPoint: "abvm" 964 1228 basechar 0
AnchorPoint: "blwm" 1200 -130 basechar 0
LayerCount: 2
Fore
SplineSet
457 96 m 0
 457 147 495 189 543 189 c 0
 591 189 629 147 629 96 c 0
 629 44 591 2 543 2 c 0
 495 2 457 44 457 96 c 0
467 1478 m 2
 663 1480 821 1481 945 1481 c 0
 1220 1481 1334 1476 1351 1465 c 0
 1362 1458 1372 1427 1372 1397 c 0
 1372 1327 1323 1299 1184 1285 c 2
 1081 1275 l 1
 1082 840 l 2
 1083 600 1090 388 1098 368 c 0
 1106 348 1117 286 1121 229 c 0
 1128 138 1137 117 1203 49 c 0
 1252 -2 1278 -45 1278 -79 c 0
 1278 -107 1269 -130 1259 -130 c 0
 1227 -130 1100 -61 1074 -29 c 0
 1061 -13 1029 2 1007 2 c 0
 984 2 944 18 918 39 c 0
 892 60 860 77 849 77 c 0
 822 77 688 163 608 232 c 0
 574 261 537 285 526 285 c 0
 515 285 470 315 427 351 c 0
 384 387 340 417 331 417 c 0
 314 417 166 511 119 551 c 0
 113 557 109 562 109 569 c 0
 109 582 123 600 154 633 c 0
 186 666 250 712 295 735 c 0
 340 758 380 783 383 790 c 0
 392 809 652 982 673 982 c 0
 682 982 730 1019 781 1064 c 0
 843 1120 863 1143 863 1171 c 0
 863 1178 862 1184 860 1192 c 0
 848 1244 800 1274 737 1274 c 0
 719 1274 699 1271 679 1266 c 0
 642 1256 581 1249 536 1249 c 2
 527 1249 l 1
 501 1249 l 2
 389 1249 183 1234 74 1218 c 0
 52 1215 33 1213 17 1213 c 0
 -11 1213 -30 1218 -42 1228 c 0
 -60 1243 -70 1281 -70 1325 c 0
 -70 1358 -65 1393 -53 1424 c 2
 -34 1473 l 1
 467 1478 l 2
910 771 m 0
 903 810 891 830 868 830 c 0
 839 830 794 798 722 731 c 0
 662 676 578 616 535 597 c 0
 480 573 452 544 452 517 c 0
 452 492 475 470 522 454 c 0
 559 442 630 402 684 365 c 0
 792 292 892 237 917 237 c 0
 921 237 923 239 923 241 c 0
 924 250 925 277 925 314 c 0
 925 452 917 731 910 771 c 0
EndSplineSet
Substitution2: "'ss01' Style Set 1 in Bengali2 lookup 11 subtable" bn_asamia_ra
EndChar

StartChar: bn_la
Encoding: 2482 2482 47
GlifName: bn_la
Width: 1297
GlyphClass: 2
Flags: W
AnchorPoint: "abvm" 1006 1228 basechar 0
AnchorPoint: "blwm" 1030 -52 basechar 0
LayerCount: 2
Fore
SplineSet
175 1448 m 0
 239 1450 309 1451 382 1451 c 0
 779 1451 1270 1424 1307 1394 c 0
 1321 1383 1333 1345 1333 1312 c 0
 1333 1236 1302 1210 1186 1191 c 0
 1096 1176 1055 1148 1055 1100 c 0
 1055 1089 1057 1077 1061 1064 c 0
 1083 993 1134 375 1134 176 c 2
 1134 160 l 2
 1131 0 1118 -26 1033 -26 c 0
 949 -26 912 68 912 288 c 0
 912 307 912 328 913 349 c 0
 914 373 914 396 914 418 c 0
 914 650 873 736 739 806 c 0
 692 831 653 844 601 844 c 0
 549 844 486 831 388 806 c 0
 317 787 268 732 268 684 c 0
 268 667 274 651 287 638 c 0
 302 623 323 616 345 616 c 0
 389 616 439 643 459 687 c 0
 478 730 523 759 559 759 c 0
 569 759 579 757 587 752 c 0
 602 743 609 721 609 692 c 0
 609 653 596 603 572 562 c 0
 531 493 399 413 324 413 c 0
 238 413 111 496 73 577 c 0
 58 609 50 646 50 683 c 0
 50 790 111 907 212 975 c 0
 278 1020 378 1042 479 1042 c 0
 590 1042 701 1015 767 963 c 0
 796 941 840 918 863 914 c 0
 868 913 873 912 877 912 c 0
 903 912 907 936 912 1031 c 0
 913 1047 913 1062 913 1075 c 0
 913 1201 867 1224 641 1224 c 2
 583 1224 l 2
 456 1222 359 1221 282 1221 c 0
 41 1221 13 1233 -17 1279 c 0
 -33 1304 -43 1335 -43 1363 c 0
 -43 1371 -42 1380 -40 1387 c 0
 -27 1438 -18 1442 175 1448 c 0
EndSplineSet
Substitution2: "'ss01' Style Set 1 in Bengali2 lookup 11 subtable" bn_la.alt
EndChar

StartChar: bn_sha
Encoding: 2486 2486 48
GlifName: bn_sha
Width: 1386
GlyphClass: 2
Flags: W
AnchorPoint: "abvm" 986 1236 basechar 0
AnchorPoint: "blwm" 1278 -156 basechar 0
LayerCount: 2
Fore
SplineSet
1132 1590 m 0
 1149 1602 1175 1613 1185 1613 c 0
 1207 1613 1225 1566 1241 1466 c 1
 1260 1466 1283 1454 1306 1454 c 2
 1386 1454 l 2
 1402 1454 1411 1459 1426 1454 c 0
 1447 1447 1464 1445 1474 1426 c 0
 1485 1405 1487 1388 1487 1369 c 0
 1487 1359 1486 1350 1486 1338 c 2
 1486 1331 l 2
 1486 1312 1487 1295 1487 1279 c 0
 1487 1254 1484 1232 1466 1208 c 0
 1460 1200 1452 1197 1444 1197 c 0
 1427 1197 1407 1208 1386 1208 c 0
 1369 1208 1357 1206 1344 1206 c 0
 1337 1206 1330 1207 1322 1208 c 0
 1302 1211 1284 1210 1268 1214 c 1
 1271 1172 1275 1127 1278 1078 c 0
 1291 861 1323 587 1351 464 c 0
 1375 357 1387 259 1387 174 c 0
 1387 69 1369 -17 1333 -76 c 0
 1310 -114 1288 -133 1262 -133 c 0
 1237 -133 1209 -116 1170 -84 c 2
 1107 -31 l 1
 1122 303 l 2
 1125 361 1126 418 1126 472 c 0
 1126 751 1093 970 1039 1028 c 0
 1019 1049 909 1067 842 1067 c 0
 811 1067 789 1063 789 1054 c 0
 789 1048 804 1012 823 973 c 0
 838 943 845 916 845 887 c 0
 845 867 842 845 835 821 c 0
 823 777 813 736 813 733 c 0
 813 730 782 710 743 688 c 0
 711 670 685 661 663 661 c 0
 616 661 588 703 566 796 c 0
 552 855 532 903 525 903 c 0
 524 903 524 903 524 902 c 0
 487 847 405 808 308 792 c 0
 283 788 268 785 256 785 c 0
 233 785 224 796 191 832 c 0
 170 856 160 884 160 911 c 0
 160 962 194 1012 252 1038 c 0
 335 1075 375 1115 375 1145 c 0
 375 1171 346 1188 290 1188 c 0
 265 1188 235 1185 201 1177 c 0
 158 1167 115 1162 87 1162 c 0
 69 1162 57 1164 53 1168 c 0
 33 1188 20 1272 20 1341 c 0
 20 1380 25 1415 34 1430 c 0
 49 1455 80 1466 120 1466 c 0
 214 1466 357 1403 454 1305 c 2
 522 1237 l 1
 582 1299 l 2
 632 1350 671 1362 800 1363 c 2
 820 1363 l 2
 941 1363 968 1353 1026 1293 c 0
 1065 1253 1103 1221 1114 1221 c 0
 1120 1221 1123 1244 1123 1281 c 0
 1123 1311 1121 1351 1117 1395 c 0
 1112 1445 1109 1484 1109 1512 c 0
 1109 1558 1116 1579 1132 1590 c 0
EndSplineSet
EndChar

StartChar: bn_Sha
Encoding: 2487 2487 49
GlifName: bn_S_ha
Width: 1188
GlyphClass: 2
Flags: W
AnchorPoint: "abvm" 686 1232 basechar 0
AnchorPoint: "blwm" 1170 -144 basechar 0
LayerCount: 2
Fore
SplineSet
554 1455 m 0
 576 1462 606 1466 631 1466 c 0
 646 1466 660 1465 671 1462 c 0
 700 1454 845 1440 995 1431 c 2
 1268 1415 l 1
 1276 1330 l 2
 1277 1316 1278 1304 1278 1294 c 0
 1278 1250 1263 1239 1211 1227 c 0
 1172 1218 1122 1205 1104 1200 c 0
 1079 1193 1066 1078 1066 891 c 0
 1066 754 1073 578 1087 378 c 0
 1102 175 1114 133 1167 82 c 0
 1207 44 1228 -1 1228 -40 c 0
 1228 -69 1216 -96 1193 -116 c 0
 1184 -124 1174 -128 1161 -128 c 0
 1133 -128 1092 -109 1018 -65 c 0
 943 -21 861 23 840 32 c 0
 777 57 552 176 412 259 c 0
 339 302 250 350 209 369 c 0
 164 390 140 420 140 451 c 0
 140 478 159 506 196 525 c 0
 300 579 476 773 476 832 c 0
 476 906 248 1088 87 1143 c 0
 -1 1173 -39 1206 -39 1263 c 0
 -39 1289 -31 1319 -17 1357 c 0
 9 1428 13 1428 249 1431 c 0
 381 1432 518 1443 554 1455 c 0
871 1198 m 0
 846 1214 580 1236 471 1236 c 0
 443 1236 425 1235 425 1231 c 0
 425 1222 464 1162 514 1095 c 0
 564 1028 610 955 618 928 c 0
 633 880 767 802 821 802 c 0
 830 802 836 804 840 808 c 0
 859 830 879 1026 879 1132 c 0
 879 1169 877 1194 871 1198 c 0
780 650 m 2
 729 669 695 680 671 680 c 0
 636 680 621 658 603 610 c 0
 577 537 561 490 561 454 c 0
 561 397 599 366 694 302 c 0
 774 247 846 202 853 202 c 0
 860 202 866 295 866 410 c 2
 866 618 l 1
 780 650 l 2
EndSplineSet
EndChar

StartChar: bn_sa
Encoding: 2488 2488 50
GlifName: bn_sa
Width: 1422
GlyphClass: 2
Flags: W
AnchorPoint: "abvm" 978 1240 basechar 0
AnchorPoint: "blwm" 1234 -100 basechar 0
LayerCount: 2
Fore
SplineSet
-15 1423 m 0
 -11 1435 332 1442 683 1442 c 0
 1034 1442 1394 1435 1433 1423 c 0
 1449 1418 1462 1375 1462 1325 c 0
 1462 1253 1453 1237 1414 1237 c 0
 1353 1237 1327 1192 1327 1022 c 0
 1327 940 1333 829 1344 679 c 0
 1361 441 1371 302 1371 214 c 0
 1371 98 1354 68 1315 9 c 0
 1272 -56 1243 -88 1218 -88 c 0
 1197 -88 1180 -66 1159 -24 c 0
 1134 27 1122 69 1122 166 c 0
 1122 229 1127 316 1136 443 c 0
 1139 492 1141 532 1141 566 c 0
 1141 699 1110 730 1000 777 c 0
 966 792 944 799 922 799 c 0
 894 799 867 787 814 760 c 0
 744 724 701 682 678 624 c 0
 644 539 598 507 491 507 c 0
 466 507 438 509 407 512 c 0
 306 522 258 541 202 595 c 0
 161 634 110 666 87 666 c 0
 54 666 23 728 23 776 c 0
 23 790 25 803 31 813 c 0
 37 822 53 826 75 826 c 0
 114 826 169 813 200 790 c 0
 213 780 259 759 302 742 c 0
 331 730 351 723 366 723 c 0
 388 723 403 737 429 770 c 0
 462 811 479 884 479 959 c 0
 479 1035 462 1113 428 1162 c 0
 382 1228 364 1235 205 1242 c 2
 -38 1249 l 1
 -31 1324 l 2
 -27 1366 -20 1409 -15 1423 c 0
1190 1081 m 0
 1182 1158 1168 1226 1157 1234 c 0
 1149 1240 1080 1244 988 1244 c 0
 954 1244 918 1243 880 1242 c 2
 623 1234 l 1
 628 1062 l 2
 631 968 636 890 640 890 c 0
 644 890 691 913 741 940 c 0
 801 972 870 988 932 988 c 0
 987 988 1037 975 1072 950 c 0
 1103 928 1127 916 1146 916 c 0
 1178 916 1194 948 1194 1014 c 0
 1194 1033 1193 1056 1190 1081 c 0
EndSplineSet
EndChar

StartChar: bn_ha
Encoding: 2489 2489 51
GlifName: bn_ha
Width: 942
GlyphClass: 2
Flags: W
LayerCount: 2
Fore
SplineSet
-34 1415 m 0
 -28 1434 81 1442 341 1442 c 2
 432 1442 l 2
 682 1441 902 1438 920 1435 c 0
 942 1432 953 1411 953 1384 c 0
 953 1343 929 1287 888 1259 c 0
 851 1233 813 1223 731 1223 c 0
 697 1223 656 1225 604 1228 c 0
 533 1232 485 1235 453 1235 c 0
 409 1235 396 1230 396 1215 c 0
 396 1208 399 1199 403 1187 c 0
 415 1152 451 1127 506 1118 c 0
 679 1088 786 980 814 806 c 0
 818 781 820 757 820 734 c 0
 820 614 767 516 647 405 c 2
 523 291 l 1
 668 221 l 2
 747 183 845 146 883 137 c 0
 920 129 963 100 976 76 c 0
 989 50 1032 19 1074 3 c 0
 1131 -18 1148 -40 1148 -92 c 0
 1148 -145 1134 -171 1097 -171 c 0
 1068 -171 1024 -154 960 -122 c 0
 891 -87 791 -46 733 -29 c 0
 676 -12 623 14 613 29 c 0
 604 44 543 79 481 107 c 0
 191 237 139 272 86 376 c 0
 57 433 33 489 33 499 c 0
 33 512 52 518 78 518 c 0
 111 518 154 509 186 491 c 0
 237 463 290 449 340 449 c 0
 495 449 628 573 628 754 c 0
 628 806 615 831 596 831 c 0
 578 831 554 807 533 757 c 0
 503 687 438 649 371 649 c 0
 319 649 267 672 231 720 c 0
 199 763 186 796 186 845 c 0
 186 861 187 878 190 898 c 0
 197 955 216 1006 231 1011 c 0
 247 1017 255 1034 255 1058 c 0
 255 1088 243 1127 219 1163 c 0
 192 1203 150 1222 76 1228 c 0
 -18 1235 -30 1244 -37 1310 c 0
 -39 1327 -39 1344 -39 1360 c 0
 -39 1384 -38 1405 -34 1415 c 0
EndSplineSet
EndChar

StartChar: bn_nukta
Encoding: 2492 2492 52
GlifName: bn_nukta
Width: 0
GlyphClass: 2
Flags: W
AnchorPoint: "blwm" 896 6 basechar 0
LayerCount: 2
Fore
SplineSet
-108 -258 m 0
 -108 -194 -60 -141 0 -141 c 0
 60 -141 108 -194 108 -258 c 0
 108 -322 60 -375 0 -375 c 0
 -60 -375 -108 -322 -108 -258 c 0
EndSplineSet
EndChar

StartChar: bn_abagraha
Encoding: 2493 2493 53
GlifName: bn_abagraha
Width: 942
GlyphClass: 2
Flags: W
LayerCount: 2
Fore
SplineSet
-34 1415 m 0
 -32 1432 10 1437 111 1437 c 1
 403 1187 l 1
 415 1152 451 1127 506 1118 c 0
 679 1088 786 980 814 806 c 0
 818 781 820 757 820 734 c 0
 820 614 767 516 647 405 c 2
 523 291 l 1
 668 221 l 2
 747 183 845 146 883 137 c 0
 920 129 963 100 976 76 c 0
 989 50 1032 19 1074 3 c 0
 1131 -18 1148 -40 1148 -92 c 0
 1148 -145 1134 -171 1097 -171 c 0
 1068 -171 1024 -154 960 -122 c 0
 891 -87 791 -46 733 -29 c 0
 676 -12 623 14 613 29 c 0
 604 44 543 79 481 107 c 0
 191 237 139 272 86 376 c 0
 57 433 33 489 33 499 c 0
 33 512 52 518 78 518 c 0
 111 518 154 509 186 491 c 0
 237 463 290 449 340 449 c 0
 495 449 628 573 628 754 c 0
 628 806 615 831 596 831 c 0
 578 831 554 807 533 757 c 0
 503 687 438 649 371 649 c 0
 319 649 267 672 231 720 c 0
 199 763 186 796 186 845 c 0
 186 861 187 878 190 898 c 0
 197 955 216 1006 231 1011 c 0
 247 1017 255 1034 255 1058 c 0
 255 1088 243 1127 219 1163 c 0
 192 1203 150 1222 76 1228 c 0
 -18 1235 -30 1244 -37 1310 c 0
 -38 1321 -39 1333 -39 1344 c 0
 -39 1374 -35 1402 -34 1415 c 0
EndSplineSet
EndChar

StartChar: bn_aakaar
Encoding: 2494 2494 54
GlifName: bn_aakaar
Width: 586
GlyphClass: 2
Flags: W
LayerCount: 2
Fore
SplineSet
390 1434 m 0
 393 1434 396 1435 399 1435 c 0
 429 1435 442 1418 481 1418 c 0
 503 1418 534 1423 582 1440 c 0
 586 1441 589 1442 592 1442 c 0
 625 1442 643 1379 643 1322 c 0
 643 1274 631 1230 606 1230 c 0
 558 1230 507 1217 459 1217 c 0
 437 1217 417 1219 396 1227 c 0
 356 1242 334 1296 334 1345 c 0
 334 1389 352 1430 390 1434 c 0
252 1668 m 0
 260 1700 275 1710 313 1710 c 0
 375 1710 391 1675 417 1494 c 1
 453 1122 l 1
 471 1055 491 627 491 344 c 0
 491 313 490 285 490 258 c 0
 487 70 457 -10 390 -10 c 0
 338 -10 332 7 310 209 c 0
 304 267 300 321 300 373 c 0
 300 421 303 466 309 511 c 0
 319 586 328 754 328 884 c 2
 328 926 l 2
 328 1084 322 1128 300 1152 c 0
 284 1170 265 1180 258 1175 c 1
 50 1247 l 1
 -3 1258 -4 1262 -4 1353 c 2
 -4 1447 l 1
 58 1447 l 2
 93 1447 147 1435 182 1420 c 0
 217 1405 255 1394 269 1394 c 0
 285 1394 292 1416 292 1447 c 0
 292 1480 284 1523 267 1563 c 0
 256 1589 250 1622 250 1646 c 0
 250 1655 250 1662 252 1668 c 0
EndSplineSet
EndChar

StartChar: bn_ikaar
Encoding: 2495 2495 55
GlifName: bn_ikaar
Width: 431
GlyphClass: 2
Flags: HW
LayerCount: 2
Fore
SplineSet
316.298029414 1096.67915983 m 0
 316.298029414 1079.60295735 315.479740823 1060.65458875 315.479740823 1043.7330423 c 0
 315.479740823 1018.01373619 316.58417798 994.650387127 318.330479903 978.232174555 c 0
 319.491327628 967.318228652 321.4549129 959.035822472 321.871080811 957.712750359 c 0
 325.271592556 952.2740707 325.368679639 948.51087276 326.356680288 941.610914756 c 0
 327.457319303 933.9243176 328.417208448 923.521824246 329.332819438 910.40850555 c 0
 331.388848131 880.962201609 333.147489018 838.045721822 334.614855968 786.485493415 c 0
 337.915310348 670.514378124 339.713711557 511.008444664 339.713711557 366.259525957 c 0
 339.713711557 262.088989698 338.783658083 165.613574172 336.799493213 98.41546366 c 0
 335.917012553 68.5283137723 334.833948506 44.4727634404 333.49373926 27.7972345321 c 0
 332.895908381 20.3587348212 332.264335198 14.4228404244 331.472691105 9.69364358331 c 0
 330.833855164 5.87730623738 330.9440988 3.08736414644 327.664245559 -2.03740654188 c 0
 321.597837447 -11.5703335747 311.925209681 -16.7791523926 301.914506264 -20.7948167452 c 0
 289.124468946 -25.9253749869 273.946138672 -29 259 -29 c 0
 211.804611461 -29 189.163192313 7.13034436987 170.617434084 44.2218608282 c 0
 147.57315923 89.5902769474 135.350780545 176.76751281 135.350780545 243.59802052 c 0
 135.350780545 263.47274452 136.474408915 281.531604165 139.067412815 296.531494921 c 0
 141.144179991 308.545083015 143.863068209 319.152308998 149.658610294 327.523647565 c 0
 154.454251176 334.450684395 160.651742116 352.907146218 164.829830165 377.233433438 c 0
 170.043966696 407.591956621 172.930782782 446.844726107 172.930782782 486.808067061 c 0
 172.930782782 532.419256877 169.128050254 579.211011954 161.327279075 614.871680199 c 0
 152.729442381 655.332088173 148.25 686.414407072 148.25 716 c 0
 148.25 745.561693933 152.802502107 773.085694372 161.472783478 805.749257472 c 0
 168.995700103 835.855976331 172.650503097 856.994474458 172.650503788 877.390284862 c 0
 172.650503788 902.317465497 167.191291377 927.726632785 154.649106295 968.6250624 c 0
 142.362250341 1008.92594993 135.492786683 1033.57119869 135.492786683 1056.82731449 c 0
 135.492786683 1081.30792269 143.737878446 1101.01969756 157.574845003 1128.69363067 c 0
 170.52046655 1154.58487377 175.393292027 1169.94959812 175.393292027 1178.73155948 c 0
 175.393292027 1185.50068195 173.550253789 1190.14686417 166.66146526 1198.18378412 c 0
 160.338981568 1205.47895761 149.327416526 1210.29922049 137.877078686 1210.29922049 c 0
 133.990872672 1210.29922049 130.086016954 1209.75265558 126.396740279 1208.65538215 c 0
 120.255938542 1206.73298325 113.815190152 1206.00790542 107.159339152 1206.00790542 c 0
 65.103640909 1206.00790542 13.5758021543 1235.04307731 -2.35585858853 1265.52085127 c 0
 -8.6515705451 1277.56474858 -10.9395804342 1290.95135342 -10.9395804342 1306.00235043 c 0
 -10.9395804342 1312.1050942 -10.5781833571 1318.48972861 -9.93789178525 1325.37286301 c 0
 -8.09037756767 1345.6955194 -4.86390192936 1362.04801855 4.30347173295 1375.69590924 c 0
 16.0119370783 1393.12683997 34.7905436188 1401.57787406 59.9723270469 1408.45237966 c 0
 108.661828086 1422.28794539 133.4928761 1432.60965699 145.033957763 1443.28438404 c 0
 153.815698946 1451.40690605 157.627969467 1460.79870064 160.134648722 1480.01657493 c 0
 162.060407535 1494.32221182 169.51876914 1507.66558388 179.537517838 1520.41515516 c 0
 217.171475631 1568.30704682 309.437876576 1624 376 1624 c 0
 393.539378763 1624 418.704815368 1629.44202311 427.801646611 1637.0044757 c 0
 435.795329512 1644.75565059 446.604739543 1648.25174595 459.319447126 1651.89521119 c 0
 499.03245884 1663.27517335 542.251170554 1664.85296149 595.558518588 1664.85296149 c 0
 680.006185528 1664.85296149 784.733008659 1657.59211856 867.738925988 1647.05875111 c 0
 904.647512921 1642.37508854 937.212875822 1637.06110037 962.099219463 1631.31845441 c 0
 982.056407342 1626.71323535 997.055095938 1622.32222566 1007.43526649 1615.40211196 c 0
 1027.53207195 1601.6997446 1077.77268678 1590 1111 1590 c 0
 1166.25695665 1590 1224.57411214 1566.34826709 1259.24035928 1537.90794059 c 0
 1276.18348276 1524.00773496 1290.31348633 1507.33291125 1290.31348633 1487.32933297 c 0
 1290.31348633 1477.31516692 1286.04439453 1467.66535171 1278.5326145 1460.32368225 c 0
 1268.12546283 1449.94885499 1254.64075408 1443.51272293 1237.47120912 1443.51272293 c 0
 1217.64942772 1443.51272293 1193.68047218 1450.14162058 1155.36025388 1462.73254944 c 0
 1051.33503479 1496.5820255 935.857190385 1518.66731739 875.07406776 1518.66731739 c 0
 863.322627708 1518.66731739 853.747848545 1517.79937335 847.391012345 1516.38515358 c 0
 838.594789902 1514.2843294 829.522967913 1513.27237399 820.547212579 1513.27237361 c 0
 800.451562697 1513.27237361 780.091058006 1517.99097879 765.601728069 1530.3028042 c 0
 759.28016706 1534.9180638 740.109284208 1539.71900064 713.29361859 1539.71900064 c 0
 656.670336913 1539.71900064 572.048679459 1522.1449509 509.293951594 1493.38236729 c 0
 486.013443187 1482.59383901 462.237336215 1473.11124982 442.849470724 1466.68181828 c 0
 427.211406875 1461.49590128 415.203620354 1458 405 1458 c 0
 403.261113749 1458 396.487024535 1456.26623795 388.7694091 1451.96492824 c 0
 375.043148506 1444.31478053 356.999602513 1427.47531372 347.909805127 1415.01807253 c 0
 347.237677356 1414.09694553 346.773596738 1413.39709048 346.453377653 1412.87233985 c 0
 348.196909093 1411.28128926 352.139749966 1408.26795479 358.584976514 1404.61944813 c 0
 368.636586916 1398.92944373 384.068670185 1391.55860606 405.297892592 1381.61580569 c 0
 433.893958588 1368.35386204 452.655693753 1358.91884853 465.396310178 1348.87940696 c 0
 475.451852722 1340.95576901 483.200231749 1330.71332802 483.200231749 1317.78166685 c 0
 483.200231749 1308.12012144 479.410500315 1300.17094066 475.049601622 1292.60223531 c 0
 467.199901781 1278.63363954 452.825799583 1269.99835322 437.811340494 1263.80010271 c 0
 418.674241885 1255.89995102 396.346085528 1251.6634579 376.465660423 1251.6634579 c 0
 361.094053522 1251.6634579 345.738356038 1253.5251838 334.37255844 1263.12669261 c 0
 328.959378049 1267.69959642 324.860234925 1274.58641269 324.119810239 1282.44984642 c 0
 321.545586647 1283.57876931 314.742442081 1285.5340441 306.255333902 1285.5340441 c 0
 293.726833734 1285.5340441 276.76408897 1281.78421498 271.045436036 1275.44546646 c 0
 271.019235188 1275.17558795 270.996337146 1274.80406006 270.996337082 1274.34837802 c 0
 270.996337082 1267.11545624 277.063653074 1248.59796001 287.356749654 1233.50141836 c 0
 308.227193484 1203.23927481 316.298029414 1160.79393561 316.298029414 1096.67915983 c 0
EndSplineSet
EndChar

StartChar: bn_iikaar
Encoding: 2496 2496 56
GlifName: bn_iikaar
Width: 697
GlyphClass: 2
Flags: W
LayerCount: 2
Fore
SplineSet
-32 1862 m 0
 -13 1869 42 1875 89 1876 c 2
 98 1876 l 2
 160 1876 194 1865 243 1832 c 0
 331 1772 414 1656 414 1596 c 0
 414 1514 432 1492 500 1491 c 0
 535 1491 578 1479 597 1465 c 0
 616 1451 649 1440 672 1440 c 0
 707 1440 712 1431 712 1370 c 0
 712 1312 706 1300 679 1300 c 0
 661 1300 605 1280 556 1255 c 2
 467 1211 l 1
 467 1046 l 2
 467 955 460 862 451 839 c 0
 442 816 432 681 429 537 c 2
 423 276 l 1
 516 281 l 2
 526 281 535 282 544 282 c 0
 628 282 659 259 659 202 c 0
 659 111 577 23 491 22 c 0
 451 22 419 42 354 109 c 2
 269 195 l 1
 275 419 l 2
 278 542 282 770 282 924 c 2
 283 1204 l 1
 213 1209 l 2
 174 1212 128 1227 111 1243 c 0
 97 1256 87 1263 76 1263 c 0
 67 1263 58 1259 46 1251 c 0
 35 1244 27 1240 22 1240 c 0
 12 1240 12 1255 12 1295 c 0
 12 1332 7 1377 2 1397 c 0
 0 1403 -1 1409 -1 1413 c 0
 -1 1432 20 1434 101 1436 c 0
 161 1438 221 1449 234 1460 c 0
 249 1473 257 1491 257 1511 c 0
 257 1545 236 1586 197 1625 c 0
 144 1678 127 1685 48 1685 c 0
 -36 1685 -44 1680 -93 1612 c 0
 -122 1572 -146 1530 -146 1517 c 0
 -146 1501 -171 1493 -199 1493 c 0
 -224 1493 -251 1499 -265 1513 c 0
 -279 1527 -285 1557 -285 1592 c 0
 -285 1639 -273 1695 -252 1727 c 0
 -223 1771 -132 1827 -32 1862 c 0
EndSplineSet
EndChar

StartChar: bn_ukaar
Encoding: 2497 2497 57
GlifName: bn_ukaar
Width: 0
GlyphClass: 4
Flags: W
AnchorPoint: "blwm" -647 -3 mark 0
LayerCount: 2
Fore
SplineSet
-750 -111 m 2
 -750 34 l 1
 -631 27 l 2
 -543 22 -496 -5 -496 -43 c 0
 -496 -61 -506 -82 -528 -104 c 0
 -555 -132 -571 -231 -571 -316 c 0
 -571 -378 -562 -433 -544 -445 c 0
 -526 -457 -465 -499 -411 -536 c 0
 -302 -611 -61 -677 195 -703 c 0
 327 -716 366 -729 373 -763 c 0
 374 -769 375 -775 375 -781 c 0
 375 -850 285 -899 149 -899 c 0
 76 -899 6 -889 -3 -877 c 0
 -12 -864 -80 -838 -156 -819 c 0
 -232 -800 -358 -747 -440 -699 c 0
 -522 -651 -603 -613 -623 -613 c 0
 -643 -613 -696 -639 -741 -671 c 0
 -799 -712 -866 -732 -954 -732 c 0
 -1005 -732 -1063 -725 -1130 -712 c 0
 -1185 -701 -1222 -691 -1222 -688 c 2
 -1222 -688 -1221 -687 -1220 -687 c 0
 -1218 -687 -1217 -685 -1217 -683 c 0
 -1217 -672 -1237 -641 -1269 -606 c 0
 -1315 -555 -1337 -528 -1337 -495 c 0
 -1337 -466 -1319 -432 -1284 -374 c 0
 -1232 -286 -1131 -235 -1026 -235 c 0
 -991 -235 -955 -241 -921 -253 c 0
 -880 -267 -849 -275 -825 -275 c 0
 -766 -275 -750 -228 -750 -111 c 2
-905 -402 m 0
 -952 -384 -1009 -375 -1055 -375 c 0
 -1086 -375 -1112 -379 -1124 -389 c 0
 -1135 -398 -1144 -452 -1144 -509 c 0
 -1144 -612 -1143 -613 -1050 -613 c 0
 -988 -613 -934 -594 -895 -558 c 0
 -856 -523 -837 -493 -837 -468 c 0
 -837 -441 -860 -419 -905 -402 c 0
EndSplineSet
EndChar

StartChar: bn_uukaar
Encoding: 2498 2498 58
GlifName: bn_uukaar
Width: 0
GlyphClass: 4
Flags: W
AnchorPoint: "blwm" -964 2 mark 0
LayerCount: 2
Fore
SplineSet
-1041 -99 m 0
 -1009 -33 -962 5 -922 5 c 0
 -901 5 -883 -5 -868 -26 c 0
 -865 -30 -864 -36 -864 -44 c 0
 -864 -70 -878 -116 -902 -160 c 0
 -927 -207 -940 -234 -940 -256 c 0
 -940 -279 -926 -296 -896 -327 c 0
 -854 -371 -811 -392 -773 -392 c 0
 -708 -392 -655 -331 -627 -217 c 0
 -611 -151 -599 -129 -560 -129 c 0
 -547 -129 -532 -131 -512 -135 c 0
 -460 -145 -383 -178 -334 -211 c 0
 -285 -244 -209 -283 -157 -301 c 0
 -105 -319 -58 -351 -47 -375 c 0
 -37 -398 23 -438 85 -462 c 0
 247 -525 507 -748 507 -819 c 0
 507 -822 506 -825 505 -828 c 0
 491 -861 444 -875 390 -875 c 0
 284 -875 147 -822 147 -752 c 0
 147 -720 100 -675 35 -645 c 0
 -27 -616 -114 -559 -162 -515 c 0
 -208 -472 -284 -409 -326 -378 c 0
 -356 -356 -374 -343 -394 -343 c 0
 -426 -343 -461 -376 -551 -462 c 0
 -681 -586 -716 -603 -840 -603 c 0
 -1019 -603 -1113 -515 -1113 -366 c 0
 -1113 -291 -1090 -201 -1041 -99 c 0
EndSplineSet
EndChar

StartChar: bn_rikaar
Encoding: 2499 2499 59
GlifName: bn_rikaar
Width: 0
GlyphClass: 4
Flags: W
AnchorPoint: "blwm" -332 2 mark 0
LayerCount: 2
Fore
SplineSet
-466 -31 m 0
 -457 6 -436 15 -356 15 c 0
 -270 15 -258 8 -248 -42 c 0
 -246 -52 -245 -62 -245 -71 c 0
 -245 -127 -279 -165 -329 -165 c 0
 -336 -165 -343 -164 -350 -163 c 0
 -358 -162 -366 -161 -373 -161 c 0
 -406 -161 -433 -177 -470 -216 c 0
 -504 -252 -555 -281 -584 -281 c 0
 -628 -281 -653 -288 -653 -308 c 0
 -653 -344 -573 -422 -393 -576 c 0
 -327 -632 -263 -683 -252 -687 c 0
 -241 -691 -216 -725 -198 -759 c 0
 -182 -789 -175 -817 -175 -839 c 0
 -175 -882 -201 -907 -242 -907 c 0
 -271 -907 -307 -894 -347 -866 c 0
 -389 -836 -523 -717 -641 -602 c 0
 -759 -487 -883 -380 -914 -365 c 0
 -950 -348 -971 -318 -971 -283 c 0
 -971 -206 -725 -76 -579 -76 c 0
 -495 -76 -475 -68 -466 -31 c 0
EndSplineSet
EndChar

StartChar: bn_rrikaar
Encoding: 2500 2500 60
GlifName: bn_rrikaar
Width: 0
GlyphClass: 4
Flags: W
AnchorPoint: "blwm" -369 -12 mark 0
LayerCount: 2
Fore
SplineSet
-784 -385 m 0
 -775 -348 -754 -339 -674 -339 c 0
 -588 -339 -576 -346 -566 -396 c 0
 -564 -406 -563 -416 -563 -425 c 0
 -563 -481 -597 -519 -647 -519 c 0
 -654 -519 -661 -518 -668 -517 c 0
 -676 -516 -684 -515 -691 -515 c 0
 -724 -515 -751 -531 -788 -570 c 0
 -822 -606 -873 -635 -902 -635 c 0
 -946 -635 -971 -642 -971 -662 c 0
 -971 -698 -891 -776 -711 -930 c 0
 -645 -986 -581 -1037 -570 -1041 c 0
 -559 -1045 -534 -1079 -516 -1113 c 0
 -500 -1143 -493 -1171 -493 -1193 c 0
 -493 -1236 -519 -1261 -560 -1261 c 0
 -589 -1261 -625 -1248 -665 -1220 c 0
 -707 -1190 -841 -1071 -959 -956 c 0
 -1077 -841 -1201 -734 -1232 -719 c 0
 -1268 -702 -1289 -672 -1289 -637 c 0
 -1289 -560 -1043 -430 -897 -430 c 0
 -813 -430 -793 -422 -784 -385 c 0
-466 -31 m 0
 -457 6 -436 15 -356 15 c 0
 -270 15 -258 8 -248 -42 c 0
 -246 -52 -245 -62 -245 -71 c 0
 -245 -127 -279 -165 -329 -165 c 0
 -336 -165 -343 -164 -350 -163 c 0
 -358 -162 -366 -161 -373 -161 c 0
 -406 -161 -433 -177 -470 -216 c 0
 -504 -252 -555 -281 -584 -281 c 0
 -628 -281 -653 -288 -653 -308 c 0
 -653 -344 -573 -422 -393 -576 c 0
 -327 -632 -263 -683 -252 -687 c 0
 -241 -691 -216 -725 -198 -759 c 0
 -182 -789 -175 -817 -175 -839 c 0
 -175 -882 -201 -907 -242 -907 c 0
 -271 -907 -307 -894 -347 -866 c 0
 -389 -836 -523 -717 -641 -602 c 0
 -759 -487 -883 -380 -914 -365 c 0
 -950 -348 -971 -318 -971 -283 c 0
 -971 -206 -725 -76 -579 -76 c 0
 -495 -76 -475 -68 -466 -31 c 0
EndSplineSet
EndChar

StartChar: bn_ekaar
Encoding: 2503 2503 61
GlifName: bn_ekaar
Width: 828
GlyphClass: 2
Flags: W
LayerCount: 2
Fore
SplineSet
-114 1359 m 0
 -101 1415 -56 1441 0 1455 c 0
 33 1463 62 1466 89 1466 c 0
 144 1466 193 1455 259 1455 c 2
 270 1455 l 2
 395 1458 617 1466 617 1470 c 2
 617 1470 615 1471 613 1471 c 1
 639 1474 667 1476 696 1476 c 2
 828 1477 l 1
 828 1337 l 2
 828 1231 825 1205 801 1205 c 0
 796 1205 790 1206 782 1208 c 0
 774 1210 763 1211 750 1211 c 0
 723 1211 688 1207 660 1200 c 0
 398 1134 401 1135 358 1047 c 0
 332 993 311 887 305 770 c 0
 303 734 302 703 302 676 c 0
 302 587 313 536 343 460 c 0
 369 393 402 293 415 238 c 0
 428 183 473 101 514 56 c 0
 560 6 578 -12 606 -12 c 0
 622 -12 642 -6 672 5 c 0
 700 15 724 20 745 20 c 0
 800 20 828 -16 828 -90 c 0
 828 -163 782 -201 703 -201 c 0
 650 -201 581 -184 502 -149 c 0
 333 -74 278 0 151 329 c 0
 103 453 92 523 92 691 c 0
 92 806 102 905 115 913 c 0
 127 920 138 966 138 1012 c 0
 138 1072 161 1142 198 1207 c 1
 180 1209 161 1209 142 1209 c 0
 90 1208 49 1191 7 1191 c 0
 -14 1191 -35 1196 -58 1209 c 0
 -100 1234 -119 1273 -119 1318 c 0
 -119 1331 -117 1345 -114 1359 c 0
EndSplineSet
Substitution2: "'init' Initial Forms in Bengali2 lookup 0 subtable" bn_ekaar_init
EndChar

StartChar: bn_aikaar
Encoding: 2504 2504 62
GlifName: bn_aikaar
Width: 724
GlyphClass: 2
Flags: W
LayerCount: 2
Fore
SplineSet
145 2134 m 0
 180 2169 199 2183 222 2183 c 0
 236 2183 252 2178 274 2168 c 0
 333 2142 357 2097 357 2011 c 0
 357 1996 357 1979 355 1961 c 2
 349 1886 l 1
 569 1878 l 2
 592 1877 614 1877 636 1877 c 0
 730 1877 806 1884 820 1895 c 0
 864 1931 959 1955 1042 1955 c 0
 1072 1955 1100 1952 1124 1945 c 0
 1191 1926 1206 1921 1206 1864 c 0
 1206 1848 1205 1829 1203 1804 c 0
 1196 1697 1189 1683 1109 1644 c 0
 927 1555 851 1525 770 1510 c 0
 725 1502 681 1477 674 1456 c 0
 673 1452 672 1449 672 1446 c 0
 672 1432 689 1426 746 1426 c 0
 788 1426 852 1429 947 1435 c 2
 1233 1452 l 1
 1233 1345 l 2
 1233 1221 1219 1180 1149 1180 c 0
 1131 1180 1108 1183 1081 1188 c 0
 1021 1199 904 1209 822 1210 c 0
 740 1211 658 1223 640 1234 c 0
 631 1240 618 1243 604 1243 c 0
 537 1243 427 1179 375 1103 c 0
 329 1036 306 920 306 777 c 0
 306 675 318 560 342 440 c 0
 394 183 425 91 482 91 c 0
 501 91 522 101 548 118 c 0
 574 135 594 144 610 144 c 0
 645 144 657 99 662 -8 c 0
 664 -47 665 -78 665 -103 c 0
 665 -193 648 -195 575 -195 c 0
 508 -195 464 -170 367 -77 c 0
 300 -12 222 93 195 154 c 0
 126 310 90 499 90 673 c 0
 90 809 112 936 157 1031 c 0
 187 1096 212 1160 212 1174 c 0
 212 1189 154 1200 77 1200 c 0
 -49 1200 -105 1232 -105 1308 c 0
 -105 1324 -103 1342 -98 1362 c 0
 -80 1436 32 1475 226 1475 c 0
 321 1475 393 1495 513 1556 c 0
 600 1600 719 1650 775 1667 c 0
 871 1696 920 1739 920 1768 c 0
 920 1786 902 1798 864 1798 c 0
 845 1798 820 1795 790 1788 c 0
 658 1756 561 1740 478 1740 c 0
 421 1740 371 1748 321 1762 c 0
 171 1805 115 1860 96 1981 c 0
 93 2000 91 2016 91 2030 c 0
 91 2070 106 2095 145 2134 c 0
EndSplineSet
Substitution2: "'init' Initial Forms in Bengali2 lookup 0 subtable" bn_aikaar_init
EndChar

StartChar: bn_okaar
Encoding: 2507 2507 63
GlifName: bn_okaar
Width: 1414
GlyphClass: 2
Flags: W
LayerCount: 2
Fore
SplineSet
1218 1434 m 0
 1221 1434 1224 1435 1227 1435 c 0
 1257 1435 1270 1418 1309 1418 c 0
 1331 1418 1362 1423 1410 1440 c 0
 1414 1441 1417 1442 1420 1442 c 0
 1453 1442 1471 1379 1471 1322 c 0
 1471 1274 1459 1230 1434 1230 c 0
 1386 1230 1335 1217 1287 1217 c 0
 1265 1217 1245 1219 1224 1227 c 0
 1184 1242 1162 1296 1162 1345 c 0
 1162 1389 1180 1430 1218 1434 c 0
1080 1668 m 0
 1088 1700 1103 1710 1141 1710 c 0
 1203 1710 1219 1675 1245 1494 c 1
 1281 1122 l 1
 1299 1055 1319 627 1319 344 c 0
 1319 313 1318 285 1318 258 c 0
 1315 70 1285 -10 1218 -10 c 0
 1166 -10 1160 7 1138 209 c 0
 1132 267 1128 321 1128 373 c 0
 1128 421 1131 466 1137 511 c 0
 1147 586 1156 754 1156 884 c 2
 1156 926 l 2
 1156 1084 1150 1128 1128 1152 c 0
 1112 1170 1093 1180 1086 1175 c 1
 878 1247 l 1
 825 1258 824 1262 824 1353 c 2
 824 1447 l 1
 886 1447 l 2
 921 1447 975 1435 1010 1420 c 0
 1045 1405 1083 1394 1097 1394 c 0
 1113 1394 1120 1416 1120 1447 c 0
 1120 1480 1112 1523 1095 1563 c 0
 1084 1589 1078 1622 1078 1646 c 0
 1078 1655 1078 1662 1080 1668 c 0
-114 1359 m 0
 -101 1415 -56 1441 0 1455 c 0
 33 1463 62 1466 89 1466 c 0
 144 1466 193 1455 259 1455 c 2
 270 1455 l 2
 395 1458 617 1466 617 1470 c 2
 617 1470 615 1471 613 1471 c 1
 639 1474 667 1476 696 1476 c 2
 828 1477 l 1
 828 1337 l 2
 828 1231 825 1205 801 1205 c 0
 796 1205 790 1206 782 1208 c 0
 774 1210 763 1211 750 1211 c 0
 723 1211 688 1207 660 1200 c 0
 398 1134 401 1135 358 1047 c 0
 332 993 311 887 305 770 c 0
 303 734 302 703 302 676 c 0
 302 587 313 536 343 460 c 0
 369 393 402 293 415 238 c 0
 428 183 473 101 514 56 c 0
 560 6 578 -12 606 -12 c 0
 622 -12 642 -6 672 5 c 0
 700 15 724 20 745 20 c 0
 800 20 828 -16 828 -90 c 0
 828 -163 782 -201 703 -201 c 0
 650 -201 581 -184 502 -149 c 0
 333 -74 278 0 151 329 c 0
 103 453 92 523 92 691 c 0
 92 806 102 905 115 913 c 0
 127 920 138 966 138 1012 c 0
 138 1072 161 1142 198 1207 c 1
 180 1209 161 1209 142 1209 c 0
 90 1208 49 1191 7 1191 c 0
 -14 1191 -35 1196 -58 1209 c 0
 -100 1234 -119 1273 -119 1318 c 0
 -119 1331 -117 1345 -114 1359 c 0
EndSplineSet
EndChar

StartChar: bn_aukaar
Encoding: 2508 2508 64
GlifName: bn_aukaar
Width: 1332
GlyphClass: 2
Flags: W
LayerCount: 2
Fore
SplineSet
367 2081 m 0
 399 2098 423 2107 440 2107 c 0
 469 2107 479 2080 479 2020 c 0
 479 1907 498 1889 631 1871 c 0
 862 1840 1133 1621 1134 1465 c 2
 1134 1446 l 1
 1192 1445 1254 1441 1322 1434 c 0
 1404 1426 1375 1426 1386 1390 c 0
 1396 1358 1404 1329 1404 1301 c 0
 1404 1276 1398 1252 1380 1227 c 0
 1370 1214 1358 1209 1344 1209 c 0
 1322 1209 1296 1221 1270 1227 c 0
 1261 1229 1252 1230 1243 1230 c 0
 1219 1230 1192 1225 1170 1221 c 1
 1189 1093 1208 869 1214 686 c 0
 1216 624 1225 566 1235 556 c 0
 1245 546 1253 507 1253 469 c 0
 1253 431 1264 380 1277 356 c 0
 1285 341 1289 323 1289 303 c 0
 1289 285 1286 264 1279 244 c 0
 1267 206 1252 139 1244 91 c 0
 1236 43 1214 -15 1194 -40 c 0
 1176 -62 1167 -74 1158 -74 c 0
 1149 -74 1139 -62 1120 -38 c 0
 1098 -10 1089 32 1089 172 c 0
 1089 235 1091 317 1094 427 c 0
 1101 656 1109 854 1112 867 c 0
 1114 875 1115 885 1115 896 c 0
 1115 973 1066 1115 1017 1170 c 0
 963 1231 842 1291 788 1291 c 0
 776 1291 768 1288 764 1282 c 0
 757 1270 692 1260 623 1260 c 0
 497 1260 495 1261 486 1340 c 2
 477 1420 l 1
 704 1420 l 2
 830 1420 955 1411 985 1400 c 0
 1001 1394 1012 1391 1020 1391 c 0
 1034 1391 1039 1400 1039 1422 c 0
 1039 1477 880 1665 834 1665 c 0
 815 1665 801 1673 801 1683 c 0
 801 1693 739 1715 665 1732 c 0
 389 1795 348 1811 309 1870 c 0
 292 1897 283 1925 283 1952 c 0
 283 2003 313 2052 367 2081 c 0
-114 1359 m 0
 -101 1415 -56 1441 0 1455 c 0
 33 1463 62 1466 89 1466 c 0
 144 1466 193 1455 259 1455 c 2
 270 1455 l 2
 395 1458 617 1466 617 1470 c 2
 617 1470 615 1471 613 1471 c 1
 639 1474 667 1476 696 1476 c 2
 828 1477 l 1
 828 1337 l 2
 828 1231 825 1205 801 1205 c 0
 796 1205 790 1206 782 1208 c 0
 774 1210 763 1211 750 1211 c 0
 723 1211 688 1207 660 1200 c 0
 398 1134 401 1135 358 1047 c 0
 332 993 311 887 305 770 c 0
 303 734 302 703 302 676 c 0
 302 587 313 536 343 460 c 0
 369 393 402 293 415 238 c 0
 428 183 473 101 514 56 c 0
 560 6 578 -12 606 -12 c 0
 622 -12 642 -6 672 5 c 0
 700 15 724 20 745 20 c 0
 800 20 828 -16 828 -90 c 0
 828 -163 782 -201 703 -201 c 0
 650 -201 581 -184 502 -149 c 0
 333 -74 278 0 151 329 c 0
 103 453 92 523 92 691 c 0
 92 806 102 905 115 913 c 0
 127 920 138 966 138 1012 c 0
 138 1072 161 1142 198 1207 c 1
 180 1209 161 1209 142 1209 c 0
 90 1208 49 1191 7 1191 c 0
 -14 1191 -35 1196 -58 1209 c 0
 -100 1234 -119 1273 -119 1318 c 0
 -119 1331 -117 1345 -114 1359 c 0
EndSplineSet
EndChar

StartChar: bn_hasanta
Encoding: 2509 2509 65
GlifName: bn_hasanta
Width: 0
GlyphClass: 4
Flags: W
AnchorPoint: "blwm" -421 -1 mark 0
LayerCount: 2
Fore
SplineSet
-290 -131 m 1
 -202 -55 l 1
 -104 -110 -46 -134 48 -195 c 0
 83 -218 102 -236 128 -268 c 0
 150 -295 172 -312 172 -347 c 0
 172 -377 158 -410 128 -411 c 2
 121 -411 l 2
 72 -411 45 -383 0 -355 c 0
 -32 -335 -40 -312 -70 -289 c 0
 -108 -260 -133 -250 -172 -222 c 0
 -219 -188 -244 -166 -290 -131 c 1
EndSplineSet
EndChar

StartChar: uni09CE
Encoding: 2510 2510 66
GlifName: uni09C_E_
Width: 1598
GlyphClass: 2
Flags: MW
HStem: -80 250 1220 201<454 564>
VStem: 85 264<1031 1057.5 987 1097.5> 713 231<1016 1149.5>
LayerCount: 2
Fore
SplineSet
315 1401 m 0
 358 1414 423 1421 485 1421 c 0
 502 1421 519 1420 535 1419 c 0
 745 1405 909 1282 941 1113 c 0
 943 1103 944 1093 944 1084 c 0
 944 948 760 840 523 840 c 2
 499 840 l 1
 493 840 l 2
 456 840 438 831 438 809 c 0
 438 790 451 761 479 722 c 0
 551 620 806 379 884 340 c 0
 924 320 980 288 1007 270 c 0
 1034 252 1145 206 1253 170 c 0
 1543 73 1593 50 1593 9 c 0
 1593 -48 1534 -80 1441 -80 c 0
 1408 -80 1370 -76 1329 -67 c 0
 1270 -54 1206 -28 1184 -9 c 0
 1160 13 1116 26 1067 26 c 0
 1023 26 983 34 977 45 c 0
 970 56 953 64 936 64 c 0
 920 64 878 89 844 119 c 0
 810 149 735 189 680 207 c 0
 625 225 548 268 512 300 c 0
 411 389 284 526 284 544 c 0
 284 553 254 589 216 624 c 0
 170 667 142 714 130 769 c 0
 100 905 85 997 85 1065 c 0
 85 1130 99 1172 126 1211 c 0
 139 1230 152 1262 152 1278 c 0
 152 1326 213 1371 315 1401 c 0
681 1188 m 0
 656 1208 595 1220 533 1220 c 0
 497 1220 461 1216 430 1208 c 0
 379 1195 349 1101 349 1014 c 0
 349 960 361 909 387 883 c 0
 396 874 403 868 408 868 c 0
 417 868 422 883 431 919 c 0
 445 974 458 987 521 1000 c 0
 646 1027 682 1046 703 1101 c 0
 709 1118 713 1131 713 1141 c 0
 713 1158 703 1170 681 1188 c 0
EndSplineSet
EndChar

StartChar: bn_auMark
Encoding: 2519 2519 67
GlifName: bn_auM_ark
Width: 504
GlyphClass: 2
Flags: W
LayerCount: 2
Fore
SplineSet
-461 2081 m 0
 -429 2098 -405 2107 -388 2107 c 0
 -359 2107 -349 2080 -349 2020 c 0
 -349 1907 -330 1889 -197 1871 c 0
 34 1840 305 1621 306 1465 c 2
 306 1446 l 1
 364 1445 426 1441 494 1434 c 0
 576 1426 547 1426 558 1390 c 0
 568 1358 576 1329 576 1301 c 0
 576 1276 570 1252 552 1227 c 0
 542 1214 530 1209 516 1209 c 0
 494 1209 468 1221 442 1227 c 0
 433 1229 424 1230 415 1230 c 0
 391 1230 364 1225 342 1221 c 1
 361 1093 380 869 386 686 c 0
 388 624 397 566 407 556 c 0
 417 546 425 507 425 469 c 0
 425 431 436 380 449 356 c 0
 457 341 461 323 461 303 c 0
 461 285 458 264 451 244 c 0
 439 206 424 139 416 91 c 0
 408 43 386 -15 366 -40 c 0
 348 -62 339 -74 330 -74 c 0
 321 -74 311 -62 292 -38 c 0
 270 -10 261 32 261 172 c 0
 261 235 263 317 266 427 c 0
 273 656 281 854 284 867 c 0
 286 875 287 885 287 896 c 0
 287 973 238 1115 189 1170 c 0
 135 1231 14 1291 -40 1291 c 0
 -52 1291 -60 1288 -64 1282 c 0
 -71 1270 -136 1260 -205 1260 c 0
 -331 1260 -333 1261 -342 1340 c 2
 -351 1420 l 1
 -124 1420 l 2
 2 1420 127 1411 157 1400 c 0
 173 1394 184 1391 192 1391 c 0
 206 1391 211 1400 211 1422 c 0
 211 1477 52 1665 6 1665 c 0
 -13 1665 -27 1673 -27 1683 c 0
 -27 1693 -89 1715 -163 1732 c 0
 -439 1795 -480 1811 -519 1870 c 0
 -536 1897 -545 1925 -545 1952 c 0
 -545 2003 -515 2052 -461 2081 c 0
EndSplineSet
EndChar

StartChar: bn_rra
Encoding: 2524 2524 68
GlifName: bn_R_a
Width: 1372
GlyphClass: 3
Flags: W
AnchorPoint: "abvm" 688 1206 basechar 0
AnchorPoint: "blwm" 929 -363 basechar 0
LayerCount: 2
Fore
SplineSet
26 1429 m 0
 34 1442 107 1447 341 1447 c 0
 431 1447 546 1446 689 1445 c 0
 1046 1442 1347 1433 1359 1426 c 0
 1373 1417 1381 1380 1381 1343 c 0
 1381 1308 1375 1274 1361 1260 c 0
 1347 1246 1263 1239 1106 1239 c 0
 941 1239 867 1233 855 1218 c 0
 849 1211 847 1178 847 1131 c 0
 847 998 866 760 885 741 c 0
 887 739 891 738 897 738 c 0
 913 738 941 746 970 761 c 0
 1005 779 1025 787 1047 787 c 0
 1064 787 1082 783 1107 774 c 0
 1143 762 1206 717 1246 677 c 2
 1320 602 l 1
 1326 423 l 1
 1332 245 l 1
 1276 183 l 2
 1245 150 1193 93 1162 60 c 0
 1088 -19 983 -75 916 -75 c 0
 908 -75 901 -75 894 -73 c 0
 868 -67 834 -62 813 -62 c 2
 807 -62 l 2
 780 -63 757 -63 737 -63 c 0
 648 -63 619 -54 556 -18 c 0
 510 8 450 48 426 69 c 0
 401 91 353 125 316 147 c 0
 279 169 249 192 249 198 c 0
 249 204 205 257 151 315 c 0
 43 430 -9 515 -9 579 c 0
 -9 609 2 634 25 655 c 0
 46 674 64 684 81 684 c 0
 107 684 129 662 151 616 c 0
 166 584 191 548 205 536 c 0
 219 524 232 504 232 493 c 0
 232 465 318 376 396 324 c 0
 431 300 462 274 462 267 c 0
 462 260 474 254 486 254 c 0
 499 254 547 234 591 210 c 0
 662 172 728 153 797 153 c 0
 838 153 880 160 925 173 c 0
 1065 214 1150 306 1150 414 c 0
 1150 430 1148 446 1144 463 c 0
 1128 534 1075 576 1012 576 c 0
 988 576 963 571 938 558 c 0
 905 541 833 525 776 521 c 2
 674 514 l 1
 671 617 l 2
 670 645 670 677 670 705 c 0
 670 733 670 759 671 773 c 0
 672 781 672 790 672 799 c 0
 672 824 669 850 665 868 c 2
 656 978 l 1
 646 1069 l 2
 640 1118 626 1169 615 1181 c 0
 604 1193 533 1213 459 1224 c 0
 409 1231 374 1235 341 1235 c 0
 298 1235 261 1229 203 1215 c 0
 129 1197 85 1189 57 1189 c 0
 27 1189 15 1198 5 1218 c 0
 0 1228 -2 1248 -2 1272 c 0
 -2 1326 9 1402 26 1429 c 0
819 -233 m 0
 819 -169 867 -116 927 -116 c 0
 987 -116 1035 -169 1035 -233 c 0
 1035 -297 987 -350 927 -350 c 0
 867 -350 819 -297 819 -233 c 0
EndSplineSet
Ligature2: "'nukt' Nukta Forms in Bengali2 lookup 1 subtable" bn_dda bn_nukta
LCarets2: 1 0
EndChar

StartChar: bn_rrha
Encoding: 2525 2525 69
GlifName: bn_R_ha
Width: 1129
GlyphClass: 3
Flags: W
AnchorPoint: "abvm" 598 1206 basechar 0
AnchorPoint: "blwm" 722 -342 basechar 0
LayerCount: 2
Fore
SplineSet
1028 1465 m 0
 1031 1468 1038 1469 1046 1469 c 0
 1074 1469 1125 1454 1141 1438 c 0
 1148 1430 1159 1392 1164 1355 c 0
 1166 1342 1166 1330 1166 1320 c 0
 1166 1290 1160 1272 1144 1255 c 0
 1114 1223 1113 1223 677 1218 c 0
 497 1216 446 1210 425 1188 c 0
 403 1165 397 1090 389 762 c 2
 380 364 l 1
 426 314 l 2
 460 278 506 260 559 260 c 0
 612 260 673 278 734 314 c 0
 815 362 854 413 854 469 c 0
 854 485 851 500 845 517 c 0
 825 571 784 596 699 596 c 0
 651 596 588 588 508 572 c 0
 496 570 486 568 478 568 c 0
 456 568 446 577 434 599 c 0
 429 608 427 617 427 627 c 0
 427 706 564 811 701 824 c 0
 715 825 728 826 740 826 c 0
 785 826 817 814 885 774 c 0
 985 716 1002 693 1059 549 c 0
 1073 512 1081 491 1081 465 c 0
 1081 439 1074 407 1058 345 c 0
 1031 234 1015 205 934 118 c 0
 845 22 768 -22 673 -22 c 0
 631 -22 586 -14 534 3 c 0
 448 30 320 108 284 154 c 0
 234 218 192 383 192 499 c 0
 192 520 193 539 196 556 c 0
 203 595 206 715 206 843 c 0
 206 1021 200 1213 190 1219 c 0
 189 1220 187 1220 184 1220 c 0
 171 1220 144 1212 116 1200 c 0
 88 1188 64 1182 43 1182 c 0
 -1 1182 -28 1209 -28 1260 c 0
 -28 1294 -16 1349 -5 1382 c 2
 15 1440 l 1
 517 1448 l 2
 793 1452 1022 1459 1028 1465 c 0
583 -198 m 0
 583 -134 631 -81 691 -81 c 0
 751 -81 799 -134 799 -198 c 0
 799 -262 751 -315 691 -315 c 0
 631 -315 583 -262 583 -198 c 0
EndSplineSet
Ligature2: "'nukt' Nukta Forms in Bengali2 lookup 1 subtable" bn_ddha bn_nukta
EndChar

StartChar: bn_yya
Encoding: 2527 2527 70
GlifName: bn_Y_a
Width: 1280
GlyphClass: 3
Flags: W
AnchorPoint: "abvm" 608 1206 basechar 0
AnchorPoint: "blwm" 1205 -191 basechar 0
LayerCount: 2
Fore
SplineSet
-2 1390 m 0
 21 1420 370 1436 702 1436 c 0
 1006 1436 1295 1423 1305 1395 c 0
 1311 1378 1314 1360 1314 1343 c 0
 1314 1280 1275 1225 1214 1212 c 0
 1129 1193 1099 1171 1099 1056 c 0
 1099 1009 1104 947 1112 863 c 0
 1126 720 1137 495 1137 362 c 2
 1137 121 l 1
 1230 55 l 2
 1290 13 1320 -28 1320 -67 c 0
 1320 -93 1307 -119 1280 -144 c 0
 1264 -159 1250 -167 1234 -167 c 0
 1215 -167 1192 -156 1155 -135 c 0
 1108 -108 1013 -66 939 -39 c 0
 866 -12 680 81 524 168 c 0
 368 255 218 325 189 325 c 0
 127 325 88 369 88 427 c 0
 88 446 92 466 101 486 c 0
 118 527 145 559 164 559 c 0
 182 559 259 591 336 631 c 0
 447 688 475 717 475 773 c 0
 475 887 398 959 184 1049 c 0
 -12 1131 -14 1134 -22 1242 c 0
 -23 1252 -23 1263 -23 1274 c 0
 -23 1325 -15 1373 -2 1390 c 0
910 1185 m 0
 900 1215 869 1227 807 1227 c 2
 785 1227 l 1
 573 1218 475 1199 475 1167 c 0
 475 1149 522 1080 581 1010 c 0
 655 922 692 838 692 758 c 0
 692 694 668 633 621 577 c 0
 584 533 555 480 555 457 c 0
 555 422 809 267 867 267 c 0
 896 267 924 693 924 968 c 0
 924 1073 920 1157 910 1185 c 0
429 -103 m 0
 429 -39 477 14 537 14 c 0
 597 14 645 -39 645 -103 c 0
 645 -167 597 -220 537 -220 c 0
 477 -220 429 -167 429 -103 c 0
EndSplineSet
Ligature2: "'nukt' Nukta Forms in Bengali2 lookup 1 subtable" bn_ya bn_nukta
EndChar

StartChar: bn_rri
Encoding: 2528 2528 71
GlifName: bn_rri
Width: 1318
GlyphClass: 2
Flags: W
LayerCount: 2
Fore
SplineSet
1094 -60 m 0
 1097 -57 1100 -56 1105 -56 c 0
 1126 -56 1161 -85 1161 -110 c 0
 1161 -139 1159 -139 1123 -116 c 0
 1097 -99 1085 -88 1085 -77 c 0
 1085 -71 1088 -66 1094 -60 c 0
1255 1641 m 1
 1268 1615 1270 1579 1274 1358 c 0
 1281 949 1280 763 1298 636 c 0
 1305 585 1309 553 1309 532 c 0
 1309 508 1304 497 1294 487 c 0
 1286 479 1279 474 1266 474 c 0
 1247 474 1218 484 1159 505 c 0
 1110 523 1069 530 1036 530 c 0
 943 530 909 469 909 392 c 0
 909 298 960 181 1018 120 c 0
 1056 80 1074 51 1074 27 c 0
 1074 10 1065 -5 1048 -19 c 0
 1041 -25 1031 -27 1021 -27 c 0
 1001 -27 980 -18 980 -4 c 0
 980 3 958 16 931 25 c 0
 904 34 849 71 807 110 c 0
 724 186 561 314 533 325 c 0
 532 325 531 326 529 326 c 0
 497 326 339 248 300 213 c 0
 285 199 273 175 273 158 c 0
 273 125 313 72 338 72 c 0
 358 72 523 -50 604 -124 c 0
 642 -158 685 -191 702 -196 c 0
 719 -201 740 -219 751 -234 c 0
 762 -249 777 -262 785 -262 c 0
 793 -262 813 -276 831 -294 c 0
 844 -307 850 -319 850 -330 c 0
 850 -353 822 -368 771 -368 c 0
 730 -368 695 -352 636 -308 c 0
 527 -226 551 -225 438 -147 c 0
 393 -116 305 -45 243 11 c 0
 181 67 104 125 73 140 c 0
 37 157 19 174 19 193 c 0
 19 213 39 235 80 263 c 0
 116 287 154 315 165 326 c 0
 176 336 193 345 204 345 c 0
 215 345 241 359 262 376 c 0
 284 394 327 408 362 409 c 0
 398 410 416 417 416 428 c 0
 416 436 406 446 384 458 c 0
 331 486 237 552 175 602 c 0
 142 629 100 657 82 664 c 0
 60 673 48 685 48 699 c 0
 48 713 59 729 80 748 c 0
 113 777 162 796 299 830 c 0
 334 839 368 855 378 867 c 0
 388 879 414 893 438 898 c 0
 479 907 511 933 511 953 c 0
 511 958 509 962 505 966 c 0
 494 977 453 984 409 984 c 0
 380 984 349 981 324 975 c 0
 311 972 301 970 293 970 c 0
 275 970 267 980 252 1010 c 0
 229 1054 217 1097 217 1139 c 0
 217 1179 228 1217 249 1254 c 0
 271 1292 296 1341 306 1364 c 0
 316 1387 330 1406 338 1406 c 0
 346 1406 379 1428 414 1456 c 0
 513 1537 582 1573 637 1573 c 0
 719 1573 899 1472 899 1433 c 0
 899 1429 897 1426 893 1423 c 0
 885 1418 881 1409 881 1392 c 0
 881 1378 884 1358 889 1329 c 0
 898 1283 912 1200 920 1141 c 0
 963 841 965 831 1013 791 c 0
 1040 769 1067 757 1091 757 c 2
 1099 757 l 1
 1132 761 1137 764 1137 835 c 2
 1137 868 l 2
 1135 1003 1118 1209 1097 1379 c 0
 1082 1496 1077 1512 1048 1519 c 0
 1030 1524 978 1534 974 1565 c 0
 969 1601 966 1619 966 1629 c 0
 966 1637 968 1639 971 1639 c 2
 1255 1641 l 1
751 1320 m 0
 739 1336 705 1348 657 1352 c 0
 641 1354 625 1354 610 1354 c 0
 499 1354 425 1312 386 1226 c 0
 372 1196 364 1174 364 1158 c 0
 364 1121 412 1118 554 1118 c 0
 673 1118 739 1124 751 1136 c 0
 763 1148 769 1186 769 1225 c 0
 769 1264 763 1304 751 1320 c 0
797 602 m 0
 795 776 800 840 751 840 c 0
 719 840 663 812 566 769 c 0
 474 728 389 694 374 694 c 0
 361 694 338 681 338 666 c 0
 338 616 689 299 747 299 c 0
 786 299 798 344 798 526 c 0
 798 549 797 574 797 602 c 0
EndSplineSet
EndChar

StartChar: bn_lli
Encoding: 2529 2529 72
GlifName: bn_lli
Width: 1505
GlyphClass: 2
Flags: W
LayerCount: 2
Fore
SplineSet
115 1435 m 0
 158 1481 225 1519 261 1519 c 0
 318 1519 353 1479 353 1432 c 0
 353 1409 345 1384 326 1361 c 0
 311 1343 303 1329 303 1319 c 0
 303 1305 318 1296 348 1286 c 0
 385 1274 448 1251 494 1233 c 0
 539 1215 657 1201 759 1200 c 0
 900 1199 975 1176 1084 1101 c 0
 1210 1015 1227 986 1235 845 c 0
 1236 835 1236 824 1236 814 c 0
 1236 626 1134 460 1014 460 c 0
 968 460 920 445 909 428 c 0
 907 425 906 422 906 419 c 0
 906 387 1017 356 1144 355 c 0
 1197 355 1264 329 1295 298 c 0
 1329 263 1347 186 1347 106 c 0
 1347 39 1335 -29 1309 -77 c 0
 1263 -163 1073 -246 925 -246 c 0
 834 -246 807 -225 763 -119 c 0
 732 -45 677 17 632 29 c 0
 596 39 571 45 554 45 c 0
 521 45 514 22 500 -41 c 0
 487 -97 449 -125 403 -125 c 0
 353 -125 292 -92 244 -27 c 0
 210 18 194 46 194 70 c 0
 194 89 204 106 222 128 c 0
 276 195 342 227 435 227 c 0
 489 227 553 216 629 194 c 0
 770 153 831 114 865 43 c 0
 901 -31 964 -65 1024 -65 c 0
 1100 -65 1169 -12 1169 81 c 0
 1169 90 1168 101 1167 111 c 0
 1157 182 1112 202 830 267 c 0
 491 345 413 385 378 499 c 0
 367 535 346 552 313 552 c 0
 302 552 291 550 277 547 c 0
 266 544 254 543 243 543 c 0
 203 543 167 561 133 598 c 0
 98 636 81 677 81 717 c 0
 81 783 128 847 219 896 c 0
 273 925 334 939 395 939 c 0
 520 939 643 881 694 781 c 0
 752 670 799 617 849 617 c 0
 873 617 898 630 925 654 c 0
 963 688 996 764 996 817 c 0
 996 926 996 926 537 1028 c 0
 315 1077 129 1177 74 1279 c 0
 63 1299 57 1317 57 1334 c 0
 57 1364 75 1392 115 1435 c 0
EndSplineSet
EndChar

StartChar: bn_likaar
Encoding: 2530 2530 73
GlifName: bn_likaar
Width: 0
GlyphClass: 4
Flags: W
AnchorPoint: "blwm" -469 574 mark 0
LayerCount: 2
Fore
SplineSet
-540 463 m 0
 -512 475 -489 481 -471 481 c 0
 -436 481 -419 459 -419 414 c 0
 -419 365 -436 340 -469 340 c 0
 -483 340 -491 331 -491 316 c 0
 -491 302 -484 293 -475 295 c 2
 -474 295 l 2
 -465 295 -441 279 -421 259 c 1
 -212 164 l 1
 -198 151 -162 132 -131 121 c 0
 -83 104 -71 92 -45 40 c 0
 -22 -7 -28 -32 -22 -67 c 0
 -17 -93 -15 -116 -15 -137 c 0
 -15 -185 -28 -220 -62 -237 c 0
 -84 -248 -69 -264 -159 -272 c 0
 -180 -274 -198 -275 -214 -275 c 0
 -283 -275 -309 -256 -319 -210 c 0
 -336 -134 -345 -118 -384 -98 c 0
 -413 -84 -456 -77 -497 -77 c 0
 -541 -77 -582 -85 -598 -101 c 0
 -614 -117 -622 -140 -622 -160 c 0
 -622 -180 -614 -196 -598 -196 c 0
 -586 -196 -572 -184 -568 -171 c 0
 -562 -153 -552 -148 -528 -151 c 0
 -501 -154 -496 -160 -493 -197 c 2
 -493 -206 l 2
 -493 -260 -534 -291 -609 -291 c 0
 -657 -291 -672 -284 -709 -248 c 0
 -745 -213 -753 -197 -753 -161 c 0
 -753 -105 -700 -29 -642 -1 c 0
 -611 14 -537 25 -494 25 c 0
 -476 25 -464 23 -461 19 c 0
 -458 14 -438 6 -417 2 c 0
 -357 -10 -291 -60 -267 -110 c 0
 -252 -142 -232 -159 -210 -159 c 0
 -195 -159 -179 -151 -162 -135 c 0
 -144 -118 -135 -102 -135 -83 c 0
 -135 -66 -143 -46 -158 -22 c 0
 -174 4 -195 20 -220 26 c 0
 -240 30 -271 43 -287 54 c 0
 -357 102 -435 150 -444 150 c 0
 -464 150 -565 252 -587 295 c 0
 -601 322 -608 348 -608 371 c 0
 -608 412 -585 444 -540 463 c 0
EndSplineSet
EndChar

StartChar: bn_llikaar
Encoding: 2531 2531 74
GlifName: bn_llikaar
Width: 0
GlyphClass: 4
Flags: W
AnchorPoint: "blwm" -519 194 mark 0
LayerCount: 2
Fore
SplineSet
-621 61 m 0
 -599 84 -565 103 -547 103 c 0
 -519 103 -502 84 -502 60 c 0
 -502 48 -506 36 -515 24 c 0
 -533 3 -530 -4 -504 -13 c 0
 -486 -19 -454 -31 -431 -40 c 0
 -408 -49 -349 -57 -298 -57 c 0
 -227 -58 -190 -69 -136 -106 c 0
 -73 -149 -65 -163 -61 -234 c 1
 -61 -250 l 2
 -61 -345 -110 -427 -171 -427 c 0
 -194 -427 -218 -433 -223 -442 c 0
 -224 -443 -224 -445 -224 -446 c 0
 -224 -462 -169 -478 -106 -479 c 0
 -80 -479 -45 -492 -30 -508 c 0
 -13 -525 -4 -564 -4 -603 c 0
 -4 -636 -10 -671 -23 -695 c 0
 -46 -738 -141 -780 -215 -780 c 0
 -261 -780 -275 -769 -297 -716 c 0
 -312 -679 -339 -648 -362 -642 c 0
 -380 -637 -392 -634 -401 -634 c 0
 -418 -634 -421 -645 -428 -677 c 0
 -435 -705 -454 -719 -477 -719 c 0
 -502 -719 -532 -702 -556 -670 c 0
 -573 -647 -581 -634 -581 -622 c 0
 -581 -613 -576 -604 -567 -593 c 0
 -540 -560 -507 -543 -461 -543 c 0
 -434 -543 -402 -549 -364 -560 c 0
 -293 -580 -263 -600 -246 -635 c 0
 -228 -672 -197 -689 -167 -689 c 0
 -129 -689 -94 -662 -94 -616 c 0
 -94 -611 -94 -606 -95 -601 c 0
 -100 -566 -122 -556 -263 -523 c 0
 -432 -484 -471 -464 -489 -407 c 0
 -496 -383 -511 -376 -539 -383 c 0
 -545 -384 -550 -385 -556 -385 c 0
 -576 -385 -595 -377 -611 -358 c 0
 -629 -339 -637 -319 -637 -299 c 0
 -637 -265 -613 -232 -568 -208 c 0
 -541 -193 -511 -187 -481 -187 c 0
 -418 -187 -357 -216 -331 -266 c 0
 -302 -322 -278 -348 -253 -348 c 0
 -241 -348 -228 -342 -215 -330 c 0
 -196 -313 -180 -274 -180 -248 c 0
 -180 -193 -180 -194 -410 -143 c 0
 -521 -118 -613 -68 -641 -17 c 0
 -646 -7 -649 1 -649 10 c 0
 -649 25 -641 39 -621 61 c 0
EndSplineSet
EndChar

StartChar: bn_shunya
Encoding: 2534 2534 75
GlifName: bn_shunya
Width: 1075
GlyphClass: 2
Flags: W
LayerCount: 2
Fore
SplineSet
368 920 m 0
 397 931 440 936 487 936 c 0
 574 936 673 919 720 890 c 0
 813 833 872 708 872 593 c 0
 872 550 864 509 847 473 c 0
 791 356 614 267 460 267 c 0
 438 267 417 268 397 272 c 0
 310 288 184 404 148 500 c 0
 138 526 133 554 133 583 c 0
 133 665 173 753 243 821 c 0
 291 867 348 913 368 920 c 0
597 684 m 0
 559 722 515 741 473 741 c 0
 435 741 399 726 368 695 c 0
 334 661 320 625 320 592 c 0
 320 516 394 454 480 454 c 0
 521 454 564 468 604 501 c 0
 638 529 655 556 655 584 c 0
 655 614 636 646 597 684 c 0
EndSplineSet
EndChar

StartChar: bn_ek
Encoding: 2535 2535 76
GlifName: bn_ek
Width: 1012
GlyphClass: 2
Flags: W
LayerCount: 2
Fore
SplineSet
186 1400 m 0
 213 1435 248 1454 289 1454 c 0
 354 1454 362 1442 410 1278 c 0
 426 1222 485 1141 587 1032 c 0
 768 839 843 721 863 596 c 0
 871 545 885 471 892 434 c 0
 894 423 895 411 895 399 c 0
 895 280 804 92 705 21 c 0
 645 -22 582 -44 523 -44 c 0
 468 -44 414 -25 369 13 c 0
 297 73 246 162 246 227 c 0
 246 308 383 499 502 583 c 0
 563 627 614 672 614 682 c 0
 614 707 510 846 483 857 c 0
 444 873 260 1054 202 1134 c 0
 165 1185 146 1236 146 1285 c 0
 146 1326 159 1365 186 1400 c 0
759 479 m 0
 744 508 721 535 707 540 c 0
 703 541 699 542 694 542 c 0
 623 542 472 388 472 307 c 0
 472 225 516 186 570 186 c 0
 637 186 721 245 760 354 c 0
 771 384 776 405 776 423 c 0
 776 442 771 457 759 479 c 0
EndSplineSet
EndChar

StartChar: bn_dui
Encoding: 2536 2536 77
GlifName: bn_dui
Width: 1240
GlyphClass: 2
Flags: W
LayerCount: 2
Fore
SplineSet
101 1419 m 1
 106 1411 124 1407 149 1407 c 0
 162 1407 177 1408 193 1410 c 0
 212 1413 227 1415 240 1415 c 0
 278 1415 299 1398 366 1335 c 0
 467 1241 622 1024 622 978 c 0
 622 963 629 942 638 933 c 0
 647 923 663 871 673 816 c 0
 679 784 682 760 682 738 c 0
 682 703 674 673 657 630 c 0
 626 551 474 376 437 376 c 0
 425 376 419 369 419 359 c 0
 419 343 434 320 457 313 c 0
 477 307 494 294 494 285 c 0
 494 276 528 259 570 247 c 0
 612 235 675 211 711 192 c 0
 748 173 785 157 794 157 c 0
 803 157 860 134 922 104 c 0
 984 74 1074 35 1125 16 c 0
 1211 -17 1216 -23 1216 -81 c 0
 1216 -121 1210 -139 1183 -139 c 0
 1162 -139 1130 -128 1079 -108 c 0
 1044 -94 933 -53 832 -17 c 0
 731 19 618 65 579 85 c 0
 541 104 494 120 477 120 c 0
 461 120 436 130 425 141 c 0
 413 153 360 178 307 196 c 0
 197 234 183 252 183 342 c 0
 183 428 198 468 232 468 c 0
 288 468 425 581 459 656 c 0
 479 701 490 741 490 780 c 0
 490 873 428 958 283 1082 c 0
 226 1131 176 1191 171 1216 c 2
 101 1419 l 1
EndSplineSet
EndChar

StartChar: bn_tin
Encoding: 2537 2537 78
GlifName: bn_tin
Width: 1596
GlyphClass: 2
Flags: W
LayerCount: 2
Fore
SplineSet
872 1384 m 0
 910 1410 951 1423 995 1423 c 0
 1140 1423 1309 1284 1436 1045 c 0
 1486 951 1497 898 1498 734 c 2
 1498 717 l 2
 1498 368 1408 188 1176 70 c 0
 1117 40 1049 24 999 24 c 0
 964 24 938 32 928 48 c 0
 920 62 892 72 863 72 c 0
 778 72 484 242 366 360 c 0
 214 511 78 667 47 725 c 0
 36 746 31 764 31 780 c 0
 31 820 62 842 103 842 c 0
 141 842 187 823 224 778 c 0
 408 559 482 494 638 418 c 0
 748 365 832 339 910 339 c 0
 973 339 1032 356 1099 389 c 0
 1181 430 1213 464 1252 556 c 0
 1283 629 1299 695 1299 754 c 0
 1299 834 1270 903 1214 959 c 0
 1196 977 1180 987 1166 987 c 0
 1144 987 1125 965 1104 922 c 0
 1079 869 1053 854 981 848 c 0
 969 847 958 847 948 847 c 0
 895 847 869 862 818 916 c 0
 761 977 747 1014 747 1101 c 0
 747 1221 795 1330 872 1384 c 0
EndSplineSet
EndChar

StartChar: bn_chaar
Encoding: 2538 2538 79
GlifName: bn_chaar
Width: 1071
GlyphClass: 2
Flags: W
LayerCount: 2
Fore
SplineSet
435 1352 m 0
 501 1370 532 1378 555 1378 c 0
 576 1378 590 1371 618 1359 c 0
 845 1259 941 1138 941 951 c 0
 941 859 892 728 858 728 c 0
 848 728 822 714 798 696 c 0
 781 683 771 676 771 665 c 0
 771 650 790 629 836 582 c 0
 902 514 919 477 931 379 c 0
 935 348 937 324 937 304 c 0
 937 253 922 227 877 165 c 0
 777 28 696 -14 533 -14 c 0
 269 -14 131 114 131 354 c 2
 131 372 l 1
 135 512 180 606 261 645 c 0
 304 665 326 693 326 716 c 0
 326 734 312 750 283 757 c 0
 256 764 210 805 182 846 c 0
 152 891 140 918 140 957 c 0
 140 974 142 992 146 1016 c 0
 181 1228 244 1301 435 1352 c 0
655 1126 m 0
 611 1151 561 1164 514 1164 c 0
 460 1164 410 1147 380 1114 c 0
 328 1056 303 1014 303 976 c 0
 303 963 306 950 312 937 c 0
 338 881 468 793 525 793 c 0
 588 793 694 856 733 916 c 0
 748 938 755 962 755 985 c 0
 755 1037 720 1089 655 1126 c 0
610 545 m 0
 577 562 534 575 512 575 c 0
 466 575 372 516 307 446 c 0
 284 421 274 394 274 366 c 0
 274 275 386 182 529 182 c 0
 625 182 732 261 754 348 c 0
 756 356 757 364 757 372 c 0
 757 432 703 497 610 545 c 0
EndSplineSet
EndChar

StartChar: bn_paanch
Encoding: 2539 2539 80
GlifName: bn_paanch
Width: 1246
GlyphClass: 2
Flags: W
LayerCount: 2
Fore
SplineSet
564 1322 m 0
 596 1329 635 1332 677 1332 c 0
 860 1332 1113 1272 1198 1198 c 0
 1223 1177 1233 1143 1233 1109 c 0
 1233 1048 1199 985 1147 985 c 0
 1078 985 952 910 895 835 c 0
 827 745 794 673 794 606 c 0
 794 586 797 566 803 546 c 0
 848 396 980 235 1093 192 c 0
 1130 178 1148 159 1148 133 c 0
 1148 106 1128 72 1087 33 c 0
 1023 -28 1018 -28 788 -28 c 0
 569 -28 545 -25 418 37 c 0
 207 140 105 262 43 486 c 0
 33 522 28 551 28 584 c 0
 28 624 35 671 51 747 c 0
 94 958 130 1034 238 1141 c 0
 330 1232 445 1296 564 1322 c 0
803 1119 m 0
 785 1126 703 1131 624 1131 c 2
 479 1131 l 1
 366 1025 l 2
 274 938 249 899 231 814 c 0
 217 747 210 674 210 608 c 0
 210 529 220 459 240 421 c 0
 278 348 380 260 474 221 c 0
 519 202 626 188 687 188 c 0
 714 188 732 191 732 197 c 0
 732 202 709 248 681 298 c 0
 636 379 613 465 613 543 c 0
 613 585 619 625 633 661 c 0
 650 707 670 769 676 798 c 0
 682 828 720 889 762 937 c 0
 810 993 835 1040 835 1073 c 0
 835 1095 824 1111 803 1119 c 0
EndSplineSet
EndChar

StartChar: bn_chhoi
Encoding: 2540 2540 81
GlifName: bn_chhoi
Width: 1486
GlyphClass: 2
Flags: W
LayerCount: 2
Fore
SplineSet
695 1438 m 0
 718 1444 740 1450 746 1451 c 0
 748 1451 750 1452 752 1452 c 0
 801 1452 845 1335 845 1218 c 0
 845 1198 844 1178 841 1159 c 0
 833 1101 829 1037 829 983 c 0
 829 916 835 864 846 854 c 0
 849 851 857 850 870 850 c 0
 893 850 929 854 966 862 c 0
 996 868 1022 871 1046 871 c 0
 1128 871 1183 834 1249 741 c 0
 1295 676 1316 616 1332 503 c 0
 1339 451 1343 415 1343 385 c 0
 1343 335 1332 300 1306 231 c 0
 1245 73 1193 22 1045 -20 c 0
 996 -34 949 -42 904 -42 c 0
 753 -42 612 41 406 238 c 0
 237 399 143 529 143 590 c 0
 143 614 158 627 188 627 c 0
 193 627 198 627 203 626 c 0
 234 622 269 601 281 578 c 0
 293 555 357 480 425 408 c 0
 569 256 714 177 854 177 c 0
 937 177 962 188 1045 261 c 0
 1137 342 1141 350 1141 463 c 0
 1141 607 1106 668 1019 668 c 0
 1013 668 1007 668 1000 667 c 0
 942 662 918 647 892 599 c 0
 869 556 840 535 796 531 c 0
 787 530 778 530 770 530 c 0
 682 530 667 591 662 856 c 0
 658 1060 649 1131 618 1196 c 0
 598 1237 589 1275 589 1308 c 0
 589 1373 625 1421 695 1438 c 0
EndSplineSet
EndChar

StartChar: bn_saat
Encoding: 2541 2541 82
GlifName: bn_saat
Width: 1293
GlyphClass: 2
Flags: W
LayerCount: 2
Fore
SplineSet
600 1438 m 0
 631 1448 663 1453 695 1453 c 0
 824 1453 952 1372 1011 1243 c 0
 1045 1170 1062 1059 1062 937 c 0
 1062 852 1054 762 1036 677 c 0
 1024 620 995 482 972 371 c 2
 930 169 l 1
 1005 107 l 2
 1054 66 1079 32 1079 3 c 0
 1079 -22 1060 -43 1024 -63 c 0
 992 -80 954 -88 916 -88 c 0
 845 -88 772 -60 735 -10 c 0
 709 25 697 45 697 86 c 0
 697 115 703 156 714 219 c 0
 747 412 803 654 828 713 c 0
 832 722 834 729 834 735 c 0
 834 748 825 755 808 755 c 0
 781 755 734 738 672 706 c 0
 612 675 530 658 446 658 c 0
 271 658 215 723 215 923 c 0
 215 1205 320 1346 600 1438 c 0
805 1154 m 0
 771 1177 691 1200 628 1206 c 0
 605 1208 586 1210 570 1210 c 0
 514 1210 489 1194 436 1144 c 0
 385 1096 358 1040 358 989 c 0
 358 952 372 918 402 891 c 0
 429 867 452 854 483 854 c 0
 527 854 586 879 696 934 c 0
 812 992 867 1036 867 1077 c 0
 867 1103 846 1127 805 1154 c 0
EndSplineSet
EndChar

StartChar: bn_aat
Encoding: 2542 2542 83
GlifName: bn_aat
Width: 1551
GlyphClass: 2
Flags: W
LayerCount: 2
Fore
SplineSet
134 1465 m 0
 152 1498 190 1514 230 1514 c 0
 268 1514 307 1500 334 1470 c 0
 393 1405 432 1203 432 966 c 2
 432 940 l 1
 429 713 l 1
 576 731 l 2
 658 741 820 752 940 755 c 0
 1060 758 1208 774 1272 789 c 0
 1316 799 1349 805 1373 805 c 0
 1424 805 1434 778 1434 708 c 0
 1434 593 1354 530 1183 510 c 0
 1084 498 1056 493 1056 469 c 0
 1056 462 1058 453 1062 443 c 0
 1075 407 1081 367 1081 325 c 0
 1081 177 1006 12 901 -40 c 0
 847 -67 790 -80 734 -80 c 0
 583 -80 435 12 348 174 c 0
 281 297 227 592 227 758 c 0
 227 819 234 863 251 874 c 0
 262 881 271 943 271 1020 c 0
 271 1032 270 1043 270 1055 c 0
 265 1214 262 1223 193 1254 c 0
 140 1277 112 1326 112 1381 c 0
 112 1408 119 1437 134 1465 c 0
866 472 m 0
 839 511 812 523 745 523 c 2
 728 523 l 2
 673 522 605 516 579 510 c 0
 553 504 506 494 477 488 c 0
 441 480 424 453 424 411 c 0
 424 369 441 313 477 251 c 0
 526 164 596 119 669 119 c 0
 728 119 789 148 843 207 c 0
 883 250 903 303 903 355 c 0
 903 396 891 436 866 472 c 0
EndSplineSet
EndChar

StartChar: bn_noi
Encoding: 2543 2543 84
GlifName: bn_noi
Width: 1602
GlyphClass: 2
Flags: W
LayerCount: 2
Fore
SplineSet
258 1502 m 0
 294 1520 312 1529 327 1529 c 0
 344 1529 356 1518 383 1493 c 0
 407 1471 426 1429 426 1400 c 0
 426 1312 482 1289 747 1268 c 0
 884 1257 1018 1238 1043 1225 c 0
 1069 1212 1120 1186 1161 1165 c 0
 1201 1144 1287 1059 1353 975 c 0
 1472 822 1472 822 1473 641 c 2
 1473 624 l 2
 1473 530 1465 431 1457 400 c 0
 1413 246 994 -78 844 -78 c 0
 840 -78 835 -78 831 -77 c 0
 788 -71 767 -40 767 3 c 0
 767 48 790 106 835 162 c 0
 887 226 912 287 912 344 c 0
 912 409 879 471 812 531 c 0
 734 602 676 635 626 635 c 0
 593 635 563 621 532 592 c 0
 500 562 474 508 474 472 c 0
 474 392 395 314 325 314 c 0
 317 314 309 315 301 317 c 0
 168 356 138 394 138 522 c 2
 138 528 l 2
 139 685 174 749 306 837 c 0
 379 886 462 910 545 910 c 0
 628 910 712 886 788 837 c 0
 952 731 1055 610 1087 487 c 0
 1105 418 1113 393 1129 393 c 0
 1137 393 1146 399 1159 408 c 0
 1197 436 1217 506 1217 585 c 0
 1217 654 1202 730 1172 793 c 0
 1087 974 911 1073 672 1074 c 0
 554 1074 306 1155 306 1193 c 0
 306 1201 279 1239 244 1280 c 0
 209 1321 192 1363 192 1401 c 0
 192 1443 214 1480 258 1502 c 0
EndSplineSet
EndChar

StartChar: bn_asamia_ra
Encoding: 2544 2544 85
GlifName: bn_asamia_ra
Width: 1295
GlyphClass: 2
Flags: W
AnchorPoint: "abvm" 964 1220 basechar 0
AnchorPoint: "blwm" 1264 -212 basechar 0
LayerCount: 2
Fore
SplineSet
-48 1358 m 2
 -31 1452 l 1
 662 1433 l 2
 1237 1418 1395 1408 1395 1346 c 0
 1395 1327 1381 1304 1359 1274 c 0
 1334 1239 1284 1222 1206 1218 c 0
 1141 1215 1082 1196 1071 1175 c 0
 1067 1167 1065 1134 1065 1083 c 0
 1065 892 1092 461 1120 256 c 0
 1138 129 1158 84 1228 19 c 0
 1284 -34 1311 -72 1311 -105 c 0
 1311 -127 1299 -146 1276 -165 c 0
 1270 -170 1263 -173 1253 -173 c 0
 1219 -173 1156 -138 1028 -54 c 0
 912 22 748 121 667 163 c 0
 586 205 470 267 411 300 c 0
 204 416 141 448 93 463 c 0
 69 471 48 497 48 523 c 0
 48 572 181 659 559 863 c 0
 750 967 856 1065 856 1142 c 0
 856 1207 790 1232 570 1232 c 0
 500 1232 415 1230 311 1225 c 0
 236 1222 171 1220 118 1220 c 0
 17 1220 -43 1226 -50 1237 c 0
 -54 1244 -56 1259 -56 1279 c 0
 -56 1302 -53 1330 -48 1358 c 2
904 660 m 0
 898 712 861 748 828 748 c 0
 813 748 800 741 790 725 c 0
 787 720 785 713 785 705 c 0
 785 660 838 587 877 587 c 0
 895 587 905 605 905 638 c 0
 905 645 905 652 904 660 c 0
788 477 m 0
 659 564 607 598 569 598 c 0
 546 598 528 585 503 564 c 0
 476 542 461 524 461 506 c 0
 461 473 512 439 635 369 c 0
 719 322 816 265 849 244 c 0
 871 230 885 221 894 221 c 0
 908 221 910 243 910 300 c 0
 910 383 893 406 788 477 c 0
EndSplineSet
EndChar

StartChar: bn_asamia_va
Encoding: 2545 2545 86
GlifName: bn_asamia_va
Width: 1315
GlyphClass: 2
Flags: W
AnchorPoint: "abvm" 969 1215 basechar 0
AnchorPoint: "blwm" 1273 -193 basechar 0
LayerCount: 2
Fore
SplineSet
83 273 m 1
 83 223 72 163 72 117 c 0
 72 81 79 54 102 45 c 0
 415 -73 609 -194 951 -299 c 0
 956 -300 961 -301 966 -301 c 0
 1017 -301 1085 -235 1085 -193 c 0
 1085 -181 1079 -171 1066 -165 c 0
 724 -8 508 62 172 258 c 1
 83 273 l 1
467 1452 m 2
 663 1454 821 1455 945 1455 c 0
 1220 1455 1334 1450 1351 1439 c 0
 1362 1432 1372 1401 1372 1371 c 0
 1372 1301 1323 1273 1184 1259 c 2
 1081 1249 l 1
 1082 814 l 2
 1083 574 1090 362 1098 342 c 0
 1106 322 1117 260 1121 203 c 0
 1128 112 1137 91 1203 23 c 0
 1252 -28 1278 -71 1278 -105 c 0
 1278 -133 1269 -156 1259 -156 c 0
 1227 -156 1100 -87 1074 -55 c 0
 1061 -39 1029 -24 1007 -24 c 0
 984 -24 944 -8 918 13 c 0
 892 34 860 51 849 51 c 0
 822 51 688 137 608 206 c 0
 574 235 537 259 526 259 c 0
 515 259 470 289 427 325 c 0
 384 361 340 391 331 391 c 0
 314 391 166 485 119 525 c 0
 113 531 109 536 109 543 c 0
 109 556 123 574 154 607 c 0
 186 640 250 686 295 709 c 0
 340 732 380 757 383 764 c 0
 392 783 652 956 673 956 c 0
 682 956 730 993 781 1038 c 0
 843 1094 863 1117 863 1145 c 0
 863 1152 862 1158 860 1166 c 0
 848 1218 800 1248 737 1248 c 0
 719 1248 699 1245 679 1240 c 0
 642 1230 581 1223 536 1223 c 2
 527 1223 l 1
 501 1223 l 2
 389 1223 183 1208 74 1192 c 0
 52 1189 33 1187 17 1187 c 0
 -11 1187 -30 1192 -42 1202 c 0
 -60 1217 -70 1255 -70 1299 c 0
 -70 1332 -65 1367 -53 1398 c 2
 -34 1447 l 1
 467 1452 l 2
910 745 m 0
 903 784 891 804 868 804 c 0
 839 804 794 772 722 705 c 0
 662 650 578 590 535 571 c 0
 480 547 452 518 452 491 c 0
 452 466 475 444 522 428 c 0
 559 416 630 376 684 339 c 0
 792 266 892 211 917 211 c 0
 921 211 923 213 923 215 c 0
 924 224 925 251 925 288 c 0
 925 426 917 705 910 745 c 0
EndSplineSet
EndChar

StartChar: bn_takamark
Encoding: 2546 2546 87
GlifName: bn_takamark
Width: 1232
GlyphClass: 4
Flags: HW
LayerCount: 2
Fore
SplineSet
938 135 m 1
 1021 23 1128 -114 1128 -144 c 0
 1128 -148 1127 -150 1123 -150 c 0
 1103 -150 1025 -94 850 59 c 1
 752 114 694 138 600 199 c 0
 565 222 546 240 520 272 c 0
 498 299 476 316 476 351 c 0
 476 381 490 414 520 415 c 2
 527 415 l 2
 576 415 603 387 648 359 c 0
 680 339 688 316 718 293 c 0
 756 264 781 254 820 226 c 0
 867 192 892 170 938 135 c 1
EndSplineSet
EndChar

StartChar: bn_currency1
Encoding: 2548 2548 88
GlifName: bn_currency1
Width: 1735
GlyphClass: 2
Flags: W
LayerCount: 2
Fore
SplineSet
1337 487 m 0
 1364 521 1399 538 1435 538 c 0
 1470 538 1506 522 1537 491 c 0
 1566 462 1580 444 1580 422 c 0
 1580 401 1568 377 1543 337 c 0
 1510 284 1492 273 1440 273 c 0
 1372 273 1298 341 1298 405 c 0
 1298 422 1316 460 1337 487 c 0
1417 1192 m 0
 1440 1209 1452 1217 1461 1217 c 0
 1471 1217 1478 1208 1496 1190 c 0
 1518 1168 1528 1137 1528 1102 c 0
 1528 1047 1503 980 1454 917 c 0
 1337 763 1309 721 1275 646 c 0
 1258 608 1231 575 1218 574 c 0
 1204 573 1152 521 1099 457 c 0
 1047 393 928 286 835 219 c 0
 674 103 359 -69 306 -69 c 0
 293 -69 273 -77 263 -86 c 0
 253 -95 217 -105 183 -109 c 0
 176 -110 169 -110 163 -110 c 0
 106 -110 84 -80 84 -6 c 0
 84 76 117 121 175 121 c 0
 203 121 236 128 246 136 c 0
 256 144 329 175 407 205 c 0
 485 235 575 279 606 302 c 0
 638 326 691 359 727 377 c 0
 816 422 1129 730 1175 817 c 0
 1196 857 1222 898 1234 908 c 0
 1246 918 1284 981 1317 1045 c 0
 1350 1109 1395 1177 1417 1192 c 0
EndSplineSet
EndChar

StartChar: bn_currency2
Encoding: 2549 2549 89
GlifName: bn_currency2
Width: 1589
GlyphClass: 2
Flags: W
LayerCount: 2
Fore
SplineSet
1261 524 m 0
 1284 545 1306 563 1310 563 c 0
 1342 563 1478 513 1489 497 c 0
 1500 481 1505 463 1505 443 c 0
 1505 372 1444 285 1367 267 c 0
 1359 265 1351 264 1344 264 c 0
 1273 264 1219 344 1219 422 c 0
 1219 460 1232 497 1261 524 c 0
1217 1182 m 0
 1249 1210 1290 1224 1323 1224 c 0
 1349 1224 1371 1215 1378 1196 c 0
 1380 1190 1381 1183 1381 1175 c 0
 1381 1121 1327 1030 1238 937 c 0
 1122 816 1010 678 1010 658 c 0
 1010 650 950 568 875 475 c 0
 794 374 711 245 668 152 c 0
 577 -45 524 -101 426 -101 c 0
 348 -101 309 -78 309 -34 c 0
 309 5 341 61 404 129 c 0
 506 239 574 351 574 408 c 0
 574 458 527 548 476 595 c 0
 427 641 309 676 214 676 c 2
 199 676 l 2
 176 675 158 674 143 674 c 0
 86 674 78 684 63 724 c 0
 58 737 56 750 56 764 c 0
 56 786 62 810 73 838 c 0
 99 901 146 935 204 935 c 0
 222 935 241 932 261 925 c 0
 293 914 338 904 360 904 c 0
 506 904 652 753 697 554 c 2
 709 499 l 1
 760 563 l 2
 817 635 846 682 876 747 c 0
 887 772 905 791 916 791 c 0
 927 791 935 799 935 810 c 0
 935 829 968 871 1052 958 c 0
 1080 987 1116 1037 1134 1073 c 0
 1152 1109 1188 1157 1217 1182 c 0
EndSplineSet
EndChar

StartChar: bn_currency3
Encoding: 2550 2550 90
GlifName: bn_currency3
Width: 1709
GlyphClass: 2
Flags: W
LayerCount: 2
Fore
SplineSet
1398 1225 m 0
 1422 1258 1461 1277 1493 1277 c 0
 1512 1277 1529 1270 1538 1255 c 0
 1546 1242 1550 1224 1550 1204 c 0
 1550 1159 1530 1098 1490 1031 c 0
 1458 976 1433 925 1433 916 c 0
 1433 907 1419 890 1404 877 c 0
 1385 861 1376 842 1376 825 c 0
 1376 802 1393 783 1425 783 c 0
 1487 783 1565 704 1565 641 c 0
 1565 614 1544 570 1518 544 c 0
 1487 513 1451 499 1417 499 c 0
 1353 499 1296 548 1296 626 c 2
 1296 631 l 1
 1296 645 l 2
 1296 671 1293 684 1286 684 c 0
 1275 684 1255 649 1225 578 c 0
 1200 519 1152 432 1121 388 c 0
 1058 298 1050 286 972 155 c 0
 905 43 809 -33 733 -33 c 0
 600 -33 479 9 399 83 c 0
 355 123 311 157 300 157 c 0
 289 157 266 177 250 202 c 0
 234 227 199 272 173 300 c 0
 139 337 124 374 124 425 c 0
 124 490 126 497 173 497 c 2
 186 497 l 2
 220 496 269 484 295 469 c 0
 326 451 363 442 400 442 c 0
 446 442 493 456 534 481 c 0
 589 515 598 532 598 595 c 0
 598 690 564 764 519 764 c 0
 500 764 484 756 484 745 c 0
 484 733 473 726 450 726 c 0
 427 726 394 733 350 745 c 0
 282 764 238 823 238 893 c 0
 238 992 418 1143 536 1143 c 0
 585 1143 731 1026 731 986 c 0
 731 977 752 943 776 915 c 0
 804 881 814 861 814 817 c 0
 814 802 813 783 811 761 c 0
 806 706 790 624 778 582 c 0
 747 478 642 338 564 300 c 0
 526 282 509 261 509 242 c 0
 509 208 563 180 638 180 c 0
 665 180 694 184 725 192 c 0
 808 214 893 309 994 487 c 0
 1019 531 1049 577 1062 593 c 0
 1075 609 1113 677 1148 745 c 0
 1183 813 1225 889 1242 915 c 0
 1259 941 1293 1010 1317 1067 c 0
 1341 1124 1377 1196 1398 1225 c 0
EndSplineSet
EndChar

StartChar: bn_currency4
Encoding: 2551 2551 91
GlifName: bn_currency4
Width: 1118
GlyphClass: 2
Flags: W
LayerCount: 2
Fore
SplineSet
660 699 m 0
 686 727 718 739 752 739 c 0
 822 739 896 684 918 597 c 0
 921 586 922 576 922 568 c 0
 922 544 910 528 879 501 c 0
 844 471 789 455 740 455 c 0
 695 455 655 468 641 494 c 0
 628 519 621 550 621 581 c 0
 621 627 635 672 660 699 c 0
161 1154 m 0
 179 1183 193 1193 230 1193 c 0
 238 1193 247 1193 257 1192 c 0
 324 1187 328 1183 341 1101 c 0
 348 1054 358 790 363 513 c 0
 365 377 366 276 366 201 c 0
 366 37 360 -3 343 -22 c 0
 324 -43 287 -54 254 -54 c 0
 226 -54 201 -46 191 -31 c 0
 183 -19 166 244 155 551 c 0
 147 769 143 906 143 994 c 0
 143 1099 149 1134 161 1154 c 0
EndSplineSet
EndChar

StartChar: bn_currency1less
Encoding: 2552 2552 92
GlifName: bn_currency1less
Width: 1334
GlyphClass: 2
Flags: W
LayerCount: 2
Fore
SplineSet
1044 819 m 0
 1058 827 1075 831 1093 831 c 0
 1123 831 1156 820 1182 799 c 0
 1200 785 1207 764 1207 742 c 0
 1207 680 1149 602 1088 602 c 0
 1081 602 1075 603 1068 605 c 0
 1000 626 977 651 977 705 c 0
 977 764 993 790 1044 819 c 0
293 1153 m 0
 309 1173 328 1182 345 1182 c 0
 361 1182 375 1174 381 1156 c 0
 382 1152 383 1141 383 1127 c 0
 383 1091 379 1028 371 962 c 0
 360 869 347 734 342 660 c 0
 337 586 324 498 314 462 c 0
 307 438 304 419 304 406 c 0
 304 391 308 384 317 384 c 0
 335 384 370 415 421 476 c 0
 601 692 821 909 858 909 c 0
 860 909 861 909 862 908 c 0
 878 892 895 496 895 264 c 0
 895 186 894 126 889 106 c 0
 882 77 873 67 847 67 c 0
 842 67 835 67 828 68 c 2
 778 74 l 1
 772 353 l 2
 769 507 759 633 750 633 c 0
 740 633 715 606 691 572 c 0
 627 479 421 245 346 179 c 0
 310 147 265 121 249 121 c 0
 222 121 186 183 186 219 c 0
 186 226 187 231 190 235 c 0
 200 251 217 468 229 737 c 0
 239 966 262 1117 293 1153 c 0
EndSplineSet
EndChar

StartChar: bn_currency16
Encoding: 2553 2553 93
GlifName: bn_currency16
Width: 1065
GlyphClass: 2
Flags: W
LayerCount: 2
Fore
SplineSet
385 864 m 0
 428 910 483 931 540 931 c 0
 659 931 783 839 820 691 c 0
 825 673 827 657 827 643 c 0
 827 603 807 574 755 529 c 0
 696 478 602 452 519 452 c 0
 443 452 377 474 353 518 c 0
 331 559 320 611 320 664 c 0
 320 741 343 819 385 864 c 0
EndSplineSet
EndChar

StartChar: bn_isshar
Encoding: 2554 2554 94
GlifName: bn_isshar
Width: 1206
GlyphClass: 2
Flags: W
LayerCount: 2
Fore
SplineSet
386 804 m 0
 423 835 466 849 505 849 c 0
 569 849 622 811 622 747 c 0
 622 712 599 690 577 690 c 0
 565 690 554 696 546 711 c 0
 535 730 513 741 493 741 c 0
 474 741 456 732 449 713 c 0
 445 703 443 694 443 687 c 0
 443 667 458 657 487 657 c 0
 497 657 509 659 523 661 c 0
 539 664 552 665 561 665 c 0
 579 665 585 660 585 649 c 0
 584 600 552 575 477 565 c 0
 465 563 453 563 443 563 c 0
 366 563 329 605 329 689 c 0
 329 742 342 767 386 804 c 0
96 1013 m 0
 108 1027 129 1034 150 1034 c 0
 176 1034 201 1024 208 1005 c 0
 214 989 220 929 221 872 c 0
 224 643 244 562 311 501 c 0
 368 449 388 442 485 442 c 0
 672 442 744 461 878 543 c 0
 995 615 1010 632 1055 737 c 0
 1086 810 1120 854 1139 854 c 0
 1147 854 1152 846 1154 828 c 0
 1155 816 1155 804 1155 792 c 0
 1155 527 914 317 572 292 c 0
 550 290 529 290 509 290 c 0
 264 290 129 402 101 632 c 0
 89 736 82 831 82 901 c 0
 82 960 87 1002 96 1013 c 0
EndSplineSet
EndChar

StartChar: uni09FD
Encoding: 2557 2557 95
GlifName: uni09F_D_
Width: 977
GlyphClass: 2
Flags: MW
HStem: 793 166<465 503.5 465 546> 1147 207<466 503.5>
VStem: 232 135<978 1060.5> 569 232<1053 1083>
LayerCount: 2
Fore
SplineSet
351 1301 m 0
 403 1336 442 1354 490 1354 c 0
 539 1354 597 1335 689 1298 c 0
 751 1272 801 1160 801 1063 c 0
 801 1043 799 1024 795 1007 c 0
 769 904 608 793 484 793 c 0
 437 793 361 823 312 861 c 0
 250 909 232 938 232 1018 c 0
 232 1036 233 1056 234 1079 c 0
 242 1206 260 1240 351 1301 c 0
569 1053 m 0
 569 1113 527 1147 480 1147 c 0
 450 1147 417 1133 391 1102 c 0
 375 1082 367 1068 367 1053 c 0
 367 1038 375 1024 391 1004 c 0
 417 973 450 959 480 959 c 0
 527 959 569 993 569 1053 c 0
EndSplineSet
EndChar

StartChar: zwnj
Encoding: 8204 8204 96
GlifName: zwnj
Width: 0
GlyphClass: 2
Flags: W
LayerCount: 2
Fore
SplineSet
83 136 m 1
 -98 136 l 1
 -98 1537 l 1
 83 1537 l 1
 83 136 l 1
EndSplineSet
EndChar

StartChar: zwj
Encoding: 8205 8205 97
GlifName: zwj
Width: 0
GlyphClass: 2
Flags: W
LayerCount: 2
Fore
SplineSet
440 908 m 1
 319 801 l 1
 86 908 l 1
 92 174 l 1
 -86 174 l 1
 -92 908 l 1
 -342 746 l 1
 -462 850 l 1
 -111 1082 l 1
 -381 1242 l 1
 -258 1346 l 1
 -2 1184 l 1
 274 1379 l 1
 398 1278 l 1
 107 1082 l 1
 440 908 l 1
EndSplineSet
EndChar

StartChar: uni25CC
Encoding: 9676 9676 98
GlifName: uni25C_C_
Width: 1493
GlyphClass: 2
Flags: W
LayerCount: 2
Fore
SplineSet
70 517 m 1
 14 746 l 1
 176 773 l 1
 232 547 l 1
 70 517 l 1
23 892 m 1
 90 1100 l 1
 247 1062 l 1
 182 856 l 1
 23 892 l 1
187 1238 m 1
 393 1379 l 1
 494 1266 l 1
 288 1125 l 1
 187 1238 l 1
587 1454 m 1
 822 1454 l 1
 822 1310 l 1
 594 1310 l 1
 587 1454 l 1
1045 1398 m 1
 1306 1238 l 1
 1210 1120 l 1
 958 1282 l 1
 1045 1398 l 1
1419 1054 m 1
 1472 758 l 1
 1310 739 l 1
 1255 1031 l 1
 1419 1054 l 1
1437 496 m 1
 1291 327 l 1
 1160 419 l 1
 1304 582 l 1
 1437 496 l 1
1066 166 m 1
 813 101 l 1
 767 241 l 1
 1024 302 l 1
 1066 166 l 1
477 138 m 1
 232 294 l 1
 327 416 l 1
 574 258 l 1
 477 138 l 1
EndSplineSet
EndChar

StartChar: bn_half_rra
Encoding: 65537 -1 99
GlifName: bn_half_R_a
Width: 792
GlyphClass: 3
Flags: W
AnchorPoint: "abvm" 508 1206 basechar 0
LayerCount: 2
Fore
SplineSet
510 375 m 0
 510 421 546 460 592 460 c 0
 638 460 674 421 674 375 c 0
 674 328 638 289 592 289 c 0
 546 289 510 328 510 375 c 0
7 1419 m 0
 42 1452 67 1468 237 1468 c 0
 319 1468 436 1464 603 1457 c 0
 883 1439 877 1431 918 1408 c 1
 972 1386 994 1369 994 1347 c 0
 994 1324 971 1296 936 1251 c 1
 924 1207 921 1205 867 1205 c 0
 716 1205 699 1202 699 1172 c 0
 699 1154 683 1125 663 1107 c 0
 642 1088 628 1052 628 1018 c 0
 628 967 635 959 697 940 c 0
 770 918 806 861 806 767 c 0
 806 714 732 564 706 564 c 0
 695 564 672 548 654 528 c 0
 632 503 580 491 523 491 c 0
 463 491 395 504 345 531 c 0
 238 588 25 810 11 879 c 0
 9 889 8 898 8 906 c 0
 8 935 21 948 41 948 c 0
 79 948 142 899 185 816 c 0
 254 682 353 617 487 617 c 0
 565 617 590 625 631 665 c 0
 665 697 680 738 680 772 c 0
 680 812 659 844 621 844 c 0
 613 844 605 843 596 840 c 0
 590 838 582 837 572 837 c 0
 554 837 532 840 516 847 c 0
 484 859 468 881 468 922 c 0
 468 957 480 1008 503 1080 c 0
 523 1142 539 1195 539 1198 c 0
 539 1201 460 1205 366 1205 c 0
 196 1205 123 1183 73 1183 c 0
 46 1183 26 1190 0 1209 c 0
 -36 1236 -64 1264 -64 1302 c 0
 -64 1333 -44 1371 7 1419 c 0
EndSplineSet
Ligature2: "'half' Half Forms in Bengali2 lookup 6 subtable" bn_rra bn_hasanta
EndChar

StartChar: bn_half_rrha
Encoding: 65538 -1 100
GlifName: bn_half_R_ha
Width: 695
GlyphClass: 3
Flags: W
AnchorPoint: "abvm" 428 1206 basechar 0
LayerCount: 2
Fore
SplineSet
15 1387 m 0
 33 1400 170 1406 318 1406 c 0
 500 1406 699 1397 715 1381 c 0
 723 1373 726 1366 726 1355 c 0
 726 1344 723 1331 715 1314 c 0
 699 1277 691 1269 612 1269 c 0
 596 1269 577 1269 555 1270 c 2
 530 1270 l 2
 460 1270 406 1263 395 1252 c 0
 384 1241 380 1196 380 1139 c 0
 380 1041 394 909 416 864 c 0
 436 823 470 801 510 801 c 0
 536 801 564 810 591 828 c 0
 627 852 637 874 637 928 c 0
 637 993 632 1000 558 1029 c 0
 514 1046 464 1060 446 1060 c 0
 426 1060 416 1066 416 1076 c 0
 416 1088 431 1106 458 1124 c 0
 478 1137 500 1143 533 1143 c 0
 551 1143 572 1141 598 1138 c 0
 731 1121 776 1065 776 918 c 0
 776 823 772 812 712 762 c 0
 651 712 566 685 489 685 c 0
 441 685 397 695 363 717 c 0
 299 758 282 824 279 1050 c 2
 276 1256 l 1
 193 1261 l 2
 67 1269 29 1282 5 1325 c 0
 -3 1339 -7 1349 -7 1357 c 0
 -7 1368 0 1376 15 1387 c 0
429 519 m 0
 429 565 465 604 511 604 c 0
 557 604 593 565 593 519 c 0
 593 472 557 433 511 433 c 0
 465 433 429 472 429 519 c 0
EndSplineSet
Ligature2: "'half' Half Forms in Bengali2 lookup 6 subtable" bn_rrha bn_hasanta
EndChar

StartChar: bn_half_yya
Encoding: 65539 -1 101
GlifName: bn_half_Y_a
Width: 640
GlyphClass: 3
Flags: W
AnchorPoint: "abvm" 518 1206 basechar 0
LayerCount: 2
Fore
SplineSet
201 432 m 0
 201 478 237 517 283 517 c 0
 329 517 365 478 365 432 c 0
 365 385 329 346 283 346 c 0
 237 346 201 385 201 432 c 0
-15 1329 m 2
 -15 1442 l 1
 123 1442 l 2
 199 1442 301 1429 351 1413 c 0
 381 1403 406 1399 425 1399 c 0
 444 1399 459 1403 467 1413 c 0
 481 1429 556 1442 632 1442 c 0
 763 1442 771 1438 771 1370 c 0
 771 1320 762 1304 730 1304 c 0
 725 1304 719 1304 712 1305 c 0
 705 1306 699 1306 694 1306 c 0
 655 1306 652 1274 646 1081 c 0
 645 1034 644 990 644 948 c 0
 644 705 668 548 706 548 c 0
 743 548 767 519 767 481 c 0
 767 470 765 459 761 448 c 0
 757 436 748 430 731 430 c 0
 706 430 661 444 583 475 c 0
 297 588 11 745 11 790 c 0
 11 813 55 854 110 884 c 0
 165 914 212 960 217 989 c 0
 218 994 218 1000 218 1005 c 0
 218 1068 155 1141 61 1183 c 0
 -5 1213 -15 1231 -15 1329 c 2
530 998 m 2
 522 1283 l 1
 373 1292 l 2
 351 1293 332 1294 315 1294 c 0
 244 1294 209 1283 209 1258 c 0
 209 1242 223 1221 250 1194 c 0
 315 1129 367 1025 367 968 c 0
 367 958 365 950 362 943 c 0
 352 925 320 879 292 844 c 2
 239 779 l 1
 364 718 l 2
 418 692 463 678 490 678 c 0
 501 678 509 680 513 685 c 0
 524 697 531 793 531 912 c 0
 531 940 531 969 530 998 c 2
EndSplineSet
Ligature2: "'half' Half Forms in Bengali2 lookup 6 subtable" bn_yya bn_hasanta
EndChar

StartChar: bn_half_asamese_ra
Encoding: 65540 -1 102
GlifName: bn_half_asamese_ra
Width: 846
VWidth: 1484
GlyphClass: 3
Flags: HW
LayerCount: 2
Fore
SplineSet
-4 1406.59960938 m 2
 6.2001953125 1463 l 1
 422 1451.59960938 l 2
 767 1442.59960938 861.799804688 1436.59960938 861.799804688 1399.40039062 c 0
 861.799804688 1368.47164139 853.400390625 1331.03338925 840.200195312 1282.20019531 c 0
 825.200195312 1261.20019531 795.200195312 1251 748.400390625 1248.59960938 c 0
 709.400390625 1246.79980469 674 1235.40039062 667.400390625 1222.79980469 c 0
 665 1218 663.799804688 1198.20019531 663.799804688 1167.59960938 c 0
 663.799804688 1053 680 794.400390625 696.799804688 671.400390625 c 0
 707.599609375 595.200195312 719.599609375 568.200195312 761.599609375 529.200195312 c 0
 795.200195312 497.400390625 811.400390625 474.599609375 811.400390625 454.799804688 c 0
 811.400390625 441.599609375 804.200195312 430.200195312 790.400390625 418.799804688 c 0
 786.799804688 415.799804688 782.599609375 414 776.599609375 414 c 0
 756.200195312 414 718.400390625 435 641.599609375 485.400390625 c 0
 572 531 473.599609375 590.400390625 425 615.599609375 c 0
 376.400390625 640.799804688 306.799804688 678 271.400390625 697.799804688 c 0
 147.200195312 767.400390625 109.400390625 786.599609375 80.599609375 795.599609375 c 0
 66.2001953125 800.400390625 53.599609375 816 53.599609375 831.599609375 c 0
 53.599609375 861 133.400390625 913.200195312 360.200195312 1035.59960938 c 0
 474.799804688 1098 538.400390625 1156.79980469 538.400390625 1203 c 0
 538.400390625 1242 498.799804688 1257 366.799804688 1257 c 0
 324.799804688 1257 273.799804688 1255.79980469 211.400390625 1252.79980469 c 0
 166.400390625 1251 127.400390625 1249.79980469 95.599609375 1249.79980469 c 0
 35 1249.79980469 -1 1253.40039062 -5.2001953125 1260 c 0
 -7.599609375 1264.20019531 -8.7998046875 1273.20019531 -8.7998046875 1285.20019531 c 0
 -8.7998046875 1320.5442652 -7 1363.57193729 -4 1406.59960938 c 2
567.200195312 913.799804688 m 0
 563.599609375 945 541.400390625 966.599609375 521.599609375 966.599609375 c 0
 512.599609375 966.599609375 504.799804688 962.400390625 498.799804688 952.799804688 c 0
 497 949.799804688 495.799804688 945.599609375 495.799804688 940.799804688 c 0
 495.799804688 913.799804688 527.599609375 870 551 870 c 0
 561.799804688 870 567.799804688 880.799804688 567.799804688 900.599609375 c 0
 567.799804688 904.799804688 567.799804688 909 567.200195312 913.799804688 c 0
497.599609375 804 m 0
 420.200195312 856.200195312 389 876.599609375 366.200195312 876.599609375 c 0
 352.400390625 876.599609375 341.599609375 868.799804688 326.599609375 856.200195312 c 0
 310.400390625 843 301.400390625 832.200195312 301.400390625 821.400390625 c 0
 301.400390625 801.599609375 332 781.200195312 405.799804688 739.200195312 c 0
 456.200195312 711 514.400390625 676.799804688 534.200195312 664.200195312 c 0
 547.400390625 655.799804688 555.799804688 650.400390625 561.200195312 650.400390625 c 0
 569.599609375 650.400390625 570.799804688 663.599609375 570.799804688 697.799804688 c 0
 570.799804688 747.599609375 560.599609375 761.400390625 497.599609375 804 c 0
EndSplineSet
EndChar

StartChar: bn_half_asamese_va
Encoding: 65541 -1 103
GlifName: bn_half_asamese_va
Width: 833
VWidth: 1459
GlyphClass: 3
Flags: HW
LayerCount: 2
Fore
SplineSet
79.2001953125 676.599609375 m 1
 79.2001953125 646.599609375 72.599609375 610.599609375 72.599609375 583 c 0
 72.599609375 561.400390625 76.7998046875 545.200195312 90.599609375 539.799804688 c 0
 278.400390625 469 394.799804688 396.400390625 600 333.400390625 c 0
 603 332.799804688 606 332.200195312 609 332.200195312 c 0
 639.599609375 332.200195312 680.400390625 371.799804688 680.400390625 397 c 0
 680.400390625 404.200195312 676.799804688 410.200195312 669 413.799804688 c 0
 463.799804688 508 334.200195312 550 132.599609375 667.599609375 c 1
 79.2001953125 676.599609375 l 1
309.599609375 1456 m 2
 427.200195312 1457.20019531 522 1457.79980469 596.400390625 1457.79980469 c 0
 761.400390625 1457.79980469 829.799804688 1454.79980469 840 1448.20019531 c 0
 846.599609375 1436.58785514 852.599609375 1385.16524857 852.599609375 1335.40039062 c 0
 852.599609375 1293.40039062 823.200195312 1276.59960938 739.799804688 1268.20019531 c 2
 678 1262.20019531 l 1
 678.599609375 1001.20019531 l 2
 679.200195312 857.200195312 683.400390625 730 688.200195312 718 c 0
 693 706 699.599609375 668.799804688 702 634.599609375 c 0
 706.200195312 580 711.599609375 567.400390625 751.200195312 526.599609375 c 0
 780.599609375 496 796.200195312 470.200195312 796.200195312 449.799804688 c 0
 796.200195312 433 790.799804688 419.200195312 784.799804688 419.200195312 c 0
 765.599609375 419.200195312 689.400390625 460.599609375 673.799804688 479.799804688 c 0
 666 489.400390625 646.799804688 498.400390625 633.599609375 498.400390625 c 0
 619.799804688 498.400390625 595.799804688 508 580.200195312 520.599609375 c 0
 564.599609375 533.200195312 545.400390625 543.400390625 538.799804688 543.400390625 c 0
 522.599609375 543.400390625 442.200195312 595 394.200195312 636.400390625 c 0
 373.799804688 653.799804688 351.599609375 668.200195312 345 668.200195312 c 0
 338.400390625 668.200195312 311.400390625 686.200195312 285.599609375 707.799804688 c 0
 259.799804688 729.400390625 233.400390625 747.400390625 228 747.400390625 c 0
 217.799804688 747.400390625 129 803.799804688 100.799804688 827.799804688 c 0
 97.2001953125 831.400390625 94.7998046875 834.400390625 94.7998046875 838.599609375 c 0
 94.7998046875 846.400390625 103.200195312 857.200195312 121.799804688 877 c 0
 141 896.799804688 179.400390625 924.400390625 206.400390625 938.200195312 c 0
 233.400390625 952 257.400390625 967 259.200195312 971.200195312 c 0
 264.599609375 982.599609375 420.599609375 1086.40039062 433.200195312 1086.40039062 c 0
 438.599609375 1086.40039062 467.400390625 1108.59960938 498 1135.59960938 c 0
 535.200195312 1169.20019531 547.200195312 1183 547.200195312 1199.79980469 c 0
 547.200195312 1204 546.599609375 1207.59960938 545.400390625 1212.40039062 c 0
 538.200195312 1243.59960938 509.400390625 1261.59960938 471.599609375 1261.59960938 c 0
 460.799804688 1261.59960938 448.799804688 1259.79980469 436.799804688 1256.79980469 c 0
 414.599609375 1250.79980469 378 1246.59960938 351 1246.59960938 c 2
 345.599609375 1246.59960938 l 1
 330 1246.59960938 l 2
 262.799804688 1246.59960938 139.200195312 1237.59960938 73.7998046875 1228 c 0
 60.599609375 1226.20019531 49.2001953125 1225 39.599609375 1225 c 0
 22.7998046875 1225 11.400390625 1228 4.2001953125 1234 c 0
 -6.599609375 1243 -12.599609375 1265.79980469 -12.599609375 1292.20019531 c 0
 -12.599609375 1336 -9.599609375 1382.45479655 -2.400390625 1423.59960938 c 2
 9 1453 l 1
 309.599609375 1456 l 2
575.400390625 959.799804688 m 0
 571.200195312 983.200195312 564 995.200195312 550.200195312 995.200195312 c 0
 532.799804688 995.200195312 505.799804688 976 462.599609375 935.799804688 c 0
 426.599609375 902.799804688 376.200195312 866.799804688 350.400390625 855.400390625 c 0
 317.400390625 841 300.599609375 823.599609375 300.599609375 807.400390625 c 0
 300.599609375 792.400390625 314.400390625 779.200195312 342.599609375 769.599609375 c 0
 364.799804688 762.400390625 407.400390625 738.400390625 439.799804688 716.200195312 c 0
 504.599609375 672.400390625 564.599609375 639.400390625 579.599609375 639.400390625 c 0
 582 639.400390625 583.200195312 640.599609375 583.200195312 641.799804688 c 0
 583.799804688 647.200195312 584.400390625 663.400390625 584.400390625 685.599609375 c 0
 584.400390625 768.400390625 579.599609375 935.799804688 575.400390625 959.799804688 c 0
EndSplineSet
EndChar

StartChar: bn_ka_na
Encoding: 65580 -1 142
GlifName: bn_k_na
Width: 1348
GlyphClass: 3
Flags: W
AnchorPoint: "abvm" 774 1227 basechar 0
AnchorPoint: "blwm" 750 -471 basechar 0
LayerCount: 2
Fore
SplineSet
-19 1433 m 0
 0 1452 85 1460 341 1460 c 0
 415 1460 504 1459 609 1458 c 0
 1109 1453 1218 1446 1284 1412 c 0
 1328 1390 1363 1358 1363 1340 c 0
 1363 1295 1292 1233 1241 1233 c 0
 1217 1233 1188 1222 1180 1209 c 0
 1175 1201 1168 1196 1158 1196 c 0
 1148 1196 1135 1201 1119 1209 c 0
 1089 1225 1037 1232 989 1232 c 0
 941 1232 899 1225 889 1209 c 0
 887 1206 886 1203 886 1200 c 0
 886 1167 977 1117 1073 1101 c 0
 1132 1091 1194 1050 1275 967 c 0
 1356 884 1381 852 1381 811 c 0
 1381 800 1379 789 1376 775 c 0
 1352 668 1222 553 1115 546 c 1
 1100 546 l 2
 1055 546 1008 557 988 573 c 0
 963 594 950 630 950 667 c 0
 950 709 966 752 997 780 c 0
 1031 811 1046 839 1046 859 c 0
 1046 878 1033 889 1012 889 c 0
 990 889 959 877 924 848 c 0
 888 818 870 767 860 672 c 0
 853 599 830 492 810 437 c 0
 792 388 783 335 783 271 c 0
 783 243 785 213 788 180 c 0
 809 -39 820 -158 820 -228 c 0
 820 -313 804 -328 766 -365 c 0
 732 -399 707 -416 684 -416 c 0
 658 -416 634 -394 599 -347 c 0
 574 -314 563 -294 563 -263 c 0
 563 -241 569 -214 579 -174 c 0
 597 -104 606 -45 606 7 c 0
 606 67 594 117 570 163 c 0
 546 208 520 231 490 231 c 0
 459 231 425 207 384 160 c 0
 347 117 285 82 229 72 c 0
 205 68 186 65 171 65 c 0
 136 65 119 78 93 109 c 0
 61 149 45 195 45 243 c 0
 45 330 97 419 190 469 c 0
 231 491 257 502 287 502 c 0
 325 502 370 484 461 443 c 0
 495 428 539 397 562 372 c 0
 586 345 607 332 623 332 c 0
 644 332 656 354 656 397 c 0
 656 455 636 474 529 526 c 0
 458 560 343 644 267 715 c 0
 191 786 125 843 115 843 c 0
 105 843 86 865 70 894 c 0
 63 907 60 918 60 929 c 0
 60 974 117 1007 229 1025 c 0
 383 1049 632 1145 632 1179 c 0
 632 1224 549 1251 417 1251 c 0
 386 1251 351 1249 315 1246 c 0
 215 1238 107 1217 77 1202 c 0
 58 1192 44 1187 33 1187 c 0
 16 1187 5 1198 -13 1221 c 0
 -37 1253 -49 1298 -49 1340 c 0
 -49 1378 -39 1413 -19 1433 c 0
651 843 m 0
 620 843 555 850 504 859 c 0
 482 863 464 865 450 865 c 0
 422 865 412 857 412 840 c 0
 412 788 439 762 537 717 c 0
 579 698 601 687 617 687 c 0
 635 687 645 701 666 733 c 0
 691 770 703 795 703 813 c 0
 703 834 686 843 651 843 c 0
EndSplineSet
Ligature2: "'cjct' Conjunct Forms in Bengali2 lookup 0-1" bn_ka bn_hasanta bn_na
EndChar

StartChar: bn_ka_la
Encoding: 65581 -1 143
GlifName: bn_k_la
Width: 1413
GlyphClass: 3
Flags: W
AnchorPoint: "abvm" 888 1236 basechar 0
AnchorPoint: "blwm" 828 -747 basechar 0
LayerCount: 2
Fore
SplineSet
-4 1444 m 0
 8 1458 294 1465 601 1465 c 0
 952 1465 1332 1456 1369 1440 c 0
 1392 1430 1412 1381 1412 1333 c 0
 1412 1251 1398 1244 1238 1243 c 0
 1084 1242 1002 1212 1002 1174 c 0
 1002 1143 1057 1108 1173 1080 c 0
 1287 1053 1412 892 1412 771 c 0
 1412 732 1383 658 1351 614 c 0
 1316 565 1291 545 1246 545 c 0
 1226 545 1202 549 1171 556 c 0
 1106 570 1052 599 1052 619 c 0
 1052 645 1044 657 1034 657 c 0
 1015 657 987 620 981 568 c 0
 975 522 937 470 895 449 c 0
 850 427 833 407 833 364 c 0
 833 347 835 327 840 301 c 0
 851 240 867 8 877 -218 c 0
 882 -331 885 -414 885 -477 c 0
 885 -607 873 -648 843 -676 c 0
 822 -696 804 -706 787 -706 c 0
 732 -706 698 -599 680 -375 c 0
 657 -101 599 24 496 24 c 0
 422 24 366 -50 366 -146 c 0
 366 -194 339 -247 305 -268 c 0
 291 -276 278 -281 266 -281 c 0
 234 -281 202 -251 142 -174 c 0
 84 -100 39 -30 39 -13 c 0
 39 17 -5 41 -47 41 c 0
 -59 41 -71 39 -82 35 c 0
 -110 24 -124 -6 -124 -34 c 0
 -124 -62 -110 -87 -82 -87 c 0
 -17 -87 15 -129 15 -181 c 0
 15 -237 -21 -304 -92 -347 c 0
 -119 -364 -146 -372 -172 -372 c 0
 -236 -372 -294 -322 -336 -227 c 0
 -368 -154 -383 -84 -383 -19 c 0
 -383 161 -270 294 -126 294 c 0
 -63 294 6 268 75 211 c 0
 133 162 164 139 191 139 c 0
 215 139 236 158 271 194 c 0
 309 233 387 254 469 254 c 0
 520 254 572 246 617 229 c 0
 636 222 649 217 659 217 c 0
 673 217 679 226 679 252 c 0
 679 272 676 302 670 344 c 0
 654 457 614 523 477 664 c 0
 361 782 305 864 305 919 c 0
 305 962 339 989 408 1005 c 0
 673 1066 758 1108 758 1178 c 0
 758 1228 744 1242 589 1242 c 0
 542 1242 482 1241 406 1239 c 0
 370 1238 334 1238 300 1238 c 0
 152 1238 32 1246 13 1259 c 0
 -12 1277 -26 1323 -26 1367 c 0
 -26 1398 -19 1427 -4 1444 c 0
805 771 m 0
 811 808 815 836 815 857 c 0
 815 891 804 904 776 904 c 0
 754 904 722 897 676 884 c 0
 616 868 587 849 587 818 c 0
 587 790 611 750 658 693 c 0
 704 638 732 607 751 607 c 0
 776 607 787 658 805 771 c 0
1176 826 m 0
 1168 875 1146 901 1118 901 c 0
 1100 901 1079 890 1059 867 c 0
 1033 838 1020 815 1020 799 c 0
 1020 775 1047 764 1101 764 c 0
 1155 764 1177 776 1177 810 c 0
 1177 815 1177 820 1176 826 c 0
EndSplineSet
Ligature2: "'cjct' Conjunct Forms in Bengali2 lookup 0-1" bn_ka bn_hasanta bn_la
EndChar

StartChar: bn_ka_ta
Encoding: 65582 -1 144
GlifName: bn_k_ta
Width: 1785
GlyphClass: 3
Flags: W
AnchorPoint: "abvm" 876 1221 basechar 0
AnchorPoint: "blwm" 1116 -81 basechar 0
LayerCount: 2
Fore
SplineSet
18 1397 m 0
 57 1434 268 1445 951 1445 c 0
 1808 1445 1834 1443 1834 1371 c 0
 1834 1303 1806 1296 1492 1286 c 0
 1305 1280 1152 1263 1152 1249 c 0
 1152 1235 1200 1169 1256 1103 c 0
 1319 1029 1347 1002 1394 1002 c 0
 1418 1002 1446 1009 1485 1020 c 0
 1527 1032 1556 1039 1580 1039 c 0
 1619 1039 1642 1021 1677 979 c 0
 1713 936 1743 866 1745 822 c 0
 1747 778 1752 661 1756 558 c 0
 1760 455 1776 321 1793 254 c 0
 1802 218 1807 192 1807 172 c 0
 1807 136 1791 121 1756 108 c 0
 1742 103 1729 100 1717 100 c 0
 1636 100 1601 227 1599 510 c 0
 1598 676 1584 823 1568 839 c 0
 1554 853 1534 860 1511 860 c 0
 1447 860 1365 809 1349 743 c 0
 1345 729 1344 712 1344 695 c 0
 1344 655 1353 611 1370 580 c 0
 1386 550 1395 512 1395 458 c 0
 1395 389 1381 293 1353 152 c 0
 1345 110 1287 48 1221 9 c 0
 1161 -26 1073 -43 977 -43 c 0
 846 -43 700 -11 593 49 c 0
 527 86 439 135 393 161 c 0
 348 187 243 282 157 374 c 0
 63 475 27 523 27 565 c 0
 27 581 32 597 42 614 c 0
 64 655 97 687 114 687 c 0
 131 687 216 604 303 501 c 0
 390 398 527 280 611 237 c 0
 712 185 812 161 900 161 c 0
 1066 161 1187 247 1187 399 c 0
 1187 471 1186 494 1144 494 c 0
 1125 494 1097 489 1058 482 c 0
 1037 478 1016 476 996 476 c 0
 872 476 781 553 781 669 c 0
 781 774 844 829 967 829 c 0
 979 829 993 828 1006 827 c 0
 1025 825 1041 824 1055 824 c 0
 1118 824 1136 843 1143 896 c 0
 1144 901 1144 907 1144 912 c 0
 1144 962 1108 1004 1021 1058 c 0
 950 1102 878 1124 808 1124 c 0
 715 1124 626 1085 551 1009 c 0
 498 955 452 931 399 931 c 0
 387 931 375 933 362 935 c 0
 307 945 264 974 264 1001 c 0
 264 1097 309 1168 371 1168 c 0
 404 1168 455 1185 486 1208 c 0
 495 1214 499 1220 499 1224 c 0
 499 1232 481 1236 443 1236 c 0
 410 1236 361 1233 294 1227 c 0
 223 1221 171 1217 133 1217 c 0
 52 1217 31 1234 7 1277 c 0
 -5 1300 -12 1319 -12 1337 c 0
 -12 1359 -2 1378 18 1397 c 0
EndSplineSet
Ligature2: "'cjct' Conjunct Forms in Bengali2 lookup 0-1" bn_ka bn_hasanta bn_ta
Substitution2: "'ss01' Style Set 1 in Bengali2 lookup 11 subtable" bn_ka_ta.alt
EndChar

StartChar: bn_ka_ra
Encoding: 65583 -1 145
GlifName: bn_k_ra
Width: 1498
GlyphClass: 3
Flags: W
AnchorPoint: "abvm" 570 1215 basechar 0
AnchorPoint: "blwm" 1014 -285 basechar 0
LayerCount: 2
Fore
SplineSet
11 1365 m 0
 49 1411 163 1422 599 1422 c 0
 895 1422 1219 1411 1317 1398 c 0
 1450 1380 1486 1365 1486 1316 c 0
 1486 1309 1485 1301 1484 1293 c 0
 1473 1219 1448 1214 1126 1214 c 0
 936 1214 767 1202 752 1189 c 0
 747 1184 744 1175 744 1164 c 0
 744 1144 752 1117 766 1090 c 0
 790 1045 816 1028 889 1028 c 0
 916 1028 949 1030 991 1034 c 0
 1014 1036 1036 1037 1058 1037 c 0
 1306 1037 1480 899 1480 716 c 0
 1480 675 1471 632 1453 588 c 0
 1417 502 1397 479 1315 479 c 0
 1296 479 1275 480 1249 482 c 0
 1120 491 1084 511 1042 599 c 0
 1022 640 1011 692 1011 730 c 0
 1011 744 1012 757 1016 766 c 0
 1025 790 1034 802 1047 802 c 0
 1063 802 1086 784 1128 745 c 0
 1182 694 1232 667 1264 667 c 0
 1288 667 1302 682 1302 713 c 0
 1302 793 1219 853 1109 853 c 0
 972 853 932 793 920 569 c 0
 916 489 913 426 913 375 c 0
 913 206 943 175 1044 130 c 0
 1138 88 1189 8 1189 -71 c 0
 1189 -129 1162 -185 1105 -225 c 0
 1050 -264 991 -282 937 -282 c 0
 825 -282 733 -205 733 -80 c 0
 733 -14 727 10 695 10 c 0
 683 10 667 6 646 0 c 0
 409 -73 264 -110 174 -110 c 0
 81 -110 46 -71 26 8 c 0
 19 36 14 59 14 79 c 0
 14 175 125 187 616 204 c 2
 745 209 l 1
 718 522 l 2
 704 693 667 872 637 918 c 0
 610 960 574 979 542 979 c 0
 502 979 468 947 468 888 c 0
 468 785 314 703 187 703 c 0
 136 703 89 716 58 747 c 0
 28 777 12 875 12 965 c 0
 12 1046 25 1121 51 1138 c 0
 61 1145 66 1154 66 1165 c 0
 66 1183 53 1208 28 1236 c 0
 -2 1270 -16 1291 -16 1311 c 0
 -16 1327 -7 1344 11 1365 c 0
EndSplineSet
Ligature2: "'vatu' Vattu Variants in Bengali2 lookup 5 subtable" bn_ka bn_ra_phala
Substitution2: "'ss01' Style Set 1 in Bengali2 lookup 11 subtable" bn_ka_ra.alt
EndChar

StartChar: bn_ka_ssa
Encoding: 65584 -1 146
GlifName: bn_k_S_ha
Width: 1761
GlyphClass: 3
Flags: W
AnchorPoint: "abvm" 1032 1227 basechar 0
AnchorPoint: "blwm" 1308 -183 basechar 0
LayerCount: 2
Fore
SplineSet
-10 1438 m 0
 22 1459 86 1467 365 1467 c 0
 484 1467 641 1465 851 1463 c 0
 1355 1458 1780 1447 1796 1439 c 0
 1814 1429 1822 1408 1822 1385 c 0
 1822 1348 1801 1304 1765 1282 c 1
 1708 1256 1646 1246 1529 1246 c 0
 1485 1246 1434 1247 1373 1250 c 0
 1366 1250 1359 1251 1352 1251 c 0
 1304 1251 1246 1242 1215 1231 c 0
 1173 1215 1158 1207 1158 1172 c 0
 1158 1156 1161 1133 1166 1102 c 0
 1175 1045 1185 991 1189 984 c 0
 1193 977 1268 965 1359 958 c 0
 1557 942 1602 921 1677 809 c 0
 1717 749 1738 670 1738 596 c 0
 1738 529 1721 466 1687 425 c 0
 1650 379 1622 368 1540 368 c 2
 1529 368 l 2
 1468 369 1403 381 1382 396 c 0
 1334 431 1245 586 1245 635 c 0
 1245 690 1312 759 1358 759 c 0
 1363 759 1367 758 1371 757 c 0
 1411 742 1417 730 1441 626 c 0
 1451 582 1470 566 1511 566 c 0
 1554 566 1571 582 1583 635 c 0
 1585 645 1587 656 1587 666 c 0
 1587 737 1525 795 1410 831 c 0
 1376 842 1353 848 1332 848 c 0
 1303 848 1280 836 1236 810 c 0
 1189 782 1150 749 1149 735 c 2
 1149 705 l 2
 1149 657 1150 560 1152 456 c 0
 1156 259 1165 190 1195 149 c 0
 1293 16 1315 -23 1315 -68 c 0
 1315 -95 1305 -122 1294 -129 c 0
 1293 -130 1292 -130 1290 -130 c 0
 1249 -130 987 -5 918 49 c 0
 898 64 832 101 767 134 c 0
 702 167 632 204 610 218 c 0
 597 227 586 231 575 231 c 0
 561 231 546 223 526 206 c 0
 498 182 460 170 417 170 c 0
 372 170 322 184 275 211 c 0
 209 249 180 310 180 371 c 0
 180 476 264 583 389 583 c 0
 399 583 410 583 421 581 c 0
 432 579 442 579 451 579 c 0
 490 579 517 593 556 631 c 0
 590 665 605 685 605 708 c 0
 605 720 601 733 594 749 c 0
 581 780 548 818 521 832 c 0
 505 840 492 845 480 845 c 0
 460 845 442 833 410 804 c 0
 323 726 230 686 153 686 c 0
 98 686 51 707 19 749 c 0
 -5 780 -16 813 -16 846 c 0
 -16 897 12 949 67 999 c 0
 111 1039 149 1086 149 1103 c 0
 149 1145 102 1185 53 1185 c 0
 -14 1185 -57 1263 -57 1335 c 0
 -57 1377 -43 1416 -10 1438 c 0
929 1179 m 0
 919 1227 909 1229 650 1229 c 0
 384 1229 382 1228 354 1171 c 0
 343 1149 338 1129 338 1113 c 0
 338 1069 377 1045 455 1045 c 0
 462 1045 469 1046 477 1046 c 2
 495 1046 l 2
 611 1046 737 992 767 926 c 0
 782 893 797 878 824 878 c 0
 843 878 869 886 904 901 c 0
 943 918 956 929 956 969 c 0
 956 984 954 1003 951 1028 c 0
 945 1083 935 1152 929 1179 c 0
946 630 m 0
 947 644 947 658 947 671 c 0
 947 720 941 753 930 757 c 0
 928 758 925 758 923 758 c 0
 884 758 810 670 792 599 c 0
 783 561 757 514 732 489 c 0
 713 470 700 446 700 430 c 0
 700 426 701 423 703 420 c 0
 718 398 873 329 904 329 c 0
 906 329 908 329 909 330 c 0
 918 339 939 502 946 630 c 0
EndSplineSet
Ligature2: "'akhn' Akhand in Bengali2 lookup 12-1" bn_ka bn_hasanta bn_Sha
EndChar

StartChar: bn_ka_ssa_ma
Encoding: 65585 -1 147
GlifName: bn_k_S_h_ma
Width: 1059
GlyphClass: 3
Flags: W
AnchorPoint: "abvm" 708 1233 basechar 0
AnchorPoint: "blwm" 918 -255 basechar 0
LayerCount: 2
Fore
SplineSet
4 560 m 2
 -2 639 l 1
 147 626 l 2
 289 614 356 611 815 599 c 0
 960 595 1023 581 1023 546 c 0
 1023 531 1012 513 991 489 c 0
 970 466 952 456 921 456 c 0
 909 456 895 457 879 460 c 0
 862 463 846 464 832 464 c 0
 812 464 796 461 793 456 c 0
 791 453 790 440 790 420 c 0
 790 317 814 27 829 -21 c 0
 836 -44 859 -62 879 -62 c 0
 899 -62 930 -79 949 -99 c 0
 964 -116 972 -127 972 -138 c 0
 972 -148 966 -158 955 -173 c 0
 939 -195 924 -204 887 -204 c 0
 870 -204 849 -202 822 -199 c 0
 765 -192 692 -173 662 -157 c 0
 593 -120 487 -94 420 -94 c 0
 398 -94 380 -97 369 -103 c 0
 340 -118 313 -125 287 -125 c 0
 242 -125 202 -103 177 -60 c 0
 159 -30 151 1 151 29 c 0
 151 104 208 163 299 163 c 0
 354 163 369 171 369 203 c 0
 369 226 344 256 309 275 c 0
 277 292 227 336 199 371 c 0
 171 406 116 446 79 458 c 0
 18 478 9 490 4 560 c 2
666 466 m 0
 632 482 532 491 458 491 c 0
 408 491 369 487 369 477 c 0
 369 469 387 444 409 421 c 0
 497 332 545 244 545 171 c 0
 545 162 544 153 543 145 c 0
 540 125 538 111 538 99 c 0
 538 71 549 61 582 46 c 0
 599 38 614 34 627 34 c 0
 672 34 693 81 693 179 c 2
 693 200 l 1
 693 226 l 2
 693 284 698 350 705 380 c 0
 708 395 710 407 710 417 c 0
 710 441 698 451 666 466 c 0
0 1314 m 2
 0 1382 l 1
 532 1383 l 1
 1065 1384 l 1
 1065 1313 l 1
 1065 1243 l 1
 969 1254 l 2
 935 1258 904 1260 878 1260 c 0
 799 1260 758 1242 758 1206 c 0
 758 1176 772 1167 817 1167 c 0
 905 1167 1004 1076 1004 995 c 0
 1004 911 952 839 891 839 c 0
 849 839 826 864 826 894 c 0
 826 916 838 941 864 962 c 0
 889 982 900 996 900 1010 c 0
 900 1018 896 1027 889 1038 c 0
 876 1060 842 1075 807 1075 c 0
 740 1075 724 1032 719 835 c 0
 717 751 708 717 684 708 c 0
 665 701 652 697 641 697 c 0
 622 697 613 710 603 741 c 0
 595 768 579 794 567 801 c 0
 563 804 557 805 550 805 c 0
 516 805 450 778 408 743 c 0
 390 729 345 716 310 716 c 0
 253 716 246 723 246 778 c 0
 246 841 264 851 399 864 c 0
 456 869 461 876 461 952 c 0
 461 1011 441 1045 417 1045 c 0
 401 1045 382 1029 367 995 c 0
 347 951 325 931 289 931 c 0
 272 931 251 936 227 944 c 0
 177 962 151 992 151 1033 c 0
 151 1050 155 1070 165 1091 c 0
 173 1109 177 1122 177 1136 c 0
 177 1154 170 1172 154 1196 c 0
 126 1239 81 1267 46 1267 c 0
 36 1267 28 1265 20 1260 c 0
 18 1259 17 1258 15 1258 c 0
 6 1258 0 1279 0 1314 c 2
547 1277 m 0
 481 1285 419 1289 370 1289 c 0
 308 1289 265 1283 258 1271 c 0
 256 1269 256 1265 256 1260 c 0
 256 1246 262 1223 272 1200 c 0
 288 1165 298 1153 328 1153 c 0
 340 1153 355 1155 375 1158 c 0
 392 1161 408 1163 421 1163 c 0
 451 1163 470 1155 489 1138 c 0
 506 1123 520 1115 538 1115 c 0
 551 1115 567 1119 589 1127 c 0
 624 1139 656 1161 662 1177 c 0
 667 1189 669 1199 669 1209 c 0
 669 1247 632 1267 547 1277 c 0
655 931 m 0
 655 1042 654 1044 596 1044 c 2
 537 1044 l 1
 575 937 l 2
 596 878 614 827 614 824 c 0
 614 821 623 819 635 819 c 0
 646 819 655 870 655 931 c 0
EndSplineSet
Ligature2: "'cjct' Conjunct Forms in Bengali2 lookup 0-1" bn_ka_ssa bn_hasanta bn_ma
EndChar

StartChar: bn_ka_ssa_nna
Encoding: 65586 -1 148
GlifName: bn_k_S_h_N_a
Width: 1101
GlyphClass: 3
Flags: W
AnchorPoint: "abvm" 738 1233 basechar 0
AnchorPoint: "blwm" 750 -249 basechar 0
LayerCount: 2
Fore
SplineSet
11 1439 m 0
 15 1443 83 1445 181 1445 c 0
 457 1445 976 1432 1033 1419 c 0
 1091 1406 1096 1400 1101 1329 c 2
 1106 1252 l 1
 954 1265 l 2
 907 1269 873 1271 850 1271 c 0
 811 1271 801 1265 801 1252 c 0
 801 1215 838 1185 883 1185 c 0
 942 1185 1046 1118 1058 1072 c 0
 1064 1050 1069 1003 1069 966 c 0
 1069 906 1061 896 997 864 c 0
 955 843 932 832 913 832 c 0
 891 832 874 845 839 875 c 0
 812 898 790 909 776 909 c 0
 764 909 758 901 758 886 c 0
 758 880 759 873 761 864 c 0
 764 854 765 843 765 832 c 0
 765 786 745 739 721 739 c 0
 706 739 695 723 695 702 c 0
 695 677 700 669 736 669 c 0
 748 669 764 669 784 671 c 0
 795 672 805 672 814 672 c 0
 861 672 884 662 884 644 c 0
 884 633 875 619 857 602 c 0
 825 572 806 473 806 356 c 0
 806 299 811 238 820 178 c 0
 833 97 839 42 839 -3 c 0
 839 -50 832 -85 818 -128 c 0
 801 -179 766 -209 729 -209 c 0
 716 -209 703 -206 691 -198 c 0
 650 -172 629 -109 629 -12 c 0
 629 16 631 46 634 79 c 0
 640 139 644 181 644 212 c 0
 644 270 632 292 602 324 c 0
 578 350 552 363 530 363 c 0
 510 363 493 351 487 328 c 0
 482 309 442 272 399 247 c 0
 353 221 323 210 291 210 c 0
 280 210 270 211 258 213 c 0
 183 227 145 275 145 356 c 0
 145 387 150 422 161 462 c 0
 176 517 194 536 258 564 c 0
 295 580 344 588 388 588 c 0
 437 588 479 578 491 559 c 0
 496 550 518 543 539 543 c 0
 560 543 600 521 627 495 c 2
 677 447 l 1
 677 559 l 2
 677 640 674 662 658 662 c 0
 655 662 651 662 646 660 c 0
 642 659 637 658 630 658 c 0
 608 658 574 664 544 675 c 0
 515 686 497 691 482 691 c 0
 465 691 452 683 431 667 c 0
 403 646 379 635 356 635 c 0
 337 635 319 642 301 656 c 0
 264 684 246 714 246 750 c 0
 246 768 250 787 259 807 c 0
 273 841 285 870 285 873 c 0
 285 876 257 895 223 915 c 0
 164 950 160 956 160 1049 c 0
 160 1156 120 1227 41 1258 c 0
 7 1271 0 1287 0 1351 c 0
 0 1394 5 1433 11 1439 c 0
648 1263 m 0
 630 1270 524 1274 428 1274 c 0
 346 1274 270 1271 264 1265 c 0
 259 1260 258 1236 263 1211 c 0
 271 1168 304 1139 335 1139 c 0
 345 1139 356 1143 365 1150 c 0
 376 1159 385 1164 405 1164 c 0
 430 1164 473 1156 557 1138 c 0
 563 1137 568 1136 574 1136 c 0
 628 1136 677 1185 677 1224 c 0
 677 1240 669 1255 648 1263 c 0
915 1049 m 0
 898 1066 889 1073 868 1073 c 0
 854 1073 834 1070 803 1064 c 0
 782 1060 772 1058 772 1052 c 0
 772 1047 779 1038 792 1024 c 0
 806 1009 827 1000 845 1000 c 0
 849 1000 853 1000 856 1001 c 0
 861 1002 866 1003 872 1003 c 0
 888 1003 906 998 917 988 c 0
 925 982 931 979 935 979 c 0
 941 979 944 984 944 992 c 0
 944 1006 934 1030 915 1049 c 0
685 953 m 0
 678 996 664 1024 650 1024 c 0
 615 1024 611 1010 610 882 c 2
 610 871 l 2
 610 775 623 739 661 739 c 0
 677 739 690 817 690 888 c 0
 690 912 688 934 685 953 c 0
477 919 m 0
 472 985 466 999 433 1003 c 0
 429 1003 426 1004 423 1004 c 0
 399 1004 386 990 370 950 c 0
 361 928 355 914 355 903 c 0
 355 886 368 874 397 849 c 0
 419 830 437 820 450 820 c 0
 469 820 478 843 478 888 c 0
 478 897 478 908 477 919 c 0
EndSplineSet
Ligature2: "'cjct' Conjunct Forms in Bengali2 lookup 0-1" bn_k_Sha bn_hasanta bn_nna
EndChar

StartChar: bn_ka_ba
Encoding: 65587 -1 149
GlifName: bn_k_ba
Width: 1303
GlyphClass: 3
Flags: W
AnchorPoint: "abvm" 759 1227 basechar 0
AnchorPoint: "blwm" 876 -303 basechar 0
LayerCount: 2
Fore
SplineSet
-13 1448 m 0
 -5 1452 76 1453 199 1453 c 0
 313 1453 463 1452 625 1449 c 0
 1209 1439 1235 1437 1274 1391 c 0
 1292 1369 1301 1349 1301 1330 c 0
 1301 1269 1208 1228 1054 1228 c 0
 1037 1228 1019 1229 1000 1230 c 0
 987 1231 975 1231 964 1231 c 0
 910 1231 874 1223 865 1209 c 0
 862 1204 861 1199 861 1194 c 0
 861 1167 903 1141 956 1141 c 0
 1046 1140 1194 1047 1257 953 c 0
 1290 904 1306 866 1306 829 c 0
 1306 784 1282 741 1232 682 c 0
 1181 621 1156 611 1062 611 c 0
 948 611 879 654 879 704 c 0
 879 732 901 763 949 790 c 0
 996 816 1013 837 1013 872 c 0
 1013 877 1013 882 1012 887 c 0
 1007 932 982 955 952 955 c 0
 923 955 890 933 867 889 c 0
 847 850 832 803 832 780 c 0
 832 757 820 707 805 666 c 0
 796 641 791 624 791 608 c 0
 791 581 806 559 842 516 c 0
 878 472 895 437 895 384 c 0
 895 343 885 291 866 215 c 0
 863 203 861 191 861 181 c 0
 861 152 875 130 910 97 c 0
 948 61 968 26 968 -2 c 0
 968 -23 957 -39 935 -48 c 0
 915 -56 905 -82 905 -136 c 0
 905 -146 905 -156 906 -168 c 0
 907 -187 908 -204 908 -217 c 0
 908 -268 898 -277 864 -282 c 1
 859 -282 l 2
 803 -282 634 -181 577 -112 c 0
 560 -92 498 -51 438 -21 c 0
 307 45 160 143 138 178 c 0
 132 188 129 198 129 207 c 0
 129 239 164 267 240 299 c 0
 517 415 688 494 688 514 c 0
 688 526 646 540 593 546 c 0
 515 555 467 580 391 652 c 0
 336 704 247 779 192 818 c 0
 137 858 87 905 79 926 c 0
 77 931 76 937 76 942 c 0
 76 990 155 1045 252 1061 c 0
 299 1069 399 1094 475 1117 c 0
 581 1149 615 1169 620 1206 c 0
 621 1212 622 1217 622 1222 c 0
 622 1254 591 1255 398 1255 c 0
 223 1255 162 1246 141 1220 c 0
 123 1198 90 1187 58 1187 c 0
 30 1187 3 1195 -15 1213 c 0
 -33 1231 -41 1284 -41 1335 c 0
 -41 1388 -32 1440 -13 1448 c 0
648 843 m 0
 648 905 642 930 602 930 c 0
 579 930 544 922 493 907 c 0
 446 893 422 878 422 855 c 0
 422 832 446 800 493 754 c 0
 541 708 575 684 599 684 c 0
 634 684 648 735 648 843 c 0
707 191 m 0
 710 203 712 213 712 220 c 0
 712 238 700 242 667 242 c 0
 637 242 583 218 546 189 c 2
 480 136 l 1
 544 86 l 2
 586 53 623 36 650 36 c 0
 677 36 694 54 694 88 c 0
 694 115 700 163 707 191 c 0
EndSplineSet
Ligature2: "'blws' Below Base Substitutions in Bengali2 lookup 8 subtable" bn_ka bn_ba_phala
EndChar

StartChar: bn_kha_ra
Encoding: 65588 -1 150
GlifName: bn_kh_ra
Width: 1245
GlyphClass: 3
Flags: W
AnchorPoint: "abvm" 1112 1630 basechar 0
AnchorPoint: "blwm" 1080 -625 basechar 0
LayerCount: 2
Fore
SplineSet
1030 1592 m 0
 1066 1614 1085 1625 1099 1625 c 0
 1115 1625 1124 1611 1144 1580 c 0
 1160 1556 1167 1533 1167 1506 c 2
 1167 1500 l 1
 1196 1512 1226 1519 1256 1519 c 0
 1284 1519 1312 1513 1342 1500 c 0
 1371 1487 1383 1460 1383 1429 c 0
 1383 1399 1372 1365 1357 1338 c 0
 1328 1288 1277 1285 1219 1285 c 0
 1195 1285 1174 1288 1156 1296 c 1
 1153 1171 1152 990 1152 800 c 0
 1153 179 1153 177 1232 117 c 0
 1253 101 1264 72 1264 44 c 0
 1264 10 1249 -23 1221 -36 c 0
 1211 -41 1202 -43 1191 -43 c 0
 1162 -43 1122 -25 1033 23 c 0
 952 66 851 129 806 163 c 0
 762 197 719 225 711 225 c 0
 703 225 665 246 628 271 c 0
 591 296 508 344 444 376 c 0
 358 419 327 444 327 471 c 0
 327 512 395 595 428 595 c 0
 439 595 479 624 516 658 c 0
 579 717 584 727 584 829 c 0
 584 888 593 948 604 959 c 0
 612 967 616 979 616 994 c 0
 616 1082 481 1259 391 1265 c 0
 382 1266 375 1266 369 1266 c 0
 337 1266 335 1253 331 1180 c 0
 331 1174 330 1166 330 1159 c 0
 330 1111 339 1049 352 1011 c 0
 364 976 370 947 370 920 c 0
 370 875 353 835 314 783 c 0
 249 696 151 634 78 634 c 0
 74 634 71 635 67 635 c 0
 9 641 5 644 0 720 c 0
 -1 731 -1 740 -1 749 c 0
 -1 798 14 819 76 881 c 0
 140 945 170 987 170 1039 c 0
 170 1080 151 1127 116 1195 c 0
 80 1265 38 1336 24 1352 c 0
 6 1372 -3 1390 -3 1408 c 0
 -3 1441 30 1474 100 1516 c 0
 167 1556 196 1570 237 1570 c 0
 252 1570 268 1568 289 1565 c 0
 412 1547 494 1508 559 1436 c 0
 591 1401 626 1371 635 1371 c 0
 645 1371 657 1325 664 1268 c 0
 671 1211 688 1146 704 1122 c 0
 724 1091 733 1025 736 886 c 0
 737 852 737 824 737 800 c 0
 737 696 729 676 689 619 c 0
 657 573 640 534 640 510 c 0
 640 493 648 484 665 484 c 0
 679 484 701 471 713 456 c 0
 728 438 757 429 790 429 c 0
 827 429 867 440 892 462 c 0
 922 488 933 517 933 578 c 0
 933 622 942 689 953 724 c 0
 965 761 970 878 970 992 c 0
 970 1116 963 1236 951 1249 c 0
 939 1261 933 1283 933 1305 c 0
 933 1328 940 1352 953 1365 c 0
 965 1377 974 1426 974 1472 c 2
 974 1485 l 2
 974 1549 982 1563 1030 1592 c 0
982 -136 m 0
 982 -26 983 -4 1020 -4 c 0
 1028 -4 1038 -6 1050 -7 c 0
 1106 -14 1120 -32 1130 -111 c 0
 1141 -200 1150 -208 1246 -222 c 0
 1384 -242 1427 -288 1427 -416 c 0
 1427 -553 1352 -633 1263 -633 c 0
 1211 -633 1154 -605 1104 -545 c 2
 1031 -457 l 1
 903 -508 l 2
 796 -551 705 -572 629 -572 c 0
 575 -572 528 -561 490 -539 c 0
 442 -511 416 -478 416 -451 c 0
 416 -428 434 -410 470 -401 c 0
 500 -394 619 -368 733 -344 c 0
 847 -320 951 -294 962 -287 c 0
 973 -279 982 -213 982 -136 c 0
1317 -387 m 0
 1308 -371 1261 -358 1214 -358 c 0
 1155 -358 1134 -366 1134 -393 c 0
 1134 -397 1134 -401 1135 -405 c 0
 1142 -447 1199 -477 1247 -477 c 0
 1270 -477 1292 -470 1304 -454 c 0
 1315 -439 1321 -421 1321 -406 c 0
 1321 -399 1320 -392 1317 -387 c 0
EndSplineSet
Ligature2: "'vatu' Vattu Variants in Bengali2 lookup 5 subtable" bn_kha bn_ra_phala
EndChar

StartChar: bn_ga_ga
Encoding: 65589 -1 151
GlifName: bn_g_ga
Width: 2327
GlyphClass: 3
Flags: W
AnchorPoint: "abvm" 2016 1230 basechar 0
AnchorPoint: "blwm" 2196 -102 basechar 0
LayerCount: 2
Fore
SplineSet
860 1724 m 0
 873 1757 888 1772 904 1772 c 0
 937 1772 969 1705 969 1606 c 0
 969 1495 978 1448 1021 1448 c 0
 1047 1448 1086 1466 1144 1499 c 0
 1217 1541 1331 1586 1404 1601 c 0
 1427 1606 1453 1608 1482 1608 c 0
 1639 1608 1866 1542 1960 1462 c 0
 1992 1435 2011 1421 2028 1421 c 0
 2046 1421 2061 1437 2084 1468 c 0
 2114 1510 2195 1544 2241 1544 c 0
 2258 1544 2271 1539 2274 1529 c 0
 2275 1525 2284 1177 2293 759 c 0
 2297 562 2300 415 2300 305 c 0
 2300 40 2285 -13 2245 -29 c 0
 2229 -36 2214 -39 2201 -39 c 0
 2119 -39 2092 98 2076 514 c 0
 2066 778 2041 1010 2021 1031 c 0
 2001 1052 1985 1102 1985 1143 c 0
 1985 1262 1747 1356 1555 1356 c 0
 1472 1356 1397 1339 1355 1297 c 0
 1332 1275 1320 1259 1320 1240 c 0
 1320 1213 1345 1181 1403 1119 c 0
 1475 1041 1512 943 1512 841 c 0
 1512 771 1495 699 1459 631 c 0
 1415 547 1317 490 1238 490 c 0
 1214 490 1191 495 1172 507 c 0
 1155 518 1147 539 1147 567 c 0
 1147 626 1183 712 1241 778 c 0
 1267 807 1279 838 1279 872 c 0
 1279 940 1226 1017 1123 1094 c 2
 997 1188 l 1
 1031 1009 l 2
 1050 910 1059 815 1059 734 c 0
 1059 625 1042 541 1010 509 c 0
 996 495 983 488 971 488 c 0
 920 488 888 613 888 834 c 0
 888 1135 832 1199 538 1238 c 0
 487 1245 444 1248 410 1248 c 0
 340 1248 305 1233 305 1204 c 0
 305 1178 331 1141 384 1092 c 0
 451 1029 485 941 485 861 c 0
 485 787 456 719 396 687 c 0
 364 670 335 662 311 662 c 0
 268 662 242 688 242 729 c 0
 242 754 251 784 272 818 c 0
 294 853 305 876 305 895 c 0
 305 918 288 935 254 960 c 0
 213 989 159 1013 132 1013 c 0
 69 1013 35 1106 35 1277 c 0
 35 1395 50 1414 161 1436 c 0
 240 1451 323 1459 403 1459 c 0
 536 1459 657 1438 725 1400 c 0
 783 1366 820 1347 842 1347 c 0
 861 1347 868 1362 868 1394 c 0
 868 1419 864 1454 857 1501 c 0
 851 1540 849 1584 849 1622 c 0
 849 1667 852 1705 860 1724 c 0
EndSplineSet
Ligature2: "'cjct' Conjunct Forms in Bengali2 lookup 0-1" bn_ga bn_hasanta bn_ga
EndChar

StartChar: bn_ga_dha
Encoding: 65590 -1 152
GlifName: bn_g_dha
Width: 1088
GlyphClass: 3
Flags: W
AnchorPoint: "abvm" 780 1218 basechar 0
AnchorPoint: "blwm" 912 -102 basechar 0
LayerCount: 2
Fore
SplineSet
168 1441 m 0
 250 1459 325 1467 391 1467 c 0
 499 1467 585 1444 643 1399 c 0
 687 1365 716 1349 740 1349 c 0
 755 1349 769 1355 783 1367 c 0
 815 1394 902 1410 972 1410 c 0
 1014 1410 1049 1404 1063 1391 c 0
 1065 1389 1065 1387 1065 1385 c 0
 1065 1370 1027 1345 974 1325 c 2
 861 1282 l 1
 883 1077 l 2
 896 954 902 892 902 846 c 0
 902 800 896 771 882 712 c 0
 877 692 875 676 875 662 c 0
 875 620 902 601 984 561 c 0
 1067 521 1109 480 1109 453 c 0
 1109 435 1089 423 1049 423 c 0
 1032 423 1012 425 988 430 c 0
 953 436 929 441 911 441 c 0
 869 441 868 415 868 328 c 0
 868 260 891 149 918 84 c 0
 936 40 946 6 946 -17 c 0
 946 -42 934 -55 911 -55 c 0
 873 -55 803 -20 698 50 c 0
 596 118 464 189 401 209 c 0
 326 233 288 264 288 301 c 0
 288 350 352 410 482 482 c 0
 591 543 699 617 723 646 c 0
 748 678 766 797 766 944 c 0
 766 1217 752 1239 540 1300 c 0
 487 1315 448 1323 415 1323 c 0
 381 1323 354 1315 325 1300 c 0
 279 1275 256 1256 256 1237 c 0
 256 1218 280 1200 329 1179 c 0
 394 1151 422 1082 422 1010 c 0
 422 902 358 787 254 787 c 0
 198 787 169 808 169 838 c 0
 169 861 187 891 223 920 c 0
 259 949 276 978 276 1003 c 0
 276 1036 245 1060 186 1060 c 0
 101 1060 53 1130 53 1248 c 0
 53 1261 54 1275 55 1289 c 0
 65 1402 79 1422 168 1441 c 0
732 309 m 0
 732 377 725 404 695 404 c 0
 681 404 662 398 636 388 c 0
 608 377 595 348 595 318 c 0
 595 281 614 242 650 228 c 0
 677 218 695 211 707 211 c 0
 731 211 732 237 732 309 c 0
EndSplineSet
Ligature2: "'cjct' Conjunct Forms in Bengali2 lookup 0-1" bn_ga bn_hasanta bn_dha
EndChar

StartChar: bn_ga_na
Encoding: 65591 -1 153
GlifName: bn_g_na
Width: 1305
GlyphClass: 3
Flags: W
LayerCount: 2
Fore
SplineSet
518 583 m 0
 570 601 613 610 651 610 c 0
 699 610 742 596 792 565 c 0
 831 542 852 530 870 530 c 0
 888 530 902 542 923 567 c 0
 946 595 966 609 982 609 c 0
 1024 609 1040 507 1040 277 c 0
 1040 -10 1035 -33 966 -33 c 0
 902 -33 891 -11 888 125 c 0
 886 213 881 306 878 334 c 0
 872 382 835 408 787 408 c 0
 751 408 708 393 670 362 c 0
 619 321 572 301 526 301 c 0
 495 301 465 310 433 327 c 0
 410 340 399 367 399 398 c 0
 399 467 449 560 518 583 c 0
1009 1571 m 0
 1020 1586 1032 1593 1044 1593 c 0
 1080 1593 1118 1532 1125 1442 c 0
 1135 1319 1143 1309 1241 1309 c 0
 1300 1309 1354 1292 1363 1271 c 0
 1369 1256 1372 1242 1372 1230 c 0
 1372 1180 1324 1151 1239 1151 c 2
 1132 1151 l 1
 1132 946 l 2
 1132 766 1124 741 1062 741 c 0
 1004 741 989 773 976 915 c 0
 957 1120 883 1201 673 1249 c 0
 637 1257 591 1261 542 1261 c 0
 403 1261 244 1231 244 1193 c 0
 244 1184 293 1119 355 1046 c 0
 421 968 446 929 446 883 c 0
 446 862 441 839 431 810 c 0
 384 668 327 615 222 615 c 0
 166 615 137 633 137 661 c 0
 137 686 160 720 207 756 c 0
 254 792 278 824 278 859 c 0
 278 899 246 943 181 1000 c 0
 112 1061 89 1102 89 1174 c 0
 89 1184 89 1194 90 1205 c 0
 103 1370 156 1412 402 1412 c 0
 425 1412 450 1412 477 1411 c 0
 625 1407 789 1388 847 1368 c 0
 887 1354 916 1346 938 1346 c 0
 981 1346 993 1376 993 1446 c 2
 993 1458 l 1
 993 1467 l 2
 993 1511 1000 1558 1009 1571 c 0
EndSplineSet
Ligature2: "'cjct' Conjunct Forms in Bengali2 lookup 0-1" bn_ga bn_hasanta bn_na
Substitution2: "'ss01' Style Set 1 in Bengali2 lookup 11 subtable" bn_ga_na.alt
EndChar

StartChar: bn_ga_ra
Encoding: 65595 -1 157
GlifName: bn_g_ra
Width: 1183
GlyphClass: 3
Flags: W
AnchorPoint: "abvm" 1027 1697 basechar 0
AnchorPoint: "blwm" 1311 66 basechar 0
LayerCount: 2
Fore
SplineSet
987 1666 m 0
 1008 1672 1028 1675 1045 1675 c 0
 1077 1675 1101 1665 1120 1644 c 0
 1140 1622 1147 1604 1147 1527 c 0
 1147 1508 1147 1485 1146 1458 c 1
 1165 1464 1185 1467 1205 1467 c 0
 1244 1467 1283 1456 1321 1433 c 0
 1347 1418 1357 1393 1357 1366 c 0
 1357 1333 1343 1295 1327 1262 c 0
 1322 1251 1314 1248 1304 1248 c 0
 1286 1248 1262 1260 1240 1262 c 0
 1234 1262 1229 1263 1223 1263 c 0
 1205 1263 1189 1261 1173 1261 c 0
 1162 1261 1151 1262 1141 1265 c 1
 1141 1108 1154 965 1202 568 c 0
 1220 421 1228 305 1228 218 c 0
 1228 143 1222 90 1209 59 c 0
 1190 13 1178 6 1125 6 c 0
 1065 6 1063 9 1036 93 c 0
 1014 162 1006 259 1003 568 c 0
 999 935 997 960 962 1015 c 0
 895 1121 795 1161 584 1167 c 1
 553 1167 l 2
 396 1167 294 1131 294 1073 c 0
 294 1032 400 932 443 932 c 0
 481 932 488 910 502 750 c 0
 505 718 506 693 506 672 c 0
 506 623 498 594 477 544 c 0
 457 498 422 441 397 415 c 0
 368 385 336 371 306 371 c 0
 251 371 204 418 204 496 c 0
 204 545 217 567 282 627 c 0
 325 667 360 710 360 724 c 0
 360 749 280 833 256 833 c 0
 239 833 111 914 65 955 c 0
 39 978 28 1013 28 1053 c 0
 28 1153 98 1283 194 1315 c 0
 226 1326 268 1344 287 1357 c 0
 306 1370 388 1388 468 1397 c 0
 511 1402 544 1405 574 1405 c 0
 661 1405 722 1379 898 1294 c 0
 928 1279 956 1269 966 1269 c 0
 968 1269 968 1269 969 1270 c 0
 970 1271 971 1278 971 1288 c 0
 971 1317 967 1378 960 1447 c 0
 954 1516 950 1563 950 1595 c 0
 950 1649 961 1659 987 1666 c 0
1027 -23 m 0
 1027 87 1028 109 1065 109 c 0
 1073 109 1083 107 1095 106 c 0
 1151 99 1165 81 1175 2 c 0
 1186 -87 1195 -95 1291 -109 c 0
 1429 -129 1472 -175 1472 -303 c 0
 1472 -440 1397 -520 1308 -520 c 0
 1256 -520 1199 -492 1149 -432 c 2
 1076 -344 l 1
 948 -395 l 2
 841 -438 750 -459 674 -459 c 0
 620 -459 573 -448 535 -426 c 0
 487 -398 461 -365 461 -338 c 0
 461 -315 479 -297 515 -288 c 0
 545 -281 664 -255 778 -231 c 0
 892 -207 996 -181 1007 -174 c 0
 1018 -166 1027 -100 1027 -23 c 0
1362 -274 m 0
 1353 -258 1306 -245 1259 -245 c 0
 1200 -245 1179 -253 1179 -280 c 0
 1179 -284 1179 -288 1180 -292 c 0
 1187 -334 1244 -364 1292 -364 c 0
 1315 -364 1337 -357 1349 -341 c 0
 1360 -326 1366 -308 1366 -293 c 0
 1366 -286 1365 -279 1362 -274 c 0
EndSplineSet
Ligature2: "'vatu' Vattu Variants in Bengali2 lookup 5 subtable" bn_ga bn_ra_phala
EndChar

StartChar: bn_gha_na
Encoding: 65596 -1 158
GlifName: bn_gh_na
Width: 1385
GlyphClass: 3
Flags: W
LayerCount: 2
Fore
SplineSet
-21 1551 m 0
 -21 1628 -19 1628 730 1637 c 2
 1482 1645 l 1
 1469 1549 l 2
 1458 1463 1439 1452 1281 1443 c 2
 1105 1433 l 1
 1106 1101 l 1
 1106 1011 l 2
 1106 427 1087 9 1057 -64 c 0
 1037 -113 986 -140 939 -140 c 0
 904 -140 872 -125 857 -92 c 0
 851 -78 847 -47 847 -8 c 0
 847 33 851 82 858 131 c 0
 866 186 870 234 870 275 c 0
 870 414 825 477 732 477 c 0
 679 477 625 454 613 426 c 0
 601 398 544 357 487 335 c 0
 451 322 425 314 401 314 c 0
 369 314 342 328 303 358 c 0
 253 397 227 439 227 483 c 0
 227 527 253 571 303 614 c 0
 356 659 459 682 561 682 c 0
 655 682 747 662 797 623 c 0
 828 599 853 587 874 587 c 0
 889 587 902 593 915 604 c 0
 936 622 946 642 946 661 c 0
 946 708 888 751 801 752 c 0
 684 752 262 937 262 988 c 0
 262 1027 364 1059 481 1059 c 0
 561 1059 663 1124 663 1165 c 0
 663 1172 661 1178 655 1183 c 0
 652 1185 645 1186 634 1186 c 0
 601 1186 535 1177 465 1161 c 0
 406 1148 362 1140 328 1140 c 0
 247 1140 223 1186 191 1316 c 0
 165 1419 135 1456 68 1464 c 0
 5 1471 -21 1496 -21 1551 c 0
887 1443 m 0
 873 1461 763 1471 657 1471 c 0
 562 1471 470 1463 452 1447 c 0
 430 1428 420 1412 420 1397 c 0
 420 1358 495 1333 639 1326 c 0
 837 1317 851 1311 862 1222 c 0
 863 1215 863 1209 863 1202 c 0
 863 1148 836 1086 789 1035 c 0
 746 989 726 965 726 947 c 0
 726 930 743 918 777 897 c 0
 803 881 826 873 846 873 c 0
 905 873 936 944 936 1080 c 0
 936 1113 934 1149 930 1190 c 0
 919 1313 900 1426 887 1443 c 0
EndSplineSet
Ligature2: "'cjct' Conjunct Forms in Bengali2 lookup 0-1" bn_gha bn_hasanta bn_na
EndChar

